<svg xmlns="http://www.w3.org/2000/svg" viewBox="0 0 850.39 850.39"><defs><style>.cls-1{fill:#fff;}.cls-2{fill:#e6e7e8;}.cls-3{fill:none;}.cls-4{fill:#f26739;}.cls-5{fill:#1c75d4;}.cls-6{fill:#0076be;}.cls-7{fill:#4068b2;}.cls-8{fill:#fbb040;}.cls-9{fill:#808285;}</style></defs><g id="Layer_2" data-name="Layer 2"><circle class="cls-1" cx="571.58" cy="639.42" r="133.88"/><rect class="cls-1" x="378.22" y="187.05" width="66.88" height="55.54"/><circle class="cls-2" cx="570.27" cy="630.28" r="147.04"/><path class="cls-3" d="M416.79,233.63a12.58,12.58,0,0,0,6.92,2.11,9.34,9.34,0,0,0,.46,3.52,3,3,0,0,0,1.79,1.48,14.09,14.09,0,0,0,4.55.51h8.94v-5.51h-4.11a5.25,5.25,0,0,1-2.6-.4q-.54-.39-.63-1.92a12.24,12.24,0,0,0,4.45-1.95,6.24,6.24,0,0,0,2.27-3.45,37.45,37.45,0,0,0,.59-8.23V205a35,35,0,0,0-.47-6.64,11,11,0,0,0-2-4.32,11.19,11.19,0,0,0-4.64-3.42,17.55,17.55,0,0,0-7.07-1.35,16,16,0,0,0-6,1.09,10.74,10.74,0,0,0-4.41,3.25,11.17,11.17,0,0,0-2.26,4.58,34,34,0,0,0-.55,7.08v14.07a34.58,34.58,0,0,0,.92,9.21A9.4,9.4,0,0,0,416.79,233.63Zm7.09-31.7c0-2.35.16-3.76.49-4.23a1.63,1.63,0,0,1,1.42-.72,1.42,1.42,0,0,1,1.45.88,14.39,14.39,0,0,1,.35,4.07v20.9a22.88,22.88,0,0,1-.33,5.09A1.47,1.47,0,0,1,425.7,229a1.39,1.39,0,0,1-1.49-.93,20.37,20.37,0,0,1-.33-4.89Z"/><path class="cls-3" d="M231.73,454.45l.8.39-.8-.39-.64-.3-.35-.16.35.17Z"/><path class="cls-3" d="M235.13,456.14l-.37-.19-.77-.39.77.39Z"/><path class="cls-3" d="M385,211.67a53.61,53.61,0,0,0,5.85,4.26,34.18,34.18,0,0,1,5.54,4.13q1.1,1.23,1.09,5.25a5.3,5.3,0,0,1-.57,2.75,1.93,1.93,0,0,1-1.76.93,1.77,1.77,0,0,1-1.64-.73A7.22,7.22,0,0,1,393,225v-5.53H382v3a23.23,23.23,0,0,0,1.05,7.9,8.81,8.81,0,0,0,4.39,4.58,17,17,0,0,0,8.11,1.8,17.41,17.41,0,0,0,7.59-1.56,9,9,0,0,0,4.4-3.86,17.15,17.15,0,0,0,1.14-7.17c0-4.46-.69-7.69-2.05-9.69s-4.69-4.57-10-7.7a9,9,0,0,1-3.35-2.78,7.65,7.65,0,0,1-.61-3.43,5.06,5.06,0,0,1,.55-2.65,1.78,1.78,0,0,1,1.62-.87,1.55,1.55,0,0,1,1.41.65,6.83,6.83,0,0,1,.41,3V204h11V202.2c0-3.61-.36-6.17-1.06-7.67a8.25,8.25,0,0,0-4.31-3.76,18.76,18.76,0,0,0-7.85-1.49,17.15,17.15,0,0,0-7.19,1.36,9,9,0,0,0-4.32,3.79c-.88,1.6-1.33,4.15-1.33,7.64a16.26,16.26,0,0,0,.94,6A10.13,10.13,0,0,0,385,211.67Z"/><path class="cls-3" d="M482.54,544.58l.19-.19Z"/><path class="cls-3" d="M446.05,616.81a125.92,125.92,0,0,1,34.56-70.3A125.92,125.92,0,0,0,446.05,616.81Z"/><path class="cls-3" d="M695.1,636.42c-.93,68.79-58.18,123.6-128,122.59-57.51-.83-106.36-42.68-119.05-97,12.69,54.3,61.54,96.15,119,97,69.85,1,127.1-53.81,128-122.59a126.87,126.87,0,0,0-12.3-56.62h0A126.87,126.87,0,0,1,695.1,636.42Z"/><path class="cls-3" d="M479.84,649.71V658q0,14.22,3.31,22t14,12.75q10.71,5,25.85,5,13.8,0,24.19-4.34t14-10.75q3.63-6.42,3.63-19.93,0-18.6-6.54-27t-31.72-21.4c-5.86-3-9.4-5.6-10.66-7.74s-2-5.32-2-9.54c0-3.28.58-5.74,1.75-7.35a6,6,0,0,1,5.14-2.43c2.1,0,3.6.61,4.49,1.81s1.34,4,1.34,8.36v9.37h35v-5q0-15.09-3.36-21.38T544.65,570q-10.33-4.14-25-4.14-13.46,0-22.94,3.79c-6.32,2.53-10.92,6-13.75,10.52s-4.25,11.56-4.25,21.25q0,10.08,3,16.57a27.49,27.49,0,0,0,7.56,10.15q4.58,3.69,18.64,11.81t17.64,11.49Q529,654.87,529,666c0,3.38-.62,5.94-1.84,7.66a6.43,6.43,0,0,1-5.61,2.57c-2.5,0-4.25-.67-5.23-2s-1.48-4.41-1.48-9.14v-15.4Z"/><path class="cls-4" d="M236.25,456.74l-1-.53-.13-.07.13.07Z"/><path class="cls-4" d="M233.51,455.31l.48.25-.48-.25-.6-.29-.38-.18.37.18Z"/><polygon class="cls-4" points="682.81 579.8 682.81 579.8 682.81 579.8 682.81 579.8 682.81 579.8"/><path class="cls-2" d="M682.81,579.79h0a123.84,123.84,0,0,0-6-11.06h0Q680.08,574.08,682.81,579.79Z"/><polygon class="cls-2" points="682.81 579.8 682.81 579.8 682.81 579.8 682.81 579.8 682.81 579.8"/><polygon class="cls-2" points="682.81 579.8 682.81 579.8 682.81 579.79 682.8 579.79 682.81 579.8"/><path class="cls-5" d="M542.27,289v-.57H283.21c0,71.1,57.62,129.23,128.35,129.46C483.94,418.18,542,360.89,542.27,289Z"/><path class="cls-2" d="M682.91,579.8h0Z"/><path class="cls-2" d="M682.81,579.8h0Z"/><path class="cls-6" d="M619.41,587.26a5.44,5.44,0,0,0-4.53,2c-1,1.34-1.56,5.26-1.56,11.77v59.09q0,11,1,13.59c.68,1.72,2.28,2.57,4.79,2.57s4.21-1,4.92-3,1.08-6.69,1.08-14.15V601q0-8.84-1.12-11.29C623.27,588.09,621.74,587.26,619.41,587.26Z"/><path class="cls-6" d="M663.14,578.52l-.17,0,.17,0,.94.1h0Z"/><path class="cls-6" d="M671.61,579.26l.21,0,.7.05h0Z"/><path class="cls-6" d="M654.29,577.41l.39.06,1.07.15-1.07-.15Z"/><path class="cls-6" d="M660.53,578.22l-1.34-.16c-.55-.06-1.09-.13-1.64-.21l1.21.16,1.77.21h0Z"/><path class="cls-6" d="M667.72,579h0l.76.07.51,0-1.27-.1Z"/><path class="cls-6" d="M635,567.93h0l0-.16Z"/><path class="cls-6" d="M681,579.75l-.37,0h-.14c-1.17,0-2.33-.09-3.5-.15l-.66,0h0l.66,0c1.21.06,2.43.11,3.64.15l.37,0h0Z"/><path class="cls-6" d="M661.94,578.39l-1.32-.16h-.09l1.41.17,1.2.13-.17,0Z"/><path class="cls-6" d="M681,579.75h0Z"/><path class="cls-6" d="M653.32,577.27l1,.14h0Z"/><path class="cls-6" d="M654.68,577.47l-.4-.06h0l.39.06,1.07.15h0Z"/><path class="cls-6" d="M682.62,579.79h0Z"/><path class="cls-6" d="M667.31,578.92c-.46,0-.91-.08-1.37-.12l-.63-.06.63.06c.46,0,.91.09,1.37.12l.41,0h0Z"/><path class="cls-6" d="M672.74,579.34h0l.79,0h0Z"/><path class="cls-6" d="M675.05,579.48h0l1.26.07-1.26-.07Z"/><path class="cls-6" d="M667.72,579Z"/><path class="cls-6" d="M681.53,579.76h.19l.69,0-.69,0Z"/><path class="cls-6" d="M677,579.58c1.17.06,2.33.11,3.5.15h0C679.34,579.69,678.18,579.64,677,579.58Z"/><path class="cls-6" d="M681.35,579.76Z"/><path class="cls-6" d="M672.52,579.33h0Z"/><path class="cls-6" d="M655.77,577.62h0l.56.07.65.09-.65-.09Z"/><path class="cls-6" d="M681.35,579.76Z"/><path class="cls-6" d="M653.21,577.25l.11,0-.11,0Z"/><path class="cls-6" d="M657,577.78l.59.07h0Z"/><path class="cls-6" d="M663,578.5l.17,0,.94.1-.94-.1-2.61-.3h.09C661.4,578.33,662.18,578.42,663,578.5Z"/><path class="cls-6" d="M660.53,578.22l-1.34-.16c-.55-.06-1.09-.13-1.64-.21h0c.55.08,1.09.15,1.64.21Z"/><path class="cls-6" d="M661.94,578.39l1,.11c-.79-.08-1.57-.17-2.35-.27Z"/><path class="cls-6" d="M681.53,579.76h.19l.69,0h.4Z"/><path class="cls-6" d="M669.81,579.13l.93.07.87.06-2.59-.2Z"/><path class="cls-6" d="M667.31,578.92l.41,0-3.54-.33,1.13.11.63.06C666.4,578.84,666.85,578.89,667.31,578.92Z"/><path class="cls-6" d="M656.31,577.69l-.54-.07.54.07.65.09.59.07Z"/><path class="cls-6" d="M673.53,579.39h.21l.3,0,.4,0,.38,0h.26l1.26.07h0l-3.6-.21Z"/><path class="cls-6" d="M653.2,577.25h0l.11,0,1,.14Z"/><path class="cls-6" d="M681.53,579.76l1.28,0h0l-1.46,0Z"/><path class="cls-6" d="M444.84,632.28a123.35,123.35,0,0,1,1.21-15.47,123.35,123.35,0,0,0-1.21,15.47A121.64,121.64,0,0,0,448,662,121.64,121.64,0,0,1,444.84,632.28Z"/><path class="cls-6" d="M480.61,546.51l1.93-1.93Z"/><path class="cls-7" d="M437.16,733.36h-.34l1.74-.07h-.21Z"/><path class="cls-7" d="M426.17,585.21c0-.09.07-.19.1-.29l0,.1A1.46,1.46,0,0,0,426.17,585.21Z"/><path class="cls-7" d="M484.8,448.28l-2.5,1.13c.25-.11.51-.21.76-.33Z"/><path class="cls-7" d="M482.1,509c.82-.59,1.65-1.16,2.49-1.73-.51.34-1,.68-1.53,1C482.73,508.54,482.42,508.78,482.1,509Z"/><path class="cls-7" d="M432,571.41c.25-.54.51-1.09.77-1.63-.1.22-.22.44-.32.66S432.1,571.09,432,571.41Z"/><path class="cls-7" d="M421.61,668.61l-.09-.33,0,.12Z"/><path class="cls-7" d="M462,526.65c.63-.67,1.26-1.34,1.9-2-.39.4-.79.79-1.18,1.2Z"/><path class="cls-4" d="M437.16,733.36l1.19-.05Z"/><path class="cls-4" d="M419.51,733.83l2.29,0h0l-2.32,0Z"/><path class="cls-2" d="M417.19,633.85v0Z"/><path class="cls-2" d="M417.19,633.85v0Z"/><path class="cls-2" d="M421.81,733.81c5-.08,10-.24,15-.44-3.62.14-7.24.26-10.86.34C424.57,733.74,423.19,733.79,421.81,733.81Z"/><path class="cls-2" d="M449.85,732.74c-3.76.22-7.53.41-11.29.56C442.32,733.14,446.09,733,449.85,732.74Z"/><path class="cls-2" d="M438.56,733.3c3.76-.15,7.53-.34,11.29-.56q-5.75.33-11.5.57Z"/><path class="cls-2" d="M426,733.71c3.62-.08,7.24-.2,10.86-.34h.34C433.42,733.5,429.69,733.63,426,733.71Z"/><path class="cls-8" d="M425.7,229a1.47,1.47,0,0,0,1.56-1.07,22.88,22.88,0,0,0,.33-5.09v-20.9a14.39,14.39,0,0,0-.35-4.07,1.42,1.42,0,0,0-1.45-.88,1.63,1.63,0,0,0-1.42.72c-.33.47-.49,1.88-.49,4.23v21.24a20.37,20.37,0,0,0,.33,4.89A1.39,1.39,0,0,0,425.7,229Z"/><path class="cls-8" d="M349.36,166.32c7.79,24.66,15.64,49.29,23.38,74,.89,2.83,2.21,3.6,5,3.59q34.7-.18,69.38,0c3.23,0,4.65-.94,5.62-4.07q11.57-36.87,23.3-73.71,4.6-14.47,9.26-28.94c1-3.17.2-4.41-2.37-5.94a140.8,140.8,0,0,0-35.77-14.94,30.08,30.08,0,0,0-3.79-.41v5.29q0,16,0,32.06,0,12,0,23.91c0,1.49.43,3.32-.26,4.4-1.08,1.65-3,3.88-4.47,3.86s-3.31-2.31-4.43-4c-.63-.94-.17-2.62-.17-4V151.32q0-24.56,0-49.08c0-6.07-2-8-8-8.06-8.51-.06-17,0-25.52,0-7.75,0-9.28,1.58-9.28,9.52q0,23.92,0,47.85v26c0,1.34.46,3-.17,3.95-1.16,1.64-3,3.85-4.53,3.85s-3.17-2.33-4.42-3.92c-.53-.66-.17-2-.17-3.06q0-12.47,0-24.93,0-16.19,0-32.39v-5a8.51,8.51,0,0,0-2.11-.18,127.21,127.21,0,0,0-38.93,16.4c-.9.55-1.26,3.09-.85,4.39Q344.68,151.52,349.36,166.32Zm62.69,39a34,34,0,0,1,.55-7.08,11.17,11.17,0,0,1,2.26-4.58,10.74,10.74,0,0,1,4.41-3.25,16,16,0,0,1,6-1.09,17.55,17.55,0,0,1,7.07,1.35,11.19,11.19,0,0,1,4.64,3.42,11,11,0,0,1,2,4.32,35,35,0,0,1,.47,6.64v14.78a37.45,37.45,0,0,1-.59,8.23,6.24,6.24,0,0,1-2.27,3.45,12.24,12.24,0,0,1-4.45,1.95q.09,1.53.63,1.92a5.25,5.25,0,0,0,2.6.4h4.11v5.51h-8.94a14.09,14.09,0,0,1-4.55-.51,3,3,0,0,1-1.79-1.48,9.34,9.34,0,0,1-.46-3.52,12.58,12.58,0,0,1-6.92-2.11,9.4,9.4,0,0,1-3.82-5.07,34.58,34.58,0,0,1-.92-9.21ZM383,194.43a9,9,0,0,1,4.32-3.79,17.15,17.15,0,0,1,7.19-1.36,18.76,18.76,0,0,1,7.85,1.49,8.25,8.25,0,0,1,4.31,3.76c.7,1.5,1.06,4.06,1.06,7.67V204h-11v-3.37a6.83,6.83,0,0,0-.41-3,1.55,1.55,0,0,0-1.41-.65,1.78,1.78,0,0,0-1.62.87,5.06,5.06,0,0,0-.55,2.65,7.65,7.65,0,0,0,.61,3.43,9,9,0,0,0,3.35,2.78c5.27,3.13,8.58,5.69,10,7.7s2.05,5.23,2.05,9.69a17.15,17.15,0,0,1-1.14,7.17,9,9,0,0,1-4.4,3.86,17.41,17.41,0,0,1-7.59,1.56,17,17,0,0,1-8.11-1.8,8.81,8.81,0,0,1-4.39-4.58,23.23,23.23,0,0,1-1.05-7.9v-3h11V225a7.22,7.22,0,0,0,.47,3.29,1.77,1.77,0,0,0,1.64.73,1.93,1.93,0,0,0,1.76-.93,5.3,5.3,0,0,0,.57-2.75q0-4-1.09-5.25a34.18,34.18,0,0,0-5.54-4.13,53.61,53.61,0,0,1-5.85-4.26,10.13,10.13,0,0,1-2.37-3.64,16.26,16.26,0,0,1-.94-6C381.64,198.58,382.09,196,383,194.43Z"/><path class="cls-8" d="M271.29,279.12h11.92l47.46,0h81.87v0H549c14.86,0,16.08-1.23,15.86-16-.09-6.58-3.3-9.86-9.94-9.95-5.11-.06-10.21,0-15.32,0H274.5c-12,0-13.93,2-13.92,14.13v1.33C260.66,276,263.79,279.12,271.29,279.12Z"/><path class="cls-8" d="M461.35,243.57h87.9c-2.53-43.24-20.67-77.65-54.63-104.63l-10.26,32.24C476.69,195.34,469.05,219.34,461.35,243.57Z"/><path class="cls-8" d="M364,243.5c-7.66-24.12-15.25-48-22.9-72.15l-10.19-32.06a134.52,134.52,0,0,0-46.08,61.21c-5.21,13.8-8.3,28-8,43Z"/><path class="cls-7" d="M249.88,471.43l-.64-1.64C249.43,470.23,249.64,470.78,249.88,471.43Z"/><path class="cls-6" d="M682.81,579.8c-.06,0,0,0,0,0a123.76,123.76,0,0,0-6-11.06h0a124.85,124.85,0,0,0-47-44.78c-.93-.51-1.86-1-2.79-1.48-1.41-.71-2.83-1.42-4.27-2.08a123.67,123.67,0,0,0-11.62-4.69,126.69,126.69,0,0,0-34.8-6.79c-1.8-.1-3.59-.16-5.4-.19a123.62,123.62,0,0,0-88.21,35.67l-.17.19c-.66.64-1.3,1.28-1.94,1.93a125.83,125.83,0,0,0-35.78,85.78A122.11,122.11,0,0,0,448,662c12.69,54.3,61.53,96.15,119.05,97,69.83,1,127.09-53.81,128-122.6A126.86,126.86,0,0,0,682.81,579.8ZM663,710.35h-28.5q-10.29,0-14.51-1.39c-2.8-.93-4.7-2.29-5.69-4.11s-1.47-5.08-1.47-9.82q-12.81-.3-22-5.85a33.08,33.08,0,0,1-5.8-4.37,24.21,24.21,0,0,1-6.38-9.74q-3-8.57-3-25.6V610.33c0-8.6.59-15.17,1.75-19.67a30,30,0,0,1,7.2-12.74,34.24,34.24,0,0,1,14.07-9,52.73,52.73,0,0,1,8.27-2.15,63.48,63.48,0,0,1,10.81-.9q1.53,0,3,.06a65.13,65.13,0,0,1,14.29,2c.93.24,1.85.51,2.74.8s1.69.56,2.5.88a38.25,38.25,0,0,1,13,7.64l.89.14c-.25,0-.52-.09-.78-.12l-.11,0c.64.62,1.25,1.23,1.81,1.89a29,29,0,0,1,6.36,12q1.47,6.2,1.48,18.48v41.1q0,16.85-1.88,22.88a17.44,17.44,0,0,1-7.22,9.56q-5.31,3.57-14.19,5.43.25,4.24,2,5.36t8.28,1.09H663Z"/><polygon class="cls-6" points="682.76 579.7 682.81 579.8 682.73 579.9 682.6 579.84 682.76 579.7"/><path class="cls-6" d="M652.93,576.74l.28.51.62.6a19.37,19.37,0,0,0,1.73-1.11,14.67,14.67,0,0,0-.93-1.14l-1.31.8Z"/><path class="cls-2" d="M707.41,580l-.33,0-1.69.2-1.34.16-1.14.12-.89.1h-.1l-1.07.1-.6.06-1.3.12-.39,0h0l-.74.06-.46,0,1.2-.09h0c1.12-.09,2.24-.2,3.36-.31h.1l.89-.1c.83-.08,1.66-.18,2.49-.28l1.27-.15.74-.09q-1.74-4.47-3.76-8.78a148.2,148.2,0,0,0-14.15-24.07q-4.14-5.72-8.78-11h0q-3.37-3.84-7-7.46a147.65,147.65,0,0,0-50.27-32.85c-1.43-.57-2.87-1.11-4.33-1.62a143.62,143.62,0,0,0-32.75-7.47l-1.26-.12q-6.51-.65-13.16-.7c-75.47-.51-138.16,55-147.75,127.24h2.28c-.24,1.48-.44,3-.62,4.44-.05.37-.09.74-.14,1.1-.17,1.48-.32,3-.44,4.44v0c-.08,1.07-.16,2.14-.21,3.2v.2q-.16,3.18-.18,6.35v.21c0,.88,0,1.75,0,2.63v.49a2.44,2.44,0,0,0,0,.27c0,1.06.06,2.12.11,3.17s.12,2.2.2,3.3l0,.31c.07.92.15,1.85.25,2.77,0,.23,0,.47.07.7.1,1,.21,1.92.33,2.89v0a.28.28,0,0,0,0,.09c.14,1.11.3,2.22.47,3.32s.32,2,.5,3c0,.17.06.34.1.52.14.78.29,1.55.44,2.33l.18.9c.17.78.34,1.57.52,2.35,0,.19.08.39.13.58.23,1,.47,2,.73,3,0,.1,0,.21.08.31.29,1.13.59,2.26.91,3.38l.09.31c.34,1.2.7,2.4,1.08,3.59,0,.08.05.16.07.23.37,1.16.75,2.32,1.15,3.48,0,.06,0,.13.07.2.42,1.2.85,2.4,1.3,3.6l.09.25c.45,1.17.9,2.35,1.38,3.52l0,.09c.5,1.22,1,2.44,1.54,3.66l.06.13c.64,1.46,1.31,2.92,2,4.38.23.49.47,1,.7,1.46.44.9.89,1.8,1.34,2.7s.8,1.58,1.22,2.36.85,1.61,1.28,2.42.91,1.65,1.38,2.48.91,1.61,1.38,2.42c.76,1.3,1.52,2.6,2.32,3.9l.26.43q1.44,2.32,3,4.65l.42.63q1.51,2.29,3.11,4.58l.38.54q1.76,2.5,3.61,5l-.79.15-.4.08-1.16.2h0c26.72,32.43,66.88,53.21,111.77,53.43,82,.39,148.38-65,148.8-146.72A145.18,145.18,0,0,0,707.41,580Zm-220-66.18c.48-.34,1-.66,1.45-1-.79.54-1.58,1.09-2.36,1.65Zm-19.32,16.67,1.12-1.14c-.61.62-1.21,1.25-1.81,1.89Zm-41.58,82.3c0,.09,0,.17,0,.25l0-.22v0c.51-3.19,1.15-6.38,1.92-9.59C427.68,606.38,427,609.57,426.53,612.76Zm2.8-13.1c.56-2.12,1.18-4.25,1.85-6.37C430.51,595.41,429.89,597.54,429.33,599.66Zm4.05-12.81.06-.18a.36.36,0,0,0,0-.09C433.44,586.67,433.41,586.76,433.38,586.85Zm5.49-13.11c.15-.31.28-.62.43-.93l.31-.62ZM567.26,752c-54.64-.8-101.06-40.56-113.11-92.15a115.51,115.51,0,0,1-3-28.26,119.38,119.38,0,0,1,34-81.5c.6-.62,1.21-1.23,1.83-1.84l.18-.17a117.47,117.47,0,0,1,83.8-33.9q2.58,0,5.13.18a121.12,121.12,0,0,1,33.06,6.45q5.67,2,11,4.46c1.37.64,2.71,1.3,4.05,2,.89.46,1.78.93,2.65,1.4a118.3,118.3,0,0,1,50.36,53.06l1.87,0h1.63l-1.49,0h-.85l-.54,0h-.62a120.53,120.53,0,0,1,11.69,53.79C688,700.86,633.62,753,567.26,752ZM694,581.26h-.21l-.75.05h-.2l-.28,0-.38,0-.36,0h-.25l-1.2.06h0l-.63,0c-1.15.06-2.3.11-3.46.15h-1l-.66,0h-1l-.55,0h-.84l-1.5,0h1.64l3.25-.08h.8c1.1,0,2.21-.08,3.32-.14l.63,0h0c1.14-.05,2.28-.12,3.42-.2H694l.86-.06-.2,0Zm2.13-.15-.44,0-.82.06,2.44-.19-.73.06Z"/><path class="cls-2" d="M519.26,456.06l-.6-.17,2.49.76Z"/><path class="cls-7" d="M164.9,579.79h0Z"/><path class="cls-5" d="M268.54,570.44q-.23-6.39-.67-12.48c-.84-11.59-2.2-22.35-3.84-32.1-5.87-35-15.15-57-15.37-57.53q-6.6,3.62-12.95,7.71c-1.69,1.09-3.36,2.22-5,3.36-4.63,3.2-9.16,6.6-13.57,10.26A149.11,149.11,0,0,0,186.26,524a123,123,0,0,0-10.15,19.44,121.74,121.74,0,0,0-7.32,25.34h0v.14c-.46,2.59-.84,5.21-1.14,7.88-.11,1-.2,2.06-.29,3.09H167l-1.22,0h-.08l.56,0h1c-.19,2.07-.34,4.17-.43,6.3-.31,7.43-.47,14.85-.53,22.29,0,2.21,0,4.44,0,6.66,0,10.76.07,21.53.15,32.29,0,5.77.08,11.53.08,17.29,0,4.41,2.46,7.5,6,10a246.57,246.57,0,0,0,57.14,29.48c10.74,4,21.68,7.38,33.22,11.29q.48-14.49.93-28.76.5-14.82,1-29.49c.1-3,.19-6,.29-8.91q.48-14.76,1-29.46c.05-1.4.09-2.82.14-4.22.32,0,1.91-11.17,2.13-15.77s.37-9.3.41-13.81Q268.78,577.55,268.54,570.44Z"/><path class="cls-7" d="M317.12,725.41c-2.42-.45-4.85-.9-7.27-1.39C312.27,724.51,314.7,725,317.12,725.41Z"/><path class="cls-7" d="M294.52,709.75c0-.25-.09-.5-.14-.74l1.5,8c-.42-2.28-.85-4.55-1.27-6.83Z"/><path class="cls-5" d="M380.29,467.73l.8.25,27.33,96.94a.29.29,0,0,0,.55,0l35.27-97,.07,0a107.58,107.58,0,0,1-29.42,4.63A109.52,109.52,0,0,1,380.29,467.73Z"/><path class="cls-7" d="M352.94,453.38c-.57-.2-1.13-.42-1.7-.63.42.15.84.32,1.26.48Z"/><path class="cls-7" d="M283.69,652q.94,5.06,1.91,10.11c-.46-2.4-.91-4.81-1.37-7.22Z"/><path class="cls-7" d="M315.46,445.84l2-.52Z"/><path class="cls-4" d="M412.74,733.89q3.39,0,6.77-.06h0Z"/><polygon class="cls-4" points="393.78 733.58 393.79 733.58 393.79 733.58 393.78 733.58"/><path class="cls-4" d="M400.29,733.75l1.68,0h0Z"/><path class="cls-4" d="M393,733.55h0l.79,0h0Z"/><path class="cls-4" d="M402,733.78l1,0-1,0Z"/><path class="cls-4" d="M322.2,726.32h0Z"/><path class="cls-4" d="M383.69,733.16l.6,0-.6,0Z"/><path class="cls-4" d="M319,709.75h86.64V654.93H284.23c.46,2.41.91,4.82,1.37,7.22.39,2.09.79,4.17,1.18,6.25q3,15.78,5.92,31.56l1.68,9c.05.24.1.49.14.74Z"/><path class="cls-4" d="M407.4,654.93v54.82h27.73a155.91,155.91,0,0,1-18.46-54.82Z"/><path class="cls-4" d="M309.85,724h0c2.42.49,4.85.94,7.27,1.39h0C314.7,725,312.27,724.51,309.85,724Z"/><path class="cls-4" d="M327.93,727.3l2.18.34-2.19-.34Z"/><path class="cls-4" d="M336.81,728.65l1.91.26-1.92-.26Z"/><path class="cls-4" d="M373.88,732.56l.85.06-.85-.06Z"/><path class="cls-4" d="M319,725.77l3.21.55h0Z"/><path class="cls-4" d="M317.12,725.41l1.87.36-1.87-.36Z"/><path class="cls-4" d="M308.77,447.72c2.22-.65,4.45-1.27,6.69-1.88C313.22,446.45,311,447.07,308.77,447.72Z"/><path class="cls-4" d="M319,444.89l-1.58.43c2.21-.59,4.42-1.16,6.65-1.71Q321.51,444.23,319,444.89Z"/><path class="cls-4" d="M286.78,668.4c-.39-2.08-.79-4.16-1.18-6.25Q290,685.58,294.38,709l-1.68-9Q289.75,684.17,286.78,668.4Z"/><path class="cls-2" d="M281.56,640.82,283.69,652v0Q282.62,646.41,281.56,640.82Z"/><path class="cls-2" d="M283.68,652v0l.54,2.89C284.05,654,283.86,653,283.68,652Z"/><path class="cls-2" d="M277.57,619.7q2,10.56,4,21.12,1.06,5.58,2.12,11.17Q280.62,635.85,277.57,619.7Z"/><path class="cls-2" d="M416.67,654.93a157.82,157.82,0,0,1-1.51-22.51,153.82,153.82,0,0,1,1.34-19.56h-9.1v42.07Z"/><path class="cls-2" d="M284.23,654.93h121.4V612.86H276.69l-.18,1.86c.35,1.66.74,3.31,1.06,5q3,16.14,6.11,32.29C283.86,653,284.05,654,284.23,654.93Z"/><path class="cls-2" d="M330.11,727.64q3.34.52,6.69,1-2.94-.42-5.88-.89Z"/><path class="cls-2" d="M407.4,733.86l5.34,0c-1.78,0-3.56,0-5.34,0Z"/><path class="cls-2" d="M384.29,733.19q4.35.21,8.7.36-3.94-.13-7.89-.33Z"/><path class="cls-2" d="M345.62,729.83c-1.77-.22-3.53-.46-5.29-.7l-1.61-.22c4.59.64,9.18,1.23,13.78,1.74-1-.11-2-.25-3.05-.36Z"/><path class="cls-2" d="M404,733.81h-1l3.51.05c-.26,0-.53,0-.79,0Z"/><path class="cls-2" d="M374.73,732.62c3,.21,6,.38,9,.54-2.77-.14-5.53-.31-8.29-.49Z"/><path class="cls-2" d="M365.07,731.88c-2.65-.22-5.29-.48-7.94-.74l-2-.22-2.6-.27q10.68,1.19,21.38,1.91-3.58-.24-7.15-.54Z"/><path class="cls-2" d="M309.85,724c-3.05-.61-6.11-1.26-9.16-1.94C303.74,722.76,306.8,723.41,309.85,724Z"/><path class="cls-2" d="M327.92,727.3q-2.85-.46-5.71-1Q325.08,726.83,327.92,727.3Z"/><path class="cls-2" d="M400.29,733.75q-3.26-.06-6.5-.17Q397,733.69,400.29,733.75Z"/><path class="cls-2" d="M349.45,730.29c1,.11,2,.25,3.05.36l2.6.27C353.22,730.72,351.33,730.51,349.45,730.29Z"/><path class="cls-2" d="M404,733.81l1.74,0h-.05Z"/><path class="cls-2" d="M407.4,733.84h0c1.78,0,3.56,0,5.34,0l6.75-.06C415.46,733.88,411.43,733.87,407.4,733.84Z"/><path class="cls-2" d="M393.79,733.58h0q3.24.1,6.5.17l1.68,0C399.24,733.73,396.51,733.67,393.79,733.58Z"/><path class="cls-2" d="M405.64,733.83h0V709.75H294.52l.09.45c.42,2.28.85,4.55,1.27,6.83.57,3.05,1.64,4.35,4.81,5.05s6.11,1.33,9.16,1.94c2.42.49,4.85.94,7.27,1.39,1.69.31,3.39.62,5.08.91h0q2.87.51,5.71,1l2.19.34.81.12q2.94.47,5.88.89l1.92.26,1.61.22c1.76.24,3.52.48,5.29.7l3.83.46c1.88.22,3.77.43,5.65.63l2,.22c2.65.26,5.29.52,7.94.74l1.66.14q3.57.3,7.15.54l.85.06.67,0c2.76.18,5.52.35,8.29.49l.6,0,.81,0q3.94.19,7.89.33l.8,0c2.72.09,5.45.15,8.18.2l1,0h1Z"/><path class="cls-2" d="M407.4,709.75v24.09c4,0,8.06,0,12.09,0l2.32,0c1.38,0,2.76-.07,4.15-.1,3.73-.08,7.46-.21,11.2-.35l1.19-.05q5.75-.24,11.5-.57c.3,0,.6-.06.89-.1h.07a158.54,158.54,0,0,1-15.68-22.88Z"/><path class="cls-2" d="M317.12,725.41l1.87.36,3.21.55C320.51,726,318.81,725.72,317.12,725.41Z"/><path class="cls-9" d="M406.67,611.19l-.3,0A.44.44,0,0,0,406.67,611.19Z"/><path class="cls-9" d="M407.4,733.89v0h-.92C406.79,733.87,407.09,733.89,407.4,733.89Z"/><path class="cls-4" d="M583.58,478.13c-1.41-.93-2.83-1.85-4.26-2.74l-1.56-1c-.91-.57-1.83-1.13-2.75-1.69l-1.84-1.08-2.54-1.46-1.94-1.08-2.51-1.37c-.65-.35-1.3-.7-2-1-.87-.46-1.75-.9-2.63-1.35l-1.85-.94c-1.16-.58-2.33-1.14-3.5-1.7l-2.13-1-3.27-1.5-2-.87-2.61-1.13-2.13-.88-2.53-1-2.16-.85c-.85-.34-1.71-.66-2.57-1l-2.13-.8-2.75-1-2-.71c-1.27-.45-2.54-.88-3.81-1.31l-2.19-.73-3.36-1.08c-.7-.23-1.4-.44-2.1-.65l-2.62-.81-3.52-1-2.35-.68c-1.83-.52-3.65-1-5.49-1.5a19.08,19.08,0,0,0-14.36,1.54c-1.31.66-2.62,1.29-3.94,1.91l-1.46.67-1.74.8c-.25.12-.51.22-.76.33l-2.7,1.16c-.69.28-1.37.58-2.06.85-.88.36-1.77.7-2.65,1.05l-2.09.8c-1.08.4-2.16.78-3.23,1.16l-1.5.52c-1.6.55-3.21,1.06-4.83,1.55l-.11,0L407,610.91a.47.47,0,0,1-.64.24.42.42,0,0,1-.25-.27L362.63,456.6c-.43-.12-.85-.27-1.28-.4-1.11-.34-2.21-.69-3.31-1.05l-1.64-.56c-1.15-.39-2.31-.79-3.46-1.21l-.44-.15c-.42-.16-.84-.33-1.26-.48-1-.37-2-.74-3-1.13l-2-.83c-.89-.36-1.77-.72-2.65-1.1l-2.43-1.07c-.75-.34-1.5-.66-2.25-1q-2.32-1.07-4.65-2.21c-3-1.49-7.11-2.55-10.21-1.79-2.23.55-4.44,1.12-6.65,1.71l-2,.52c-2.24.61-4.47,1.23-6.69,1.88l-1.77.51-1.49.46-2.67.82-1.36.44-2.75.89-1.37.46c-.9.31-1.81.61-2.71.93l-1.38.49-2.67.95-1.4.52-2.62,1-1.4.55c-.87.33-1.73.67-2.59,1l-1.42.58-2.53,1.05-1.43.61-2.51,1.1-1.4.63-2.51,1.15-1.38.65c-.85.4-1.69.82-2.54,1.23l-1.3.63-2.71,1.39-1.09.55c-1.26.66-2.51,1.33-3.76,2,0,.05.13.31.3.75,1.68,4.14,9.77,25.13,15.07,56.78,1.37,8.15,2.55,17,3.39,26.46.51,5.82.9,11.87,1.12,18.12q.25,7.11.2,14.58c0,4.51-.16,9.13-.4,13.81s-.56,9.28-1,14H416.5c10.09-76,76.07-134.46,155.5-133.92,4.67,0,9.28.29,13.85.74C585.09,479.15,584.34,478.64,583.58,478.13Z"/><rect class="cls-9" x="405.63" y="654.93" width="1.77" height="54.82"/><rect class="cls-9" x="405.63" y="612.86" width="1.77" height="42.07"/><path class="cls-9" d="M405.69,733.83c.26,0,.53,0,.79,0h.92v0Z"/><path class="cls-9" d="M405.69,733.83h0Z"/><path class="cls-9" d="M405.63,733.83h1.77V709.75h-1.77Z"/><path class="cls-2" d="M561.22,682.61q-3.62,6.4-14,10.75T523,697.7q-15.15,0-25.85-5t-14-12.75q-3.3-7.73-3.31-22v-8.28h35v15.4q0,7.1,1.48,9.14c1,1.35,2.73,2,5.23,2a6.43,6.43,0,0,0,5.61-2.57C528.41,672,529,669.42,529,666q0-11.16-3.51-14.61t-17.64-11.49q-14.06-8.13-18.64-11.81A27.49,27.49,0,0,1,481.68,618q-3-6.5-3-16.57,0-14.53,4.25-21.25c2.83-4.49,7.43-8,13.75-10.52s14-3.79,22.94-3.79q14.68,0,25,4.14t13.71,10.43q3.35,6.3,3.36,21.38v5h-35v-9.37c0-4.39-.45-7.17-1.34-8.36s-2.39-1.81-4.49-1.81a6,6,0,0,0-5.14,2.43c-1.17,1.61-1.75,4.07-1.75,7.35,0,4.22.66,7.4,2,9.54s4.8,4.71,10.66,7.74q25.18,13,31.72,21.4t6.54,27Q564.85,676.2,561.22,682.61Z"/><path class="cls-3" d="M788.48,428.81l-.28-.12-.4-.16.4.16Z"/><path class="cls-3" d="M786.23,427.88l-.12-.05-.36-.14.36.14Z"/><path class="cls-3" d="M776.77,424.44l-.63-.2-.44-.14.44.14Z"/><path class="cls-3" d="M782.12,426.29l-.23-.08-.18-.07.18.07Z"/><path class="cls-3" d="M790.29,429.6h0Z"/><path class="cls-3" d="M793.06,430.87l.91.44-.91-.44-.72-.34-.4-.18.4.18Z"/><path class="cls-3" d="M762.19,570.58l.35-.06-.52.08Z"/><path class="cls-3" d="M796.94,432.8l-.42-.21c-.29-.16-.58-.3-.88-.45.3.15.59.29.88.45Z"/><path class="cls-5" d="M646.49,464.29c-3.1-18.47-8-30.07-8.11-30.35a103.94,103.94,0,0,0-16.64,11.25,81.07,81.07,0,0,0-13.91,14.62,172.66,172.66,0,0,1,39.35,9C647,467.24,646.73,465.74,646.49,464.29Z"/><path class="cls-4" d="M720.8,510.19l-24-83-.74-.23-.27-.1-.59-.2-1-.36-.81-.28-.11,0-.12,0-.34-.13-.33-.12-1.45-.56-.11,0-1.07-.44-1.4-.58-1.28-.56L686,423c-.82-.38-1.64-.77-2.45-1.17.81.4,1.63.79,2.45,1.17l1.19.53,1.28.56,1.4.58,1.07.44.11,0-.11,0-1.07-.44-1.4-.58-1.28-.56L686,423c-.82-.38-1.63-.77-2.45-1.17a8.66,8.66,0,0,0-5.39-.94c-.89.21-1.78.44-2.67.67l-.49.14h0l.49-.14c.88-.23,1.78-.46,2.67-.67-1.06.25-2.11.53-3.16.81q-2.46.65-4.91,1.35l-.93.27-.79.25L667,424l-.28.09-.44.14-.63.2-.82.27-.72.24-1.44.49-.72.26-1.22.44-.19.07-.26.09-.48.18-1.39.52-.73.29-1,.4-.34.14-.11,0-.64.26-.94.4-.39.16-.29.12-.46.2-1.3.57h0l-.72.32-.92.42-.4.19-.73.34-.92.44-.42.21-.69.34-.56.28-.87.45-.43.22-.14.07-1.08.57-.91.49c.12.28,5,11.88,8.12,30.35.34,2.06.66,4.21,1,6.43a177.65,177.65,0,0,1,60.4,39.47Z"/><path class="cls-4" d="M721.19,508.22v0l-22.68-80.45-.67-.21-1-.32,24,83h.39Z"/><path class="cls-2" d="M720.8,510.19h-8q4.35,4.34,8.41,9v-7.6Z"/><path class="cls-7" d="M766.54,569.83l.37-.06.3-.06-.31.06Z"/><path class="cls-7" d="M779.77,561.55c-.22,1.2-.45,2.4-.67,3.61.26-1.41.53-2.82.79-4.24,0,.13,0,.26-.07.39S779.79,561.47,779.77,561.55Z"/><path class="cls-7" d="M785.24,532.39l-.72,3.81,1-5.36Z"/><path class="cls-7" d="M767.4,421.71q2.42.63,4.81,1.33Q769.81,422.34,767.4,421.71Z"/><path class="cls-5" d="M847.43,507.86c0-3.92-.12-7.84-.29-11.76-.06-1.68-.19-3.33-.38-5-2.07-18.66-11.43-33.79-26.11-45.95A104.31,104.31,0,0,0,804,433.94c-.12.28-5,11.88-8.12,30.35a182.92,182.92,0,0,0-2.38,23.52c-.08,2.5-.12,5.07-.1,7.69,0,2.39.08,4.82.21,7.29a59.14,59.14,0,0,0,1.13,8.32c0,.74,0,1.49.07,2.23l.51,15.54.15,4.71q.25,7.74.51,15.55.24,7.53.49,15.18c6.09-2.06,11.86-3.87,17.53-6a130.32,130.32,0,0,0,30.15-15.55c1.86-1.32,3.16-2.95,3.16-5.27,0-3,0-6.08,0-9.13,0-5.68.1-11.36.08-17C847.45,510.2,847.44,509,847.43,507.86Z"/><path class="cls-4" d="M779.89,560.92q2.29-12.36,4.63-24.72c-.09.47-.17.94-.26,1.41q-2.13,11.29-4.24,22.6C780,560.45,779.93,560.69,779.89,560.92Z"/><path class="cls-4" d="M788.76,513.8q-1.6,8.52-3.22,17l1.11-5.9Q787.72,519.38,788.76,513.8Z"/><path class="cls-4" d="M773.23,423.33l.79.25,1.4.43.28.09-.27-.09-1.41-.43-.79-.25-.93-.27-.09,0,.09,0Z"/><path class="cls-4" d="M777.62,567.48a2.79,2.79,0,0,0,1.48-2.32c.22-1.21.45-2.41.67-3.61-.22,1.2-.45,2.4-.67,3.61A2.79,2.79,0,0,1,777.62,567.48Z"/><path class="cls-4" d="M798.22,433.48l-1.13-.6-.15-.08.16.08Z"/><path class="cls-4" d="M795.09,431.86l.55.28-.55-.28-.68-.34-.44-.21.43.21Z"/><path class="cls-4" d="M766.19,569.89l.35-.06h0Z"/><path class="cls-4" d="M778.31,425l1.44.49.73.26,1.23.44-1.24-.44-.72-.26-1.44-.49-.71-.24-.83-.27.83.27Z"/><path class="cls-4" d="M791.94,430.35l-.93-.43-.72-.32.72.32Z"/><path class="cls-4" d="M748.74,561.31h31.07l0,.24c0-.08,0-.16,0-.24s.05-.25.08-.39.09-.47.13-.71c.25-1.35.51-2.71.76-4.06q1.54-8.32,3.12-16.65l.36-1.89c.09-.47.17-.94.26-1.4l.72-3.82h-53.5A178.72,178.72,0,0,1,748.74,561.31Z"/><path class="cls-4" d="M767.21,569.71c.9-.17,1.8-.33,2.69-.51-.89.18-1.78.34-2.67.5Z"/><path class="cls-4" d="M791,464.29c3.09-18.47,8-30.07,8.11-30.35l-.86-.46-1.12-.6-.16-.08-.42-.21c-.29-.16-.58-.3-.88-.45l-.55-.28-.69-.34-.43-.21-.91-.44-.72-.34-.4-.18-.93-.43-.72-.32h0L789,429l-.47-.2-.28-.12-.4-.16-.94-.4-.63-.25-.12-.05-.36-.14-1-.4L784,427l-1.39-.52-.5-.19-.23-.08-.18-.07-1.23-.44-.73-.26-1.44-.49-.71-.24-.83-.27-.63-.2-.44-.14-.28-.09-1.4-.43-.79-.25-.93-.27q-2.44-.71-4.91-1.35c-1-.28-2.1-.56-3.16-.81.89.21,1.79.44,2.68.67l.48.14h0l-.5-.14c-.88-.23-1.78-.46-2.67-.67a8.66,8.66,0,0,0-5.39.94c-.81.4-1.63.79-2.45,1.17l-1.19.53-1.28.56-1.4.58-1.07.44-.11,0,.11,0,1.07-.44,1.4-.58,1.28-.56,1.19-.53c.82-.38,1.64-.77,2.45-1.17-.81.4-1.63.79-2.45,1.17l-1.19.53-1.28.56-1.4.58-1.07.44-.11,0-1.45.56-.33.12-.34.13-.12,0-.11,0-.8.28-1,.36-.59.2-.27.1-.74.23-24,83h67.63c-.23-2.5-.41-5-.52-7.4s-.2-4.9-.22-7.29c0-2.62,0-5.19.11-7.69A179.06,179.06,0,0,1,791,464.29Z"/><path class="cls-4" d="M784,427l.74.29,1,.4-1-.4L784,427l-1.39-.52-.5-.19.5.19Z"/><path class="cls-4" d="M789,512.49c.09-.44.18-.88.28-1.31s-.07-.66-.1-1c0,.33.06.66.1,1S789.13,512.05,789,512.49Z"/><path class="cls-4" d="M771.47,568.9l-1.57.3,1.83-.35h0Z"/><path class="cls-4" d="M790.25,429.58,789,429l-.47-.2.47.2Z"/><path class="cls-4" d="M787.8,428.53l-.94-.4-.63-.25.63.25Z"/><path class="cls-4" d="M771.73,568.85h0l-.16,0Z"/><path class="cls-4" d="M771.73,568.85l-.15,0-.11,0Z"/><path class="cls-4" d="M766.9,569.77l-.37.06h0l.36-.06.31-.06h0Z"/><path class="cls-4" d="M743.88,427.75,721.2,508.2v2h.39l24-83-1,.32Z"/><path class="cls-4" d="M764.23,420.9c1.06.25,2.11.53,3.16.81l-.48-.14C766,421.34,765.12,421.11,764.23,420.9Z"/><path class="cls-4" d="M772.3,423.06l-.09,0q-2.4-.71-4.81-1.33h0Q769.85,422.36,772.3,423.06Z"/><path class="cls-4" d="M780.78,556.15c-.25,1.35-.51,2.71-.76,4.06q2.1-11.3,4.24-22.6l-.36,1.89Q782.33,547.82,780.78,556.15Z"/><path class="cls-2" d="M786.65,524.94l-1.41,7.45,1.41-7.45q1.05-5.57,2.11-11.14c.08-.44.18-.87.28-1.31-.1.44-.2.87-.28,1.31Q787.71,519.38,786.65,524.94Z"/><path class="cls-2" d="M721.2,511.56v7.6q5.56,6.36,10.54,13.23h53.5l1.41-7.45q1.05-5.57,2.11-11.14c.08-.44.18-.87.28-1.31s.18-.88.28-1.31-.07-.66-.1-1H721.59Z"/><path class="cls-2" d="M762.54,570.52l1.22-.21-1.22.21Z"/><path class="cls-2" d="M762,570.6h0l.52-.08h0Z"/><path class="cls-2" d="M771.74,568.84c1.6-.32,3.21-.66,4.82-1,.21,0,.4-.1.58-.15-.18.05-.37.11-.58.15C775,568.18,773.34,568.52,771.74,568.84Z"/><path class="cls-2" d="M765.73,570l-.52.09-.34.06-1.11.19c.77-.12,1.54-.25,2.3-.4l.13,0-.13,0Z"/><path class="cls-2" d="M765.33,570l-.12,0-.34.06.34-.06Z"/><path class="cls-2" d="M765.73,570l-.4.07-.12,0Z"/><path class="cls-2" d="M767.23,569.7c.89-.16,1.78-.32,2.67-.5l1.57-.3C770.06,569.18,768.65,569.45,767.23,569.7Z"/><path class="cls-2" d="M748.74,561.31c1.61,3.46,3.13,7,4.52,10.54l1-.12,1.42-.19.62-.08,1.23-.17.46-.07,2.18-.33.47-.07.87-.14.54-.08.52-.08,2.33-.4.34-.06.12,0c2.08-.37,4.17-.75,6.25-1.17l.16,0c1.6-.32,3.21-.66,4.82-1,.21,0,.4-.1.58-.15s.33-.12.48-.19a2.79,2.79,0,0,0,1.48-2.32c.22-1.21.45-2.41.67-3.61l0-.24Z"/><path class="cls-2" d="M765.73,570l.33-.06.13,0,.34-.06Z"/><path class="cls-2" d="M762.54,570.52l1.22-.21,1.11-.19Z"/><path class="cls-2" d="M766.53,569.83l.37-.06.33-.07c1.42-.25,2.83-.52,4.24-.8l.11,0c-2.08.42-4.17.8-6.25,1.17l.4-.07Z"/><path class="cls-5" d="M724.11,407.34c37.13.13,66.93-29.26,67-66.11v-.3H658.27C658.29,377.41,687.83,407.23,724.11,407.34Z"/><path class="cls-8" d="M692.2,278.27q6,19,12,37.94a2.22,2.22,0,0,0,2.58,1.84q17.81-.09,35.59,0a2.5,2.5,0,0,0,2.89-2.08q5.93-18.92,12-37.82,2.37-7.41,4.75-14.84c.53-1.62.1-2.27-1.22-3.05a72.12,72.12,0,0,0-18.34-7.66,14.92,14.92,0,0,0-1.95-.21v31.42c0,.77.21,1.71-.14,2.26-.55.85-1.52,2-2.29,2s-1.7-1.18-2.27-2c-.32-.48-.09-1.35-.09-2V245.4c0-3.11-1-4.12-4.12-4.14-4.36,0-8.73,0-13.09,0-4,0-4.76.82-4.76,4.89V284c0,.69.24,1.56-.09,2-.59.84-1.53,2-2.33,2s-1.62-1.2-2.26-2c-.27-.34-.09-1-.09-1.57q0-6.39,0-12.78V252.51a4.27,4.27,0,0,0-1.09-.09,65.13,65.13,0,0,0-20,8.41c-.46.29-.64,1.59-.43,2.26Q689.81,270.68,692.2,278.27Zm32.16,20a17.41,17.41,0,0,1,.28-3.62,5.88,5.88,0,0,1,1.16-2.35,5.48,5.48,0,0,1,2.27-1.67,8.15,8.15,0,0,1,3.07-.56,9,9,0,0,1,3.62.69,5.48,5.48,0,0,1,3.41,4,19.06,19.06,0,0,1,.23,3.41v7.58a19.32,19.32,0,0,1-.3,4.23,3.21,3.21,0,0,1-1.16,1.76,6,6,0,0,1-2.29,1q0,.78.33,1a2.78,2.78,0,0,0,1.33.2h2.11v2.83h-4.59a7.34,7.34,0,0,1-2.33-.26,1.56,1.56,0,0,1-.92-.76,4.67,4.67,0,0,1-.24-1.81,6.44,6.44,0,0,1-3.54-1.08,4.76,4.76,0,0,1-2-2.6,17.35,17.35,0,0,1-.48-4.72Zm-14.91-5.56a4.57,4.57,0,0,1,2.21-1.94,8.77,8.77,0,0,1,3.69-.7,9.59,9.59,0,0,1,4,.77,4.2,4.2,0,0,1,2.21,1.92,10.19,10.19,0,0,1,.54,3.94v.93h-5.64v-1.73a3.32,3.32,0,0,0-.22-1.55.79.79,0,0,0-.72-.33.93.93,0,0,0-.83.45,2.67,2.67,0,0,0-.28,1.35,3.83,3.83,0,0,0,.32,1.76,4.45,4.45,0,0,0,1.71,1.43c2.71,1.61,4.41,2.92,5.11,3.95a9.07,9.07,0,0,1,1,5,8.73,8.73,0,0,1-.58,3.68,4.54,4.54,0,0,1-2.26,2,9.86,9.86,0,0,1-8-.12,4.57,4.57,0,0,1-2.26-2.35,12.19,12.19,0,0,1-.53-4.05v-1.53h5.64v2.84a3.91,3.91,0,0,0,.23,1.69.92.92,0,0,0,.85.37,1,1,0,0,0,.9-.47,2.71,2.71,0,0,0,.29-1.42,4.33,4.33,0,0,0-.56-2.69,17.21,17.21,0,0,0-2.84-2.12,28.07,28.07,0,0,1-3-2.18,5.09,5.09,0,0,1-1.21-1.87,8.1,8.1,0,0,1-.49-3.06A8.42,8.42,0,0,1,709.45,292.69Z"/><path class="cls-8" d="M731.37,310.42a.74.74,0,0,0,.79-.55,11.27,11.27,0,0,0,.17-2.61V296.54a7.18,7.18,0,0,0-.18-2.08.71.71,0,0,0-.74-.46.82.82,0,0,0-.73.37,5.18,5.18,0,0,0-.25,2.17v10.9a10.72,10.72,0,0,0,.17,2.51A.72.72,0,0,0,731.37,310.42Z"/><path class="cls-8" d="M652.15,336.14h6.12l24.35,0h112c7.62,0,8.24-.63,8.13-8.21,0-3.37-1.69-5.06-5.1-5.1-2.62,0-5.24,0-7.86,0h-136c-6.13,0-7.14,1-7.14,7.24v.69C646.7,334.54,648.31,336.14,652.15,336.14Z"/><path class="cls-8" d="M749.65,317.9h45.1c-1.3-22.18-10.61-39.83-28-53.67-1.76,5.54-3.52,11-5.26,16.54C757.52,293.16,753.6,305.47,749.65,317.9Z"/><path class="cls-8" d="M688,280.85q-2.6-8.18-5.23-16.44a69,69,0,0,0-23.63,31.4A58.77,58.77,0,0,0,655,317.86h44.73C695.8,305.49,691.9,293.23,688,280.85Z"/><path class="cls-1" d="M710.46,301.54a28.07,28.07,0,0,0,3,2.18,17.21,17.21,0,0,1,2.84,2.12,4.33,4.33,0,0,1,.56,2.69,2.71,2.71,0,0,1-.29,1.42,1,1,0,0,1-.9.47.92.92,0,0,1-.85-.37,3.91,3.91,0,0,1-.23-1.69v-2.84H709v1.53a12.19,12.19,0,0,0,.53,4.05,4.57,4.57,0,0,0,2.26,2.35,9.86,9.86,0,0,0,8,.12,4.54,4.54,0,0,0,2.26-2,8.73,8.73,0,0,0,.58-3.68,9.07,9.07,0,0,0-1-5c-.7-1-2.4-2.34-5.11-3.95a4.45,4.45,0,0,1-1.71-1.43,3.83,3.83,0,0,1-.32-1.76,2.67,2.67,0,0,1,.28-1.35.93.93,0,0,1,.83-.45.79.79,0,0,1,.72.33,3.32,3.32,0,0,1,.22,1.55v1.73h5.64v-.93a10.19,10.19,0,0,0-.54-3.94,4.2,4.2,0,0,0-2.21-1.92,9.59,9.59,0,0,0-4-.77,8.77,8.77,0,0,0-3.69.7,4.57,4.57,0,0,0-2.21,1.94,8.42,8.42,0,0,0-.69,3.92,8.1,8.1,0,0,0,.49,3.06A5.09,5.09,0,0,0,710.46,301.54Z"/><path class="cls-1" d="M726.8,312.8a6.44,6.44,0,0,0,3.54,1.08,4.67,4.67,0,0,0,.24,1.81,1.56,1.56,0,0,0,.92.76,7.34,7.34,0,0,0,2.33.26h4.59v-2.83h-2.11a2.78,2.78,0,0,1-1.33-.2q-.29-.21-.33-1a6,6,0,0,0,2.29-1,3.21,3.21,0,0,0,1.16-1.76,19.32,19.32,0,0,0,.3-4.23v-7.58a19.06,19.06,0,0,0-.23-3.41,5.48,5.48,0,0,0-3.41-4,9,9,0,0,0-3.62-.69,8.15,8.15,0,0,0-3.07.56,5.48,5.48,0,0,0-2.27,1.67,5.88,5.88,0,0,0-1.16,2.35,17.41,17.41,0,0,0-.28,3.62v7.23a17.35,17.35,0,0,0,.48,4.72A4.76,4.76,0,0,0,726.8,312.8Zm3.63-16.26a5.18,5.18,0,0,1,.25-2.17.82.82,0,0,1,.73-.37.71.71,0,0,1,.74.46,7.18,7.18,0,0,1,.18,2.08v10.72a11.27,11.27,0,0,1-.17,2.61.74.74,0,0,1-.79.55.72.72,0,0,1-.77-.47,10.72,10.72,0,0,1-.17-2.51Z"/><path class="cls-5" d="M704.12,431.73l.48.15,16.15,57.28a.17.17,0,0,0,.33,0l16.35-57.32h.05c-5.6,1.71-6.92,2.62-12.91,2.73A64.84,64.84,0,0,1,704.12,431.73Z"/><path class="cls-3" d="M69.75,426.14l-.19.07-.26.09.26-.09Z"/><path class="cls-3" d="M75.74,424.1l-.44.14-.63.2.63-.2Z"/><path class="cls-3" d="M65.67,427.69l-.34.14-.11,0,.11,0Z"/><path class="cls-3" d="M101.88,425.84l-.33-.12-1.42-.55,1.42.55Z"/><path class="cls-3" d="M108.82,573h0l.88.08.57,0c-.48,0-1-.07-1.45-.12Z"/><path class="cls-3" d="M113.25,573.33l.25,0,.8.06h0Z"/><path class="cls-3" d="M93.49,571.22l.45.07,1.22.16-1.22-.16Z"/><path class="cls-3" d="M100.61,572.15h0l-.77-.09-.76-.09-1.27-.17-.6-.07,1.38.18,2,.24h0Z"/><path class="cls-3" d="M103.59,572.49l-.2,0,.2,0,1.07.11h0Z"/><path class="cls-3" d="M124,573.89l-.42,0h-.16l-4-.17-.75,0h0l.75,0c1.39.07,2.77.13,4.16.17l.42,0h0Z"/><path class="cls-3" d="M89.25,570.58l.18,0-.53-.08C89,570.53,89.14,570.56,89.25,570.58Z"/><path class="cls-3" d="M63.64,428.53l-.39.16-.29.12.29-.12Z"/><path class="cls-3" d="M61.2,429.58h0Z"/><path class="cls-3" d="M55.79,432.14l-.87.45-.43.22.43-.22Z"/><path class="cls-3" d="M59.11,430.53l.4-.19-.4.19-.73.34-.91.44.91-.44Z"/><path class="cls-3" d="M105.88,427.22h0l-.74-.24-.27-.09.27.1Z"/><path class="cls-3" d="M102.45,426.05l.81.28-.81-.28-.11,0Z"/><path class="cls-7" d="M84.22,569.71l.32.06.37.06-.37-.06Z"/><path class="cls-7" d="M71.67,561.55c0-.08,0-.16,0-.24s0-.26-.07-.39l.78,4.24C72.12,564,71.89,562.75,71.67,561.55Z"/><path class="cls-7" d="M102.22,426l.12,0,.11,0-.9-.33.33.12Z"/><path class="cls-7" d="M65.91,530.84q.5,2.68,1,5.36l-.72-3.81C66.1,531.87,66,531.36,65.91,530.84Z"/><path class="cls-7" d="M79.24,423q2.39-.71,4.81-1.33Q81.62,422.34,79.24,423Z"/><path class="cls-5" d="M55.54,464.29c-3.1-18.47-8-30.07-8.11-30.35a103.94,103.94,0,0,0-16.64,11.25c-14.68,12.16-24,27.29-26.11,45.95-.18,1.63-.31,3.28-.38,5Q4.06,502,4,507.86c0,1.17,0,2.34,0,3.51,0,5.68,0,11.36.08,17,0,3.05,0,6.09,0,9.13,0,2.32,1.3,4,3.16,5.27a130.52,130.52,0,0,0,30.15,15.55c5.67,2.09,11.44,3.9,17.53,6q.25-7.65.49-15.18.26-7.82.51-15.55l.15-4.71c.18-5.19.34-10.37.51-15.54,0-.74,0-1.49.07-2.23a59.14,59.14,0,0,0,1.13-8.32c.13-2.47.19-4.9.21-7.29,0-2.62,0-5.19-.1-7.69A182.92,182.92,0,0,0,55.54,464.29Z"/><path class="cls-4" d="M102.22,572.34c-.5-.05-1-.11-1.51-.18h-.1l1.61.19,1.37.15-.2,0Z"/><path class="cls-4" d="M66.92,536.2q2.34,12.36,4.64,24.72c0-.23-.09-.46-.14-.7q-2.08-11.28-4.22-22.56C67.1,537.18,67,536.69,66.92,536.2Z"/><path class="cls-4" d="M64.79,524.94q.55,3,1.12,5.9-1.62-8.52-3.23-17Q63.73,519.38,64.79,524.94Z"/><path class="cls-4" d="M124,573.89h0Z"/><path class="cls-4" d="M79.86,568.87l-.15,0h0Z"/><path class="cls-4" d="M81.54,569.2,80,568.9l-.26,0h0l1.82.35,2.68.51h0C83.32,569.54,82.43,569.38,81.54,569.2Z"/><path class="cls-4" d="M93.94,571.29l-.46-.07h0l.45.07,1.22.16h0Z"/><path class="cls-4" d="M92.39,571.06l1.1.16h0Z"/><path class="cls-4" d="M84.91,569.83l.47.08-.46-.08Z"/><path class="cls-4" d="M124.58,573.9h.22l.79,0-.79,0Z"/><path class="cls-4" d="M130.24,532.39h-64l-1.41-7.45,1.41,7.45.72,3.82c.09.48.18,1,.28,1.45s.23,1.23.34,1.84q1.58,8.32,3.13,16.65l.75,4.07c0,.24.09.47.14.7s0,.26.07.39h58.61Z"/><path class="cls-4" d="M108.35,573l-1.57-.14-.72-.07.72.07,1.57.14.47,0h0Z"/><path class="cls-4" d="M108.82,573Z"/><path class="cls-4" d="M100.61,572.15h0l-.77-.09.77.09Z"/><path class="cls-4" d="M96.54,571.64l-.75-.1-.61-.08h0l.63.09.75.1.67.09h0Z"/><path class="cls-4" d="M97.21,571.73h0l.6.07Z"/><path class="cls-4" d="M63,428.81l-.46.2-1.3.57,1.3-.57Z"/><path class="cls-4" d="M124.38,573.9Z"/><path class="cls-4" d="M119.42,573.7l4,.17h0Z"/><path class="cls-4" d="M67.44,427l1.38-.52.48-.18-.48.18c-.46.17-.93.34-1.38.52l-.75.29-1,.4,1-.4Z"/><path class="cls-4" d="M117.19,573.59l-.27,0,.27,0h0l1.43.07-1.43-.07Z"/><path class="cls-4" d="M65.22,427.87l-.64.26-.94.4,1-.4Z"/><path class="cls-4" d="M104.87,426.89l-.59-.2-1-.36,1,.36Z"/><path class="cls-4" d="M71.69,425.44l1.44-.49.72-.24.82-.27-.82.27-.72.24-1.44.49-.72.26-1.22.44L71,425.7Z"/><path class="cls-4" d="M77.42,423.58l.79-.25.93-.27.1,0-.09,0-.94.27-.79.25L76,424l-.28.09L76,424Z"/><path class="cls-4" d="M105.88,427.22l-.74-.23-.27-.1-.59-.2-1-.36-.81-.28-.11,0-.12,0-.34-.13-.33-.12-1.42-.55-.14-.05-1.07-.44-1.4-.58-1.28-.56L95.05,423c-.82-.38-1.63-.77-2.45-1.17.82.4,1.63.79,2.45,1.17l1.19.53,1.28.56,1.4.58,1.07.44.14.05-.14-.05-1.07-.44-1.4-.58-1.28-.56L95.05,423c-.82-.38-1.63-.77-2.45-1.17a8.66,8.66,0,0,0-5.39-.94c-.89.21-1.78.44-2.67.67l-.49.14h0l.49-.14c.89-.23,1.78-.46,2.67-.67-1.06.25-2.11.53-3.16.81q-2.46.65-4.91,1.35l-.93.27-.79.25L76,424l-.28.09-.44.14-.63.2-.82.27-.72.24-1.44.49-.72.26-1.22.44-.19.07-.26.09-.48.18-1.38.52-.74.29-1,.4-.34.14-.11,0-.63.26-1,.4-.39.16-.29.12-.46.2-1.3.57h-.05l-.72.32-.92.42-.4.19-.73.34-.91.44-.43.21-.69.34-.56.28-.87.45-.43.22-.14.07-1.08.57-.91.49c.12.28,5,11.88,8.12,30.35a182.55,182.55,0,0,1,2.38,23.52c.08,2.5.12,5.07.1,7.69,0,2.39-.08,4.82-.21,7.29s-.3,4.9-.53,7.4h67.63Z"/><path class="cls-4" d="M61.15,429.6l-.72.32-.92.42.92-.42Z"/><path class="cls-4" d="M54.49,432.81l-.14.07-1.08.57,1.08-.57Z"/><path class="cls-4" d="M57,431.52l.43-.21-.43.21-.69.34-.56.28.56-.28Z"/><path class="cls-4" d="M80,568.9l-.12,0-.14,0Z"/><path class="cls-4" d="M84.54,569.77l-.34-.07h0l.32.06.37.06h0Z"/><path class="cls-4" d="M130.24,508.22v0l-22.68-80.45-.67-.21-1-.32,24,83h.39Z"/><path class="cls-4" d="M101.88,425.84l.34.13.12,0-.12,0Z"/><path class="cls-4" d="M84.05,421.71h0q-2.43.63-4.81,1.33l-.1,0Q81.58,422.35,84.05,421.71Z"/><path class="cls-4" d="M84.54,421.57l-.49.14c1-.28,2.1-.56,3.16-.81C86.32,421.11,85.43,421.34,84.54,421.57Z"/><path class="cls-4" d="M67.54,539.5c-.11-.61-.23-1.22-.34-1.84q2.11,11.28,4.22,22.56l-.75-4.07Q69.11,547.83,67.54,539.5Z"/><path class="cls-4" d="M124.38,573.9Z"/><path class="cls-2" d="M130.24,532.39V511.56l-.39-1.37H62.22l-.09,1c.18.87.39,1.74.55,2.62q1.05,5.58,2.11,11.14l1.41,7.45Z"/><path class="cls-2" d="M71.63,561.31c0,.08,0,.16,0,.24.23,1.2.45,2.4.68,3.61-.23-1.21-.45-2.41-.68-3.61C71.66,561.47,71.64,561.39,71.63,561.31Z"/><path class="cls-2" d="M86.23,570.06l-.51-.09-.34-.06c.77.15,1.54.28,2.3.4l-1.11-.19Z"/><path class="cls-2" d="M86.57,570.12l-.34-.06-.11,0,.11,0Z"/><path class="cls-2" d="M91.3,570.89l-.46-.07-.88-.14.87.14Z"/><path class="cls-2" d="M90.83,570.82l-.87-.14-.43-.06,2.86.44-1.09-.17Z"/><path class="cls-2" d="M103.39,572.46l.2,0-3-.34h.1C101.6,572.27,102.5,572.37,103.39,572.46Z"/><path class="cls-2" d="M99.84,572.06l-.76-.09-1.27-.17,1.27.17Z"/><path class="cls-2" d="M86.23,570.06l-.11,0-.4-.07Z"/><path class="cls-2" d="M102.22,572.34l1.17.12c-.89-.09-1.79-.19-2.68-.3C101.21,572.23,101.72,572.29,102.22,572.34Z"/><path class="cls-2" d="M111.2,573.18c.36,0,.71.06,1.07.08l1,.07c-1-.06-2-.14-3-.22Z"/><path class="cls-2" d="M119.42,573.7l4,.17h.16l.42,0h.38q2,.06,3.9.09h.34c.1-1.18.2-2.37.33-3.53.34-3.05.78-6,1.29-9v-.16H71.63c0,.08,0,.16,0,.24.23,1.2.45,2.4.68,3.61a2.78,2.78,0,0,0,2.53,2.66q2.41.54,4.83,1l.15,0c2.08.42,4.17.8,6.26,1.17l.11,0,.34.06,2.33.4.53.08.53.08.88.14.46.07,2.18.33.46.07,1.24.17.62.08,1.41.19.6.07,1.27.17.76.09.77.09h0l3,.34,1.07.11h.12c1.34.14,2.69.26,4,.38h0c.48,0,1,.08,1.45.12,1,.08,2,.16,3,.22l1,.08h.25q2.06.14,4.11.24h0Z"/><path class="cls-2" d="M126.16,574h.62c-.73,0-1.47,0-2.2-.06h.22l.79,0h.57Z"/><path class="cls-2" d="M115.45,573.48l.24,0,.34,0,.46,0,.43,0,.27,0h0l1.43.07h0q-2.05-.1-4.11-.24Q115,573.47,115.45,573.48Z"/><path class="cls-2" d="M96.54,571.64l.67.09-1.41-.19-.62-.08.61.08Z"/><path class="cls-2" d="M84.92,569.83l.46.08.34.06Z"/><path class="cls-2" d="M108.35,573l.47,0c-1.35-.12-2.7-.24-4-.38l1.28.13.72.07Z"/><path class="cls-2" d="M89.43,570.6l.1,0,.43.06Z"/><path class="cls-2" d="M87.68,570.31l1.22.21-2.33-.4Z"/><path class="cls-2" d="M81.54,569.2c.89.18,1.78.34,2.66.5-1.41-.25-2.81-.52-4.22-.8Z"/><path class="cls-2" d="M91.3,570.89l1.09.17,1.09.16Z"/><path class="cls-2" d="M84.2,569.7l.34.07.38.06.8.14.4.07c-2.09-.37-4.18-.75-6.26-1.17l.12,0C81.39,569.18,82.79,569.45,84.2,569.7Z"/><path class="cls-2" d="M124.38,573.9h.2c.73,0,1.47.05,2.2.06h.1l1.4,0Q126.33,574,124.38,573.9Z"/><path class="cls-5" d="M228,443.8l-6.55,2.91q-7.52,4.13-14.77,8.8a135.91,135.91,0,0,1,6.4-21.57A105.15,105.15,0,0,1,228,443.8Z"/><path class="cls-4" d="M154.61,427.22l-24,83h19.57a170.44,170.44,0,0,1,35.22-39.13c5-4.18,10.21-8.06,15.49-11.71,3.07-15.57,7.1-25.16,7.21-25.41l-.86-.46-1.12-.6-.15-.08-.43-.21c-.29-.16-.58-.3-.88-.45l-.55-.28-.69-.34-.43-.21-.91-.44-.72-.34-.4-.18-.93-.43-.72-.32h0L198,429l-.47-.2-.28-.12-.4-.16-.94-.4-.63-.25-.12-.05-.36-.14-1-.4-.74-.29-1.39-.52-.5-.19-.23-.08-.18-.07-1.23-.44-.73-.26-1.43-.49-.72-.24-.83-.27-.63-.2-.44-.14-.28-.09-1.4-.43-.79-.25-.93-.27q-2.44-.71-4.91-1.35c-1.05-.28-2.1-.56-3.16-.81.89.21,1.79.44,2.68.67l.48.14h0l-.5-.14c-.88-.23-1.78-.46-2.67-.67a8.67,8.67,0,0,0-5.39.94c-.81.4-1.63.79-2.45,1.17l-1.19.53-1.28.56-1.4.58-1.07.44-.11,0,.11,0,1.07-.44,1.4-.58,1.28-.56,1.19-.53c.82-.38,1.64-.77,2.45-1.17-.81.4-1.63.79-2.45,1.17l-1.19.53-1.28.56-1.4.58-1.07.44-.11,0-1.45.56-.33.12-.33.13-.13,0-.11,0-.8.28-1,.36-.59.2-.27.1Z"/><path class="cls-4" d="M130.25,561.31h0a138.72,138.72,0,0,1,8.36-28.92h-8.38Z"/><path class="cls-4" d="M130.25,510.19h.39l24-83-1,.32-.67.21L130.25,508.2v2Z"/><path class="cls-2" d="M130.25,532.39h8.38a141.46,141.46,0,0,1,11.58-22.2H130.64l-.39,1.37Z"/><path class="cls-5" d="M133.16,407.34c37.13.13,66.93-29.26,67.05-66.11v-.3H67.32C67.34,377.41,96.88,407.23,133.16,407.34Z"/><path class="cls-8" d="M140.42,310.42a.74.74,0,0,0,.79-.55,11.27,11.27,0,0,0,.17-2.61V296.54a7.18,7.18,0,0,0-.18-2.08.71.71,0,0,0-.74-.46.82.82,0,0,0-.73.37,5.18,5.18,0,0,0-.25,2.17v10.9a10.72,10.72,0,0,0,.17,2.51A.72.72,0,0,0,140.42,310.42Z"/><path class="cls-8" d="M101.25,278.27q6,19,12,37.94a2.22,2.22,0,0,0,2.58,1.84q17.8-.09,35.59,0a2.5,2.5,0,0,0,2.89-2.08q5.92-18.92,11.95-37.82,2.37-7.41,4.75-14.84c.53-1.62.1-2.27-1.22-3.05a72.12,72.12,0,0,0-18.34-7.66,14.92,14.92,0,0,0-1.95-.21v31.42c0,.77.21,1.71-.14,2.26-.55.85-1.52,2-2.29,2s-1.7-1.18-2.27-2c-.32-.48-.09-1.35-.09-2V245.4c0-3.11-1-4.12-4.12-4.14-4.36,0-8.73,0-13.09,0-4,0-4.76.82-4.76,4.89V284c0,.69.24,1.56-.09,2-.59.84-1.53,2-2.33,2s-1.62-1.2-2.26-2c-.27-.34-.09-1-.09-1.57q0-6.39,0-12.78V252.51a4.27,4.27,0,0,0-1.09-.09,65.13,65.13,0,0,0-20,8.41c-.46.29-.64,1.59-.43,2.26Q98.86,270.68,101.25,278.27Zm32.16,20a18.14,18.14,0,0,1,.28-3.62,5.88,5.88,0,0,1,1.16-2.35,5.48,5.48,0,0,1,2.27-1.67,8.15,8.15,0,0,1,3.07-.56,9,9,0,0,1,3.62.69,5.48,5.48,0,0,1,3.41,4,19.06,19.06,0,0,1,.23,3.41v7.58a19.32,19.32,0,0,1-.3,4.23,3.21,3.21,0,0,1-1.16,1.76,6,6,0,0,1-2.29,1q0,.78.33,1a2.78,2.78,0,0,0,1.33.2h2.11v2.83h-4.59a7.34,7.34,0,0,1-2.33-.26,1.56,1.56,0,0,1-.92-.76,4.67,4.67,0,0,1-.24-1.81,6.44,6.44,0,0,1-3.54-1.08,4.76,4.76,0,0,1-2-2.6,17.35,17.35,0,0,1-.48-4.72Zm-14.91-5.56a4.57,4.57,0,0,1,2.21-1.94,8.77,8.77,0,0,1,3.69-.7,9.59,9.59,0,0,1,4,.77,4.2,4.2,0,0,1,2.21,1.92,10.19,10.19,0,0,1,.54,3.94v.93h-5.64v-1.73a3.32,3.32,0,0,0-.22-1.55.79.79,0,0,0-.72-.33.93.93,0,0,0-.83.45,2.67,2.67,0,0,0-.28,1.35,3.83,3.83,0,0,0,.32,1.76,4.45,4.45,0,0,0,1.71,1.43c2.71,1.61,4.41,2.92,5.11,3.95a9.07,9.07,0,0,1,1.05,5,8.73,8.73,0,0,1-.58,3.68,4.54,4.54,0,0,1-2.26,2,9.86,9.86,0,0,1-8-.12,4.57,4.57,0,0,1-2.26-2.35,12.19,12.19,0,0,1-.53-4.05v-1.53h5.64v2.84a3.91,3.91,0,0,0,.23,1.69.92.92,0,0,0,.85.37,1,1,0,0,0,.9-.47,2.71,2.71,0,0,0,.29-1.42,4.33,4.33,0,0,0-.56-2.69,17.21,17.21,0,0,0-2.84-2.12,28.07,28.07,0,0,1-3-2.18,5.09,5.09,0,0,1-1.21-1.87,8.1,8.1,0,0,1-.49-3.06A8.42,8.42,0,0,1,118.5,292.69Z"/><path class="cls-8" d="M61.2,336.14h6.12l24.35,0h112c7.62,0,8.24-.63,8.13-8.21,0-3.37-1.69-5.06-5.1-5.1-2.62,0-5.24,0-7.86,0h-136c-6.13,0-7.14,1-7.14,7.24v.69C55.75,334.54,57.36,336.14,61.2,336.14Z"/><path class="cls-8" d="M158.7,317.9h45.1c-1.3-22.18-10.61-39.83-28-53.67l-5.26,16.54C166.57,293.16,162.65,305.47,158.7,317.9Z"/><path class="cls-8" d="M97,280.85l-5.22-16.44a68.94,68.94,0,0,0-23.64,31.4,58.77,58.77,0,0,0-4.12,22.05h44.73C104.85,305.49,101,293.23,97,280.85Z"/><path class="cls-1" d="M119.51,301.54a28.07,28.07,0,0,0,3,2.18,17.21,17.21,0,0,1,2.84,2.12,4.33,4.33,0,0,1,.56,2.69,2.71,2.71,0,0,1-.29,1.42,1,1,0,0,1-.9.47.92.92,0,0,1-.85-.37,3.91,3.91,0,0,1-.23-1.69v-2.84H118v1.53a12.19,12.19,0,0,0,.53,4.05,4.57,4.57,0,0,0,2.26,2.35,9.86,9.86,0,0,0,8,.12,4.54,4.54,0,0,0,2.26-2,8.73,8.73,0,0,0,.58-3.68,9.07,9.07,0,0,0-1.05-5c-.7-1-2.4-2.34-5.11-3.95a4.45,4.45,0,0,1-1.71-1.43,3.83,3.83,0,0,1-.32-1.76,2.67,2.67,0,0,1,.28-1.35.93.93,0,0,1,.83-.45.79.79,0,0,1,.72.33,3.32,3.32,0,0,1,.22,1.55v1.73h5.64v-.93a10.19,10.19,0,0,0-.54-3.94,4.2,4.2,0,0,0-2.21-1.92,9.59,9.59,0,0,0-4-.77,8.77,8.77,0,0,0-3.69.7,4.57,4.57,0,0,0-2.21,1.94,8.42,8.42,0,0,0-.69,3.92,8.1,8.1,0,0,0,.49,3.06A5.09,5.09,0,0,0,119.51,301.54Z"/><path class="cls-1" d="M135.85,312.8a6.44,6.44,0,0,0,3.54,1.08,4.67,4.67,0,0,0,.24,1.81,1.56,1.56,0,0,0,.92.76,7.34,7.34,0,0,0,2.33.26h4.59v-2.83h-2.11a2.78,2.78,0,0,1-1.33-.2q-.28-.21-.33-1a6,6,0,0,0,2.29-1,3.21,3.21,0,0,0,1.16-1.76,19.32,19.32,0,0,0,.3-4.23v-7.58a19.06,19.06,0,0,0-.23-3.41,5.48,5.48,0,0,0-3.41-4,9,9,0,0,0-3.62-.69,8.15,8.15,0,0,0-3.07.56,5.48,5.48,0,0,0-2.27,1.67,5.88,5.88,0,0,0-1.16,2.35,18.14,18.14,0,0,0-.28,3.62v7.23a17.35,17.35,0,0,0,.48,4.72A4.76,4.76,0,0,0,135.85,312.8Zm3.63-16.26a5.18,5.18,0,0,1,.25-2.17.82.82,0,0,1,.73-.37.71.71,0,0,1,.74.46,7.18,7.18,0,0,1,.18,2.08v10.72a11.27,11.27,0,0,1-.17,2.61.74.74,0,0,1-.79.55.72.72,0,0,1-.77-.47,10.72,10.72,0,0,1-.17-2.51Z"/><path class="cls-5" d="M114,431l.47.15,16.15,57.28a.17.17,0,0,0,.33,0l16.36-57.33h0c-5.6,1.71-6.91,2.62-12.9,2.74A64.84,64.84,0,0,1,114,431Z"/></g></svg>