<?xml version="1.0" encoding="UTF-8" standalone="no"?><!DOCTYPE svg PUBLIC "-//W3C//DTD SVG 1.1//EN" "http://www.w3.org/Graphics/SVG/1.1/DTD/svg11.dtd"><svg width="100%" height="100%" viewBox="0 0 1182 1182" version="1.1" xmlns="http://www.w3.org/2000/svg" xmlns:xlink="http://www.w3.org/1999/xlink" xml:space="preserve" xmlns:serif="http://www.serif.com/" style="fill-rule:evenodd;clip-rule:evenodd;stroke-linejoin:round;stroke-miterlimit:2;"><circle cx="592.627" cy="496.32" r="179.394" style="fill:#ebebeb;"/><g><path d="M590.551,301.335c107.615,0 194.985,87.37 194.985,194.985c0,107.615 -87.37,194.985 -194.985,194.985c-107.615,0 -194.985,-87.37 -194.985,-194.985c0,-107.615 87.37,-194.985 194.985,-194.985Zm-49.465,194.553c2.398,1.853 5.792,1.67 7.977,-0.429c11.053,-10.683 18.302,-17.105 21.747,-19.267c3.823,-2.399 7.234,-3.598 10.233,-3.598c2.699,0 4.048,1.499 4.048,4.498c0,2.699 -0.525,5.773 -1.574,9.221c-22.49,72.869 -33.735,118.674 -33.735,137.416c0,5.847 1.537,10.421 4.611,13.719c3.074,3.299 7.234,4.948 12.482,4.948c5.997,0 13.719,-2.699 23.165,-8.097c8.709,-4.976 22.133,-15.879 40.274,-32.709c1.232,-1.139 1.942,-2.733 1.964,-4.41c0.022,-1.677 -0.646,-3.29 -1.847,-4.461c-0.002,-0.004 -0.005,-0.007 -0.008,-0.01c-2.328,-2.267 -6.022,-2.319 -8.412,-0.118c-17.317,15.96 -28.198,23.941 -32.644,23.941c-1.199,0 -2.324,-0.712 -3.374,-2.137c-1.05,-1.424 -1.574,-3.186 -1.574,-5.285c0,-10.945 7.947,-43.031 23.84,-96.259c9.746,-32.536 14.619,-50.978 14.619,-55.326c0,-3.598 -1.274,-6.447 -3.823,-8.546c-2.549,-2.099 -6.222,-3.149 -11.02,-3.149c-8.696,0 -19.229,3.486 -31.599,10.458c-11.092,6.252 -23.238,16.331 -36.44,30.238c-1.191,1.253 -1.796,2.953 -1.664,4.677c0.132,1.724 0.988,3.312 2.357,4.369c0.131,0.109 0.266,0.213 0.4,0.316Zm90.666,-129.468c15.322,4.105 23.965,21.604 19.29,39.053c-4.675,17.449 -20.91,28.282 -36.232,24.176c-15.322,-4.105 -23.965,-21.604 -19.29,-39.053c4.675,-17.449 20.91,-28.282 36.232,-24.176Z" style="fill:#4068b2;"/><path d="M822.032,855.572c-61.828,50.081 -140.297,80.105 -225.512,80.105c-88.827,0 -170.34,-32.663 -233.299,-86.677c47.615,-73.013 130.011,-121.274 223.679,-121.274l7.301,0c96.451,-0 180.95,51.171 227.83,127.846Z" style="fill:#4068b2;"/></g><g><path d="M1028.945,589.308c-8.993,-15.593 -26.117,-35.875 -40.85,-51.947c-7.844,-47.93 -24.3,-93.275 -47.833,-134.221c15.498,8.993 33.674,19.325 43.911,25.639c5.931,23.439 8.705,46.59 9.279,69.646c6.027,0.191 12.054,0.478 17.986,0.765c2.965,-16.072 3.253,-32.432 1.722,-48.886c13.871,8.898 27.839,19.039 42.093,34.154c-4.879,39.127 -13.68,74.045 -26.308,104.85m12.628,176.601c-26.022,29.562 -52.809,53.478 -80.551,71.75c1.339,-17.986 -1.34,-44.486 -4.592,-66.106c20.377,-44.102 32.145,-90.884 35.684,-138.047c7.749,16.168 17.029,35.11 21.908,46.111c-8.227,22.673 -18.942,43.433 -31.283,62.758c4.783,3.636 9.566,7.271 14.349,10.907c11.48,-11.672 20.855,-24.97 28.795,-39.415c6.506,15.21 12.342,31.57 15.69,52.042m-131.829,124.558c-18.942,14.733 -38.936,26.596 -59.6,36.354c2.105,5.644 4.305,11.288 6.409,16.932c15.881,-3.731 30.805,-9.949 45.155,-17.985c-2.487,16.359 -6.219,33.388 -14.159,52.52c-37.597,11.098 -72.899,17.029 -106.094,17.604c10.714,-14.542 22.29,-38.363 30.995,-58.453c40.467,-26.404 75.194,-59.697 103.033,-97.676c-2.008,17.794 -4.114,38.745 -5.74,50.703m-195.351,122.836c-23.821,2.584 -47.069,2.01 -69.741,-0.574c-1.148,5.931 -2.201,11.863 -3.348,17.794c15.402,5.262 31.378,7.845 47.833,8.609c-10.715,12.629 -22.768,25.066 -39.51,37.118c-21.137,-5.832 -40.806,-12.684 -59.026,-20.57c-14.354,-6.211 -27.81,-13.063 -40.372,-20.566c11.803,-4.815 26.44,-13.289 40.372,-22.245c5.717,-3.674 11.318,-7.428 16.55,-11.046c48.216,-1.053 95.092,-11.002 138.621,-28.701c-11.001,14.159 -23.725,30.901 -31.378,40.179m-220.225,4.019c-21.908,-9.758 -41.807,-21.812 -60.175,-35.588c-3.922,4.592 -7.749,9.183 -11.671,13.776c10.715,12.341 23.343,22.577 37.118,31.474c-15.498,5.644 -32.048,10.428 -52.52,12.341c-27.648,-27.934 -49.556,-56.443 -65.916,-85.526c17.795,2.487 44.199,1.436 65.82,-0.287c42.38,23.247 87.918,38.171 134.411,44.677c-16.55,6.792 -35.875,14.924 -47.068,19.133m-210.85,-148.38c-5.549,2.296 -11.002,4.688 -16.55,7.08c4.209,15.785 10.906,30.517 19.325,44.772c-16.264,-2.009 -33.292,-5.166 -52.521,-12.532c-12.342,-37.31 -19.421,-72.707 -21.143,-105.999c14.828,10.141 38.841,21.047 59.026,29.179c27.648,39.796 61.897,73.471 100.641,100.163c-17.793,-1.339 -38.649,-2.775 -50.608,-4.019c-15.307,-18.559 -27.743,-38.17 -38.171,-58.643m-85.813,-172.391c-6.027,-0.479 -11.959,-0.957 -17.986,-1.436c-3.443,15.977 -4.304,32.335 -3.252,48.79c-13.585,-9.279 -27.266,-19.899 -40.946,-35.396c6.123,-38.936 15.976,-73.664 29.656,-104.086c8.422,15.803 24.517,36.279 38.66,52.739c2.73,19.944 6.931,39.424 12.49,58.328c7.79,27.176 18.382,53.266 31.506,77.874c-15.116,-9.376 -33.101,-20.377 -43.05,-26.978c-5.166,-23.63 -7.176,-46.877 -7.08,-69.837m16.359,-295.994c0.096,18.033 5.044,43.961 10.005,65.262c-6.107,16.814 -11.1,34.158 -14.935,51.928c-0.041,0.192 -0.083,0.385 -0.124,0.577c-0.526,2.436 -1.019,4.877 -1.497,7.318c-0.187,0.954 -0.367,1.909 -0.548,2.865c-0.343,1.824 -0.675,3.65 -0.994,5.477c-0.32,1.845 -0.62,3.691 -0.914,5.536c-0.165,1.033 -0.334,2.066 -0.491,3.098c-3.222,21.236 -4.737,42.611 -4.565,63.908c-9.088,-15.498 -19.899,-33.483 -25.733,-44.101c6.314,-23.248 15.306,-44.869 26.021,-65.149c-5.07,-3.253 -10.141,-6.409 -15.211,-9.663c-10.523,12.532 -18.75,26.595 -25.447,41.711c-7.749,-14.637 -14.924,-30.422 -19.899,-50.608c23.439,-31.57 48.216,-57.686 74.333,-78.16m68.881,-90.213c-14.924,6.409 -28.701,15.115 -41.424,25.447c-0.286,-16.55 0.479,-33.962 5.166,-54.148c35.11,-17.316 68.976,-29.178 101.503,-35.492c-8.036,16.167 -15.498,41.711 -20.76,62.948c-35.397,32.91 -64.001,71.655 -85.048,113.939c-1.052,-17.89 -2.487,-38.936 -2.869,-50.991c16.167,-17.889 33.866,-32.909 52.712,-46.111c-3.061,-5.166 -6.218,-10.332 -9.279,-15.593m112.313,-83.709c22.768,-7.749 45.441,-12.341 68.21,-14.637c-0.192,-6.027 -0.383,-12.15 -0.575,-18.177c-16.167,-1.722 -32.335,-0.766 -48.502,2.008c7.654,-14.637 16.741,-29.369 30.517,-44.772c39.128,1.914 74.428,8.036 105.903,18.368c-14.828,10.237 -33.579,28.891 -48.408,44.963c-0.112,0.028 -0.223,0.059 -0.335,0.087c-2.736,0.681 -5.462,1.388 -8.176,2.124c-0.17,0.046 -0.34,0.092 -0.51,0.139c-2.794,0.762 -5.578,1.553 -8.349,2.375c-0.02,0.007 -0.041,0.014 -0.063,0.019c-22.685,6.741 -44.534,15.475 -65.349,26.003c-0.371,0.188 -0.745,0.371 -1.115,0.56c-2.052,1.045 -4.088,2.117 -6.119,3.196c-0.75,0.398 -1.5,0.794 -2.247,1.196c-1.743,0.941 -3.475,1.902 -5.203,2.868c-1.058,0.591 -2.114,1.186 -3.167,1.787c-1.451,0.829 -2.894,1.669 -4.335,2.516c-1.379,0.81 -2.75,1.63 -4.118,2.457c-1.123,0.678 -2.241,1.36 -3.356,2.049c-1.787,1.104 -3.561,2.225 -5.329,3.357c-0.696,0.445 -1.393,0.888 -2.086,1.337c-2.4,1.556 -4.781,3.138 -7.146,4.745c-0.065,0.044 -0.131,0.087 -0.196,0.132c-0.647,0.441 -1.306,0.868 -1.951,1.313c7.654,-16.168 16.55,-35.301 22.004,-46.016m195.543,-38.778c7.223,-4.976 13.875,-9.502 18.846,-12.691c23.534,4.783 45.441,12.341 66.298,21.812c2.774,-5.262 5.643,-10.619 8.514,-15.881c-13.106,-9.759 -27.552,-17.125 -42.954,-22.864c13.967,-8.706 29.178,-16.933 48.79,-23.344c32.814,21.526 60.271,44.677 82.369,69.55c-17.889,1.339 -43.433,8.036 -64.288,14.445c-38.607,-11.509 -78.281,-16.719 -117.574,-16.064c-7.735,0.129 -15.457,0.462 -23.152,1.044c7.512,-5.17 15.64,-10.833 23.152,-16.009m-354.577,414.662c0,-200.134 161.981,-363.272 360.498,-363.272c198.633,0 360.614,163.138 360.614,363.272c0,200.021 -161.981,363.158 -360.614,363.158c-198.516,0 -360.498,-163.137 -360.498,-363.158m587.813,-360.865c17.698,16.264 32.717,34.057 45.824,53c5.07,-3.158 10.237,-6.219 15.403,-9.28c-6.315,-15.116 -14.924,-28.892 -25.256,-41.807c16.455,-0.286 33.675,0.478 53.765,5.166c17.316,35.396 29.083,69.454 35.301,102.268c-16.071,-8.131 -41.328,-15.593 -62.471,-20.855c-0.568,-0.621 -1.152,-1.222 -1.724,-1.837c-0.579,-0.623 -1.163,-1.241 -1.746,-1.86c-31.965,-33.964 -69.267,-61.426 -109.704,-81.829c17.794,-1.148 38.65,-2.584 50.609,-2.966m344.783,349.471c-37.214,-62.948 -82.465,-112.6 -132.977,-153.545c24.682,14.541 49.363,30.709 74.046,48.311c-0.861,-57.782 -1.722,-115.66 -2.583,-173.443c-96.528,-55.87 -194.3,-75.194 -292.55,-77.299c48.695,-7.176 101.12,-8.515 155.937,-5.931c-31.762,-48.216 -63.427,-96.432 -95.188,-144.648c-93.658,4.688 -174.21,31.666 -247.395,70.888c32.909,-22.577 69.359,-43.146 108.103,-62.47c-48.503,-25.543 -96.911,-50.991 -145.413,-76.533c-2.392,-1.34 -4.879,-2.583 -7.27,-3.827c-68.594,42.668 -120.733,95.093 -162.826,153.354c13.585,-26.212 28.987,-52.521 45.824,-78.925c-57.304,3.444 -114.609,6.792 -171.913,10.237c-40.468,78.925 -58.262,157.658 -62.758,236.106c-2.392,-37.501 -1.913,-76.917 0.669,-117.479c-48.408,31.092 -96.815,62.184 -145.318,93.275c2.487,77.872 20.185,146.945 47.355,210.467c-14.446,-24.3 -28.126,-50.13 -41.041,-77.107c-26.978,51.086 -53.86,102.172 -80.839,153.258c42.476,70.124 94.71,123.411 153.164,166.365c-27.456,-14.158 -54.913,-30.326 -82.466,-48.215c3.444,57.782 6.792,115.47 10.237,173.252c74.621,38.65 148.953,56.731 223.095,62.279c-33.005,2.105 -67.445,2.201 -102.747,0.575c31.857,48.216 63.619,96.336 95.476,144.457c85.43,-4.497 159.858,-27.456 227.687,-61.322c-29.848,19.42 -62.279,37.406 -96.624,54.338c50.034,26.596 100.164,53.192 150.293,79.787c0.669,0.382 1.339,0.765 2.008,1.147c71.177,-43.911 124.749,-98.25 167.8,-158.807c-14.446,30.423 -31.379,60.94 -50.321,91.553c57.305,-4.304 114.514,-8.705 171.818,-13.106c38.649,-78.543 55.104,-156.415 58.643,-233.81c1.244,34.918 0.096,71.176 -2.869,108.581c48.886,-30.326 97.771,-60.557 146.657,-90.979c-1.339,-83.803 -20.472,-157.754 -50.225,-225.677c18.751,30.135 36.067,62.757 52.235,97.293c27.456,-50.799 54.817,-101.598 82.273,-152.397" style="fill:#f26639;fill-rule:nonzero;"/><path d="M937.678,962.887c2.965,-37.406 4.114,-73.663 2.87,-108.582c-3.54,77.394 -19.994,155.268 -58.644,233.811c-57.304,4.4 -114.513,8.801 -171.818,13.105c18.943,-30.613 35.875,-61.131 50.321,-91.552c-43.05,60.557 -96.624,114.896 -167.799,158.807c-0.669,-0.383 -1.339,-0.766 -2.009,-1.148c-50.13,-26.594 -100.258,-53.19 -150.292,-79.786c34.344,-16.933 66.776,-34.918 96.624,-54.339c-67.828,33.867 -142.257,56.826 -227.688,61.323c-31.857,-48.121 -63.618,-96.241 -95.475,-144.457c35.301,1.625 69.741,1.53 102.747,-0.575c-74.142,-5.548 -148.475,-23.63 -223.095,-62.279c-3.444,-57.782 -6.792,-115.47 -10.237,-173.253c27.552,17.89 55.009,34.057 82.465,48.216c-58.453,-42.954 -110.687,-96.241 -153.163,-166.365c26.978,-51.086 53.86,-102.172 80.839,-153.258c12.915,26.978 26.595,52.808 41.04,77.106c-27.169,-63.522 -44.867,-132.594 -47.355,-210.467c48.503,-31.091 96.911,-62.183 145.319,-93.274c-2.583,40.563 -3.062,79.977 -0.669,117.479c4.496,-78.448 22.29,-157.181 62.757,-236.106c57.304,-3.444 114.609,-6.792 171.914,-10.236c-16.838,26.403 -32.24,52.712 -45.825,78.925c42.094,-58.261 94.232,-110.687 162.826,-153.354c2.392,1.243 4.879,2.487 7.27,3.827c48.503,25.543 96.91,50.99 145.413,76.533c-38.745,19.324 -75.194,39.892 -108.103,62.47c73.185,-39.224 153.736,-66.201 247.395,-70.889c31.762,48.216 63.427,96.433 95.188,144.649c-54.817,-2.583 -107.242,-1.244 -155.936,5.931c98.25,2.104 196.021,21.429 292.549,77.299c0.862,57.782 1.723,115.661 2.583,173.443c-24.682,-17.602 -49.363,-33.771 -74.046,-48.312c50.512,40.946 95.763,90.596 132.977,153.546c-27.456,50.799 -54.817,101.597 -82.273,152.397c-16.167,-34.536 -33.483,-67.159 -52.234,-97.293c29.752,67.922 48.886,141.873 50.225,225.677c-48.886,30.423 -97.772,60.653 -146.658,90.979m145.318,-200.805l2.679,5.644c31.857,-58.93 63.714,-117.957 95.475,-176.888l-6.792,-11.289c-8.323,-13.584 -17.029,-26.786 -26.309,-39.701c-10.331,-13.968 -20.951,-27.457 -32.335,-40.563l4.879,-11.098c-0.861,-60.748 -1.722,-121.497 -2.679,-182.244l-14.541,-8.227c-9.184,-4.976 -18.464,-9.854 -27.744,-14.447l-37.118,-16.359l-37.215,-13.393l-52.712,-14.159l42.763,1.723c-36.736,-55.965 -73.568,-111.931 -110.4,-167.896l-15.116,0.957l-34.823,3.348l-41.997,6.888c-13.393,2.869 -26.595,6.122 -39.797,9.758l-5.262,-9.376c-51.182,-26.882 -102.268,-53.764 -153.354,-80.743c-2.583,-1.339 -5.166,-2.678 -7.749,-4.018l-11.766,7.366c-8.419,5.549 -16.742,11.193 -25.065,17.029c-11.863,8.705 -23.439,17.698 -34.824,27.169c-10.905,9.28 -21.429,18.846 -31.761,28.892l-11.289,-4.497c-60.27,3.636 -120.444,7.175 -180.619,10.715c-6.026,11.863 -11.767,23.63 -17.22,35.684c-5.454,12.532 -10.427,24.969 -15.116,37.693c-5.262,14.828 -9.854,29.561 -14.063,44.676l-12.15,0.287l-153.066,98.345l1.339,28.317l5.644,49.747l9.471,47.451l-7.749,6.697l-84.665,160.72l7.366,11.958l21.239,31.762l44.293,54.243l-1.817,-1.148c4.018,66.967 7.94,134.029 11.862,201.092c8.898,4.496 17.794,8.993 26.883,13.202c14.063,6.505 28.222,12.436 42.763,17.985c14.063,5.166 28.222,9.758 42.667,13.967l6.792,1.914l1.148,12.628c33.483,50.608 67.062,101.311 100.45,152.014c10.141,-0.669 20.282,-1.34 30.422,-2.201c30.901,-3.156 61.705,-8.226 91.841,-16.359l7.462,8.898l157.276,83.517l2.487,1.339l25.161,-16.167l37.214,-27.266l42.859,-38.074l-8.706,14.254l199.37,-15.21l6.314,-13.107l16.167,-37.501l10.81,-29.849c4.688,-14.637 8.802,-29.273 12.532,-44.197l6.219,-0.287c51.469,-31.953 102.937,-63.905 154.406,-95.667c-0.286,-12.724 -0.764,-25.256 -1.531,-37.789c-2.009,-26.308 -5.453,-52.33 -10.906,-78.16" style="fill:#f79768;fill-rule:nonzero;"/><path d="M375.2,271.206c2.365,-1.607 4.746,-3.189 7.146,-4.745c0.693,-0.45 1.391,-0.891 2.085,-1.337c1.768,-1.131 3.543,-2.253 5.33,-3.357c1.113,-0.69 2.234,-1.37 3.356,-2.049c1.368,-0.827 2.74,-1.647 4.118,-2.457c1.439,-0.848 2.884,-1.687 4.335,-2.516c1.053,-0.601 2.109,-1.195 3.167,-1.787c1.728,-0.967 3.461,-1.926 5.203,-2.868c0.747,-0.402 1.497,-0.798 2.247,-1.196c2.031,-1.08 4.068,-2.15 6.119,-3.196c0.37,-0.189 0.744,-0.372 1.115,-0.56c20.815,-10.529 42.664,-19.262 65.348,-26.002c0.021,-0.006 0.042,-0.013 0.064,-0.019c2.771,-0.822 5.554,-1.613 8.349,-2.376c0.17,-0.046 0.34,-0.093 0.509,-0.139c2.715,-0.737 5.44,-1.445 8.177,-2.124c0.111,-0.028 0.223,-0.059 0.335,-0.087c14.828,-16.071 33.578,-34.727 48.408,-44.963c-31.475,-10.333 -66.776,-16.455 -105.903,-18.369c-13.777,15.403 -22.865,30.135 -30.518,44.772c16.168,-2.774 32.336,-3.731 48.503,-2.008c0.192,6.027 0.383,12.149 0.574,18.177c-22.768,2.296 -45.441,6.888 -68.21,14.638c-5.454,10.714 -14.35,29.848 -22.004,46.015c0.646,-0.445 1.303,-0.871 1.951,-1.313c0.065,-0.044 0.132,-0.087 0.196,-0.132" style="fill:#f79768;fill-rule:nonzero;"/><path d="M690.093,134.89c-19.611,6.409 -34.823,14.638 -48.79,23.343c15.402,5.74 29.848,13.106 42.954,22.864c-2.87,5.262 -5.74,10.62 -8.515,15.881c-20.855,-9.47 -42.763,-17.028 -66.297,-21.812c-4.971,3.189 -11.623,7.714 -18.847,12.692c-7.511,5.175 -15.64,10.839 -23.151,16.009c7.695,-0.582 15.417,-0.916 23.151,-1.045c39.294,-0.655 78.967,4.555 117.575,16.065c20.855,-6.409 46.399,-13.106 64.288,-14.446c-22.099,-24.873 -49.555,-48.024 -82.369,-69.549" style="fill:#f79768;fill-rule:nonzero;"/><path d="M882.931,326.449c0.586,0.616 1.164,1.24 1.746,1.86c0.572,0.615 1.155,1.216 1.724,1.837c21.143,5.262 46.398,12.724 62.471,20.855c-6.218,-32.814 -17.986,-66.871 -35.301,-102.268c-20.089,-4.688 -37.31,-5.454 -53.764,-5.166c10.331,12.915 18.942,26.691 25.255,41.806c-5.165,3.062 -10.331,6.123 -15.402,9.281c-13.106,-18.943 -28.126,-36.736 -45.824,-53c-11.959,0.382 -32.814,1.818 -50.608,2.966c40.437,20.402 77.739,47.864 109.704,81.829" style="fill:#f79768;fill-rule:nonzero;"/><path d="M1028.945,589.308c12.628,-30.805 21.429,-65.723 26.308,-104.85c-14.254,-15.116 -28.222,-25.256 -42.093,-34.154c1.531,16.454 1.243,32.814 -1.722,48.886c-5.931,-0.287 -11.959,-0.575 -17.986,-0.765c-0.574,-23.056 -3.348,-46.208 -9.279,-69.646c-10.237,-6.314 -28.413,-16.646 -43.911,-25.639c23.533,40.946 39.989,86.291 47.833,134.221c14.732,16.071 31.857,36.353 40.85,51.947" style="fill:#f79768;fill-rule:nonzero;"/><path d="M997.088,753.281c-4.783,-3.636 -9.567,-7.271 -14.35,-10.906c12.341,-19.325 23.056,-40.085 31.284,-62.758c-4.88,-11.002 -14.159,-29.944 -21.908,-46.111c-3.54,47.163 -15.307,93.945 -35.684,138.047c3.253,21.621 5.931,48.12 4.592,66.105c27.744,-18.272 54.531,-42.189 80.552,-71.75c-3.349,-20.472 -9.185,-36.831 -15.69,-52.042c-7.94,14.446 -17.316,27.744 -28.795,39.415" style="fill:#f79768;fill-rule:nonzero;"/><path d="M216.127,715.491c-5.559,-18.904 -9.76,-38.385 -12.49,-58.328c-14.143,-16.46 -30.237,-36.936 -38.66,-52.739c-13.68,30.422 -23.533,65.149 -29.656,104.086c13.68,15.498 27.361,26.117 40.946,35.396c-1.053,-16.454 -0.192,-32.813 3.253,-48.79c6.027,0.479 11.958,0.957 17.985,1.436c-0.096,22.96 1.914,46.207 7.08,69.837c9.949,6.601 27.934,17.602 43.05,26.978c-13.125,-24.608 -23.717,-50.698 -31.506,-77.874" style="fill:#f79768;fill-rule:nonzero;"/><path d="M184.876,487.614c5.07,3.253 10.141,6.409 15.211,9.663c-10.715,20.281 -19.707,41.901 -26.022,65.148c5.836,10.62 16.646,28.605 25.734,44.102c-0.172,-21.298 1.343,-42.672 4.565,-63.908c0.156,-1.035 0.327,-2.065 0.491,-3.098c0.295,-1.846 0.593,-3.693 0.914,-5.536c0.317,-1.832 0.652,-3.655 0.994,-5.478c0.18,-0.955 0.36,-1.91 0.547,-2.864c0.477,-2.448 0.976,-4.887 1.497,-7.318c0.041,-0.192 0.084,-0.385 0.125,-0.577c3.836,-17.771 8.827,-35.115 14.934,-51.928c-4.961,-21.301 -9.909,-47.23 -10.005,-65.262c-26.117,20.472 -50.895,46.59 -74.333,78.16c4.976,20.185 12.15,35.971 19.899,50.608c6.698,-15.116 14.924,-29.178 25.448,-41.711" style="fill:#f79768;fill-rule:nonzero;"/><path d="M239.31,372.048c0.383,12.054 1.818,33.101 2.87,50.991c21.046,-42.285 49.651,-81.03 85.048,-113.939c5.261,-21.238 12.723,-46.781 20.76,-62.948c-32.528,6.314 -66.394,18.176 -101.503,35.492c-4.688,20.186 -5.454,37.597 -5.166,54.148c12.724,-10.332 26.5,-19.038 41.424,-25.447c3.061,5.261 6.219,10.427 9.28,15.593c-18.847,13.202 -36.545,28.222 -52.713,46.111" style="fill:#f79768;fill-rule:nonzero;"/><path d="M812.451,937.439c-8.706,20.09 -20.282,43.912 -30.996,58.453c33.196,-0.574 68.498,-6.505 106.094,-17.603c7.941,-19.133 11.672,-36.162 14.159,-52.521c-14.349,8.037 -29.273,14.254 -45.154,17.985c-2.105,-5.643 -4.305,-11.287 -6.409,-16.932c20.664,-9.758 40.658,-21.621 59.6,-36.353c1.626,-11.959 3.731,-32.91 5.74,-50.703c-27.839,37.979 -62.566,71.271 -103.033,97.675" style="fill:#f79768;fill-rule:nonzero;"/><path d="M590.599,1012.87c-13.931,8.956 -28.568,17.43 -40.371,22.245c12.562,7.503 26.018,14.355 40.371,20.566c18.221,7.886 37.889,14.738 59.026,20.57c16.742,-12.054 28.796,-24.49 39.511,-37.118c-16.455,-0.765 -32.431,-3.347 -47.834,-8.61c1.148,-5.931 2.201,-11.862 3.348,-17.793c22.673,2.583 45.92,3.157 69.741,0.574c7.654,-9.279 20.377,-26.021 31.379,-40.179c-43.529,17.699 -90.405,27.647 -138.622,28.7c-5.233,3.619 -10.833,7.373 -16.55,11.047" style="fill:#f79768;fill-rule:nonzero;"/><path d="M271.454,831.441c-20.185,-8.132 -44.198,-19.038 -59.026,-29.179c1.722,33.293 8.801,68.689 21.143,105.999c19.229,7.366 36.257,10.524 52.521,12.532c-8.419,-14.254 -15.116,-28.987 -19.325,-44.772c5.548,-2.392 11.001,-4.783 16.55,-7.079c10.428,20.472 22.864,40.084 38.171,58.643c11.959,1.243 32.814,2.679 50.608,4.019c-38.745,-26.692 -72.994,-60.366 -100.641,-100.164" style="fill:#f79768;fill-rule:nonzero;"/><path d="M341.004,953.799c16.36,29.083 38.267,57.592 65.915,85.526c20.473,-1.914 37.024,-6.697 52.521,-12.341c-13.777,-8.897 -26.404,-19.133 -37.119,-31.474c3.923,-4.592 7.749,-9.184 11.672,-13.777c18.367,13.777 38.266,25.83 60.174,35.589c11.193,-4.209 30.517,-12.341 47.069,-19.133c-46.495,-6.506 -92.032,-21.43 -134.412,-44.677c-21.621,1.723 -48.024,2.775 -65.819,0.287" style="fill:#f79768;fill-rule:nonzero;"/></g></svg>