<?xml version="1.0" encoding="UTF-8" standalone="no"?><!DOCTYPE svg PUBLIC "-//W3C//DTD SVG 1.1//EN" "http://www.w3.org/Graphics/SVG/1.1/DTD/svg11.dtd"><svg width="100%" height="100%" viewBox="0 0 1182 1182" version="1.1" xmlns="http://www.w3.org/2000/svg" xmlns:xlink="http://www.w3.org/1999/xlink" xml:space="preserve" xmlns:serif="http://www.serif.com/" style="fill-rule:evenodd;clip-rule:evenodd;stroke-linejoin:round;stroke-miterlimit:2;"><g><path d="M590.551,301.335c107.615,0 194.985,87.37 194.985,194.985c0,107.615 -87.37,194.985 -194.985,194.985c-107.615,0 -194.985,-87.37 -194.985,-194.985c0,-107.615 87.37,-194.985 194.985,-194.985Zm-49.465,194.553c2.398,1.853 5.792,1.67 7.977,-0.429c11.053,-10.683 18.302,-17.105 21.747,-19.267c3.823,-2.399 7.234,-3.598 10.233,-3.598c2.699,0 4.048,1.499 4.048,4.498c0,2.699 -0.525,5.773 -1.574,9.221c-22.49,72.869 -33.735,118.674 -33.735,137.416c0,5.847 1.537,10.421 4.611,13.719c3.074,3.299 7.234,4.948 12.482,4.948c5.997,0 13.719,-2.699 23.165,-8.097c8.709,-4.976 22.133,-15.879 40.274,-32.709c1.232,-1.139 1.942,-2.733 1.964,-4.41c0.022,-1.677 -0.646,-3.29 -1.847,-4.461c-0.002,-0.004 -0.005,-0.007 -0.008,-0.01c-2.328,-2.267 -6.022,-2.319 -8.412,-0.118c-17.317,15.96 -28.198,23.941 -32.644,23.941c-1.199,0 -2.324,-0.712 -3.374,-2.137c-1.05,-1.424 -1.574,-3.186 -1.574,-5.285c0,-10.945 7.947,-43.031 23.84,-96.259c9.746,-32.536 14.619,-50.978 14.619,-55.326c0,-3.598 -1.274,-6.447 -3.823,-8.546c-2.549,-2.099 -6.222,-3.149 -11.02,-3.149c-8.696,0 -19.229,3.486 -31.599,10.458c-11.092,6.252 -23.238,16.331 -36.44,30.238c-1.191,1.253 -1.796,2.953 -1.664,4.677c0.132,1.724 0.988,3.312 2.357,4.369c0.131,0.109 0.266,0.213 0.4,0.316Zm90.666,-129.468c15.322,4.105 23.965,21.604 19.29,39.053c-4.675,17.449 -20.91,28.282 -36.232,24.176c-15.322,-4.105 -23.965,-21.604 -19.29,-39.053c4.675,-17.449 20.91,-28.282 36.232,-24.176Z" style="fill:#ebebeb;"/><path d="M822.032,855.572c-61.828,50.081 -140.297,80.105 -225.512,80.105c-88.827,0 -170.34,-32.663 -233.299,-86.677c47.615,-73.013 130.011,-121.274 223.679,-121.274l7.301,0c96.451,-0 180.95,51.171 227.83,127.846Z" style="fill:#ebebeb;"/></g><path d="M748.449,1033.795c4.154,-8.049 8.143,-16.091 11.959,-24.127c-5.8,8.159 -11.791,16.204 -17.99,24.127c-39.815,50.882 -88.223,96.685 -149.81,134.68l-2.008,-1.147c-50.13,-26.595 -100.259,-53.191 -150.293,-79.787c33.995,-16.76 66.115,-34.552 95.711,-53.746l0.912,-0.593l-1.19,0.593c-67.509,33.541 -141.566,56.259 -226.497,60.73c-31.857,-48.12 -63.619,-96.241 -95.476,-144.457c35.301,1.626 69.742,1.531 102.747,-0.575c-74.142,-5.548 -148.474,-23.629 -223.095,-62.279c-3.444,-57.782 -6.792,-115.47 -10.237,-173.252c27.553,17.889 55.009,34.057 82.466,48.215c-58.454,-42.954 -110.687,-96.241 -153.164,-166.365c26.978,-51.086 53.861,-102.172 80.839,-153.258c12.916,26.978 26.595,52.808 41.041,77.107c-27.17,-63.522 -44.868,-132.595 -47.355,-210.467c48.502,-31.091 96.91,-62.183 145.318,-93.275c-2.582,40.563 -3.061,79.978 -0.669,117.479c4.496,-78.447 22.29,-157.181 62.758,-236.106c57.304,-3.445 114.609,-6.792 171.913,-10.237c-16.838,26.404 -32.239,52.713 -45.824,78.925c42.093,-58.261 94.232,-110.687 162.826,-153.354c2.392,1.244 4.879,2.487 7.27,3.827c48.502,25.543 96.91,50.991 145.413,76.533c-38.745,19.324 -75.194,39.893 -108.103,62.47c73.185,-39.223 153.736,-66.2 247.395,-70.888c31.761,48.216 63.426,96.432 95.188,144.648c-54.817,-2.583 -107.242,-1.244 -155.937,5.931c98.25,2.104 196.022,21.429 292.55,77.299l2.583,173.443c-24.683,-17.602 -49.364,-33.77 -74.046,-48.311c50.512,40.945 95.763,90.596 132.977,153.545c-27.456,50.799 -54.817,101.598 -82.273,152.397c-16.168,-34.536 -33.484,-67.158 -52.235,-97.293c29.753,67.923 48.886,141.874 50.225,225.677c-48.886,30.423 -97.771,60.654 -146.657,90.979c2.965,-37.406 4.114,-73.663 2.869,-108.581c-3.539,77.394 -19.994,155.267 -58.643,233.81c-57.304,4.401 -114.513,8.802 -171.818,13.106c13.939,-22.527 26.79,-45.002 38.362,-67.426Zm-385.228,-154.795c62.959,54.015 144.471,86.677 233.299,86.677c85.215,0 163.684,-30.025 225.512,-80.105c82.291,-66.656 135.103,-168.841 135.103,-283.052c0,-200.134 -161.981,-363.272 -360.614,-363.272c-198.516,0 -360.498,163.138 -360.498,363.272c0,110.52 49.454,209.78 127.199,276.48Zm475.88,39.424c-8.579,6.676 -17.468,13.023 -26.651,19.016c-8.705,20.09 -20.282,43.911 -30.995,58.453c24.441,-0.423 50.024,-3.75 76.825,-9.905c9.599,-2.205 19.354,-4.772 29.269,-7.698c7.94,-19.132 11.671,-36.162 14.159,-52.52c-14.35,8.036 -29.274,14.254 -45.155,17.985c-2.104,-5.644 -4.304,-11.288 -6.409,-16.932c20.664,-9.758 40.658,-21.621 59.6,-36.354c1.626,-11.959 3.731,-32.909 5.74,-50.703c-21.521,29.36 -47.158,55.919 -76.382,78.661Zm-501.431,10.595c10.681,0.852 23.166,1.738 34.425,2.585c-9.231,-6.36 -18.208,-13.116 -26.9,-20.256c-27.79,-22.829 -52.681,-49.592 -73.741,-79.906c-20.185,-8.132 -44.198,-19.039 -59.026,-29.179c1.722,33.292 8.801,68.689 21.143,105.999c19.229,7.366 36.257,10.523 52.521,12.532c-8.419,-14.254 -15.116,-28.987 -19.325,-44.772c5.548,-2.392 11.001,-4.784 16.55,-7.08c10.428,20.473 22.864,40.085 38.171,58.643c4.392,0.457 9.983,0.94 16.183,1.434Zm100.335,104.776c7.516,-1.986 14.578,-4.315 21.434,-6.811c-13.776,-8.897 -26.404,-19.133 -37.118,-31.474c3.922,-4.592 7.749,-9.184 11.671,-13.776c18.368,13.776 38.267,25.83 60.175,35.588c11.193,-4.209 30.517,-12.341 47.068,-19.133c-46.494,-6.506 -92.031,-21.43 -134.411,-44.677c-21.621,1.723 -48.024,2.775 -65.82,0.287c15.282,27.166 35.405,53.832 60.525,79.996c1.772,1.846 3.569,3.689 5.391,5.529c11.416,-1.067 21.612,-3.026 31.087,-5.529Zm-224.143,-633.238c-26.116,20.473 -50.894,46.59 -74.333,78.16c4.975,20.186 12.149,35.971 19.899,50.608c6.697,-15.116 14.924,-29.178 25.447,-41.711c5.07,3.254 10.141,6.41 15.211,9.663c-10.715,20.281 -19.707,41.901 -26.021,65.149c5.835,10.619 16.645,28.604 25.733,44.101c-0.172,-21.297 1.343,-42.672 4.565,-63.908c0.157,-1.032 0.326,-2.065 0.491,-3.098c0.295,-1.845 0.594,-3.692 0.914,-5.536c0.319,-1.827 0.65,-3.653 0.994,-5.477c0.18,-0.956 0.361,-1.911 0.548,-2.865c0.479,-2.441 0.972,-4.883 1.497,-7.318l0.124,-0.577c3.836,-17.77 8.828,-35.115 14.935,-51.928c-4.962,-21.301 -9.91,-47.229 -10.005,-65.262Zm815.082,188.751c12.628,-30.805 21.429,-65.723 26.308,-104.85c-14.254,-15.116 -28.222,-25.256 -42.093,-34.154c1.531,16.454 1.243,32.814 -1.722,48.886c-5.931,-0.287 -11.959,-0.575 -17.986,-0.765c-0.574,-23.056 -3.348,-46.208 -9.279,-69.646c-10.237,-6.314 -28.413,-16.646 -43.911,-25.639c23.533,40.946 39.989,86.291 47.833,134.221c14.732,16.071 31.857,36.353 40.85,51.947Zm-633.888,-362.673c-5.454,10.715 -14.35,29.848 -22.004,46.016c0.646,-0.445 1.304,-0.872 1.951,-1.313l0.196,-0.132c2.365,-1.607 4.746,-3.189 7.146,-4.745c0.693,-0.449 1.39,-0.892 2.086,-1.337c1.768,-1.132 3.542,-2.253 5.329,-3.357c1.114,-0.689 2.233,-1.371 3.356,-2.049c1.368,-0.827 2.74,-1.647 4.118,-2.457c1.44,-0.847 2.883,-1.687 4.335,-2.516c1.053,-0.601 2.109,-1.196 3.167,-1.787c1.728,-0.966 3.46,-1.927 5.203,-2.868c0.747,-0.402 1.497,-0.798 2.247,-1.196c2.031,-1.079 4.068,-2.151 6.119,-3.196c0.37,-0.189 0.744,-0.372 1.115,-0.56c20.815,-10.529 42.664,-19.262 65.349,-26.003c0.021,-0.006 0.042,-0.012 0.063,-0.019c2.771,-0.822 5.555,-1.612 8.349,-2.375l0.51,-0.139c2.714,-0.737 5.44,-1.444 8.176,-2.124c0.112,-0.028 0.223,-0.059 0.335,-0.087c14.828,-16.072 33.579,-34.727 48.408,-44.963c-31.475,-10.332 -66.776,-16.454 -105.903,-18.368c-13.777,15.403 -22.864,30.135 -30.517,44.772c16.167,-2.775 32.335,-3.731 48.502,-2.008c0.192,6.026 0.383,12.149 0.575,18.177c-22.769,2.296 -45.442,6.887 -68.21,14.637Zm646.517,539.274c-3.348,-20.472 -9.184,-36.832 -15.69,-52.042c-7.94,14.445 -17.316,27.743 -28.795,39.415l-14.349,-10.907c12.341,-19.325 23.055,-40.085 31.283,-62.758c-4.879,-11.001 -14.159,-29.943 -21.908,-46.111c-3.539,47.163 -15.307,93.945 -35.684,138.047c3.253,21.621 5.931,48.12 4.592,66.106c27.743,-18.272 54.53,-42.189 80.551,-71.75Zm-389.339,267.886c-3.674,-0.951 -7.318,-2.037 -10.931,-3.271c1.147,-5.931 2.2,-11.863 3.348,-17.794c22.672,2.584 45.92,3.158 69.741,0.574c7.654,-9.279 20.377,-26.021 31.378,-40.179c-43.529,17.699 -90.405,27.648 -138.621,28.701c-5.233,3.618 -10.833,7.372 -16.55,11.046c-12.735,8.186 -26.059,15.97 -37.269,20.925c-1.054,0.466 -2.089,0.906 -3.103,1.32c12.562,7.503 26.018,14.355 40.372,20.566c18.221,7.886 37.889,14.738 59.026,20.57c16.742,-12.053 28.795,-24.489 39.51,-37.118c-12.595,-0.585 -24.91,-2.236 -36.902,-5.338Zm171.602,-792.14c-11.959,0.382 -32.814,1.818 -50.609,2.966c40.437,20.402 77.739,47.864 109.704,81.829c0.583,0.619 1.167,1.237 1.746,1.86c0.572,0.615 1.156,1.216 1.724,1.837c21.143,5.262 46.399,12.724 62.471,20.855c-6.218,-32.814 -17.985,-66.871 -35.301,-102.268c-20.09,-4.688 -37.31,-5.453 -53.765,-5.166c10.332,12.915 18.942,26.691 25.256,41.807c-5.166,3.061 -10.332,6.122 -15.403,9.28c-13.106,-18.943 -28.126,-36.736 -45.824,-53Zm-541.092,68.689c3.061,5.261 6.218,10.427 9.279,15.593c-18.846,13.202 -36.545,28.222 -52.712,46.111c0.382,12.054 1.818,33.101 2.869,50.991c21.047,-42.285 49.651,-81.029 85.048,-113.939c5.262,-21.238 12.724,-46.781 20.76,-62.948c-32.527,6.314 -66.393,18.177 -101.503,35.492c-4.687,20.186 -5.453,37.597 -5.166,54.148c12.724,-10.332 26.5,-19.038 41.424,-25.447Zm307.856,-122.487c-7.512,5.175 -15.64,10.839 -23.152,16.009c7.695,-0.582 15.417,-0.915 23.152,-1.044c39.293,-0.655 78.967,4.555 117.574,16.064c20.855,-6.409 46.399,-13.106 64.288,-14.445c-22.099,-24.873 -49.555,-48.024 -82.369,-69.55c-19.611,6.41 -34.823,14.638 -48.79,23.344c15.402,5.739 29.848,13.105 42.954,22.864c-2.87,5.262 -5.74,10.619 -8.514,15.881c-20.856,-9.471 -42.763,-17.029 -66.298,-21.812c-4.971,3.189 -11.623,7.714 -18.846,12.691Zm-393.095,508.694c-0.096,22.96 1.914,46.207 7.08,69.837c9.948,6.6 27.934,17.602 43.05,26.978c-13.125,-24.608 -23.717,-50.698 -31.506,-77.874c-5.559,-18.904 -9.76,-38.385 -12.49,-58.328c-14.143,-16.46 -30.238,-36.936 -38.66,-52.739c-13.681,30.422 -23.533,65.149 -29.656,104.086c13.68,15.498 27.361,26.117 40.946,35.396c-1.053,-16.454 -0.192,-32.813 3.252,-48.79c6.027,0.479 11.959,0.957 17.986,1.436Z" style="fill:#f26639;"/></svg>