<?xml version="1.0" encoding="UTF-8" standalone="no"?><!DOCTYPE svg PUBLIC "-//W3C//DTD SVG 1.1//EN" "http://www.w3.org/Graphics/SVG/1.1/DTD/svg11.dtd"><svg width="100%" height="100%" viewBox="0 0 1418 1418" version="1.1" xmlns="http://www.w3.org/2000/svg" xmlns:xlink="http://www.w3.org/1999/xlink" xml:space="preserve" xmlns:serif="http://www.serif.com/" style="fill-rule:evenodd;clip-rule:evenodd;stroke-linejoin:round;stroke-miterlimit:2;"><g><path d="M1234.691,707.169c-10.79,-18.711 -31.338,-43.047 -49.016,-62.331c-9.412,-57.511 -29.157,-111.921 -57.395,-161.052c18.596,10.79 40.406,23.188 52.689,30.764c7.116,28.124 10.445,55.903 11.134,83.569c7.232,0.229 14.464,0.573 21.581,0.918c3.558,-19.285 3.903,-38.915 2.066,-58.659c16.644,10.676 33.404,22.844 50.508,40.982c-5.854,46.948 -16.414,88.847 -31.567,125.81m15.153,211.904c-31.223,35.471 -63.365,64.168 -96.654,86.093c1.607,-21.581 -1.608,-53.378 -5.511,-79.321c24.45,-52.919 38.57,-109.052 42.817,-165.643c9.298,19.4 20.433,42.128 26.287,55.329c-9.872,27.206 -22.728,52.115 -37.536,75.303c5.739,4.362 11.479,8.725 17.218,13.087c13.775,-14.006 25.024,-29.962 34.552,-47.294c7.807,18.251 14.809,37.881 18.827,62.446m-158.182,149.457c-22.728,17.679 -46.72,31.913 -71.514,43.621c2.526,6.772 5.166,13.545 7.691,20.317c19.055,-4.476 36.963,-11.938 54.182,-21.58c-2.985,19.629 -7.462,40.062 -16.989,63.019c-45.113,13.316 -87.471,20.433 -127.303,21.123c12.855,-17.449 26.746,-46.031 37.191,-70.138c48.556,-31.682 90.226,-71.63 123.63,-117.202c-2.41,21.352 -4.936,46.49 -6.887,60.839m-234.403,147.391c-28.583,3.101 -56.478,2.412 -83.682,-0.688c-1.378,7.117 -2.641,14.234 -4.018,21.352c18.481,6.314 37.651,9.413 57.395,10.33c-12.856,15.154 -27.32,30.076 -47.408,44.538c-25.363,-6.998 -48.963,-15.22 -70.826,-24.682c-17.223,-7.453 -33.369,-15.674 -48.442,-24.678c14.163,-5.778 31.725,-15.946 48.442,-26.692c6.86,-4.409 13.58,-8.913 19.859,-13.254c57.855,-1.263 114.101,-13.201 166.332,-34.438c-13.2,16.989 -28.468,37.078 -37.651,48.211m-264.248,4.822c-26.287,-11.708 -50.164,-26.173 -72.204,-42.702c-4.706,5.509 -9.298,11.019 -14.005,16.529c12.856,14.808 28.009,27.091 44.538,37.766c-18.596,6.772 -38.454,12.513 -63.019,14.808c-33.175,-33.518 -59.462,-67.726 -79.092,-102.623c21.353,2.985 53.035,1.723 78.977,-0.345c50.852,27.894 105.492,45.801 161.281,53.608c-19.859,8.15 -43.047,17.907 -56.477,22.958m-253,-178.041c-6.659,2.755 -13.201,5.625 -19.859,8.495c5.051,18.94 13.086,36.618 23.188,53.722c-19.515,-2.411 -39.947,-6.199 -63.02,-15.038c-14.809,-44.768 -23.303,-87.242 -25.369,-127.189c17.792,12.168 46.606,25.254 70.826,35.012c33.175,47.752 74.27,88.159 120.76,120.185c-21.35,-1.607 -46.375,-3.329 -60.724,-4.822c-18.367,-22.269 -33.289,-45.8 -45.801,-70.366m-102.968,-206.852c-7.232,-0.575 -14.349,-1.148 -21.581,-1.723c-4.132,19.17 -5.165,38.799 -3.902,58.543c-16.301,-11.134 -32.716,-23.876 -49.131,-42.472c7.347,-46.72 19.169,-88.39 35.585,-124.893c10.105,18.963 29.418,43.532 46.388,63.282c3.276,23.931 8.316,47.305 14.987,69.988c9.347,32.609 22.057,63.914 37.805,93.442c-18.137,-11.25 -39.719,-24.451 -51.656,-32.37c-6.199,-28.354 -8.61,-56.248 -8.495,-83.797m19.629,-355.164c0.115,21.638 6.052,52.748 12.006,78.308c-7.328,20.175 -13.318,40.986 -17.921,62.309c-0.05,0.231 -0.099,0.462 -0.149,0.693c-0.631,2.923 -1.222,5.852 -1.797,8.781c-0.224,1.145 -0.441,2.291 -0.657,3.438c-0.412,2.189 -0.81,4.38 -1.192,6.572c-0.385,2.213 -0.744,4.429 -1.097,6.643c-0.198,1.24 -0.401,2.478 -0.589,3.717c-3.866,25.481 -5.684,51.129 -5.477,76.683c-10.905,-18.596 -23.876,-40.176 -30.878,-52.918c7.576,-27.895 18.366,-53.838 31.222,-78.173c-6.084,-3.903 -12.168,-7.691 -18.252,-11.595c-12.627,15.038 -22.499,31.912 -30.534,50.049c-9.298,-17.563 -17.907,-36.503 -23.876,-60.724c28.124,-37.881 57.855,-69.218 89.192,-93.784m82.65,-108.247c-17.907,7.691 -34.438,18.136 -49.705,30.534c-0.344,-19.859 0.575,-40.751 6.199,-64.972c42.128,-20.777 82.764,-35.011 121.793,-42.587c-9.642,19.399 -18.596,50.049 -24.91,75.532c-42.473,39.489 -76.795,85.979 -102.049,136.716c-1.262,-21.466 -2.985,-46.72 -3.443,-61.184c19.399,-21.465 40.636,-39.488 63.249,-55.329c-3.673,-6.199 -7.461,-12.398 -11.134,-18.711m134.764,-100.443c27.32,-9.298 54.525,-14.808 81.846,-17.563c-0.23,-7.232 -0.46,-14.579 -0.69,-21.81c-19.399,-2.066 -38.799,-0.919 -58.198,2.41c9.183,-17.563 20.087,-35.24 36.618,-53.722c46.95,2.296 89.307,9.642 127.074,22.04c-17.792,12.283 -40.292,34.667 -58.084,53.952c-0.135,0.033 -0.267,0.071 -0.402,0.104c-3.283,0.817 -6.554,1.665 -9.81,2.549c-0.204,0.055 -0.408,0.11 -0.612,0.167c-3.353,0.915 -6.693,1.863 -10.018,2.85c-0.024,0.009 -0.05,0.017 -0.075,0.023c-27.22,8.088 -53.437,18.568 -78.413,31.201c-0.445,0.225 -0.894,0.445 -1.338,0.672c-2.462,1.254 -4.905,2.54 -7.343,3.835c-0.899,0.477 -1.8,0.952 -2.696,1.435c-2.092,1.129 -4.17,2.282 -6.243,3.441c-1.27,0.709 -2.537,1.423 -3.8,2.145c-1.741,0.994 -3.473,2.002 -5.201,3.019c-1.654,0.972 -3.299,1.956 -4.941,2.948c-1.347,0.813 -2.69,1.632 -4.027,2.459c-2.145,1.325 -4.273,2.67 -6.395,4.028c-0.835,0.534 -1.672,1.065 -2.503,1.604c-2.88,1.867 -5.737,3.766 -8.575,5.694c-0.078,0.053 -0.157,0.105 -0.235,0.158c-0.777,0.529 -1.567,1.042 -2.341,1.576c9.183,-19.4 19.859,-42.358 26.402,-55.215m234.633,-46.53c8.666,-5.971 16.649,-11.401 22.613,-15.228c28.239,5.739 54.525,14.808 79.551,26.173c3.328,-6.314 6.771,-12.742 10.216,-19.055c-15.726,-11.709 -33.06,-20.548 -51.541,-27.434c16.759,-10.446 35.011,-20.318 58.543,-28.01c39.374,25.829 72.319,53.608 98.835,83.454c-21.465,1.607 -52.115,9.642 -77.14,17.333c-46.324,-13.81 -93.93,-20.061 -141.077,-19.275c-9.282,0.155 -18.547,0.555 -27.78,1.253c9.013,-6.203 18.767,-12.999 27.78,-19.209m-350.801,497.543c0,-198.702 160.822,-360.672 357.917,-360.672c197.211,0 358.033,161.97 358.033,360.672c0,198.589 -160.822,360.558 -358.033,360.558c-197.095,0 -357.917,-161.969 -357.917,-360.558m630.662,-432.991c21.236,19.515 39.258,40.865 54.984,63.595c6.084,-3.789 12.283,-7.462 18.482,-11.135c-7.577,-18.137 -17.907,-34.668 -30.305,-50.164c19.745,-0.344 40.407,0.573 64.513,6.199c20.777,42.472 34.896,83.338 42.357,122.711c-19.284,-9.757 -49.589,-18.711 -74.959,-25.024c-0.682,-0.745 -1.382,-1.466 -2.069,-2.204c-0.695,-0.748 -1.396,-1.49 -2.095,-2.232c-38.355,-40.754 -83.113,-73.705 -131.634,-98.186c21.352,-1.378 46.376,-3.101 60.725,-3.559m413.706,419.331c-44.653,-75.532 -98.95,-135.109 -159.559,-184.239c29.616,17.448 59.231,36.848 88.848,57.968c-1.033,-69.333 -2.066,-138.781 -3.099,-208.115c-115.824,-67.038 -233.141,-90.226 -351.031,-92.751c58.429,-8.61 121.335,-10.217 187.11,-7.117c-38.111,-57.855 -76.107,-115.709 -114.216,-173.564c-112.381,5.625 -209.035,37.996 -296.85,85.059c39.488,-27.09 83.224,-51.771 129.714,-74.957c-58.199,-30.649 -116.284,-61.184 -174.482,-91.833c-2.87,-1.608 -5.854,-3.099 -8.724,-4.592c-82.306,51.197 -144.867,114.102 -195.375,184.01c16.301,-31.452 34.781,-63.02 54.985,-94.702c-68.76,4.133 -137.519,8.149 -206.279,12.283c-48.557,94.702 -69.909,189.175 -75.303,283.304c-2.87,-44.998 -2.295,-92.292 0.803,-140.963c-58.084,37.307 -116.169,74.615 -174.367,111.921c2.985,93.439 24.22,176.319 56.821,252.54c-17.334,-29.157 -33.748,-60.151 -49.246,-92.521c-32.37,61.298 -64.627,122.596 -96.998,183.894c50.967,84.142 113.643,148.081 183.781,199.621c-32.945,-16.988 -65.89,-36.388 -98.951,-57.853c4.133,69.333 8.15,138.552 12.283,207.885c89.538,46.376 178.729,68.071 267.693,74.729c-39.602,2.526 -80.928,2.641 -123.286,0.69c38.226,57.855 76.336,115.594 114.562,173.334c102.508,-5.396 191.815,-32.945 273.202,-73.581c-35.815,23.302 -74.729,44.883 -115.939,65.2c60.036,31.913 120.186,63.825 180.337,95.737c0.803,0.459 1.607,0.918 2.41,1.377c85.405,-52.689 149.687,-117.89 201.344,-190.553c-17.334,36.504 -37.652,73.122 -60.381,109.855c68.761,-5.165 137.405,-10.445 206.165,-15.726c46.375,-94.244 66.12,-187.683 70.366,-280.549c1.493,41.899 0.115,85.404 -3.443,130.287c58.658,-36.388 117.316,-72.662 175.974,-109.167c-1.607,-100.555 -24.565,-189.29 -60.266,-270.791c22.5,36.159 43.277,75.302 62.677,116.742c32.945,-60.954 65.775,-121.908 98.72,-182.862" style="fill:#f26639;fill-rule:nonzero;"/><path d="M1125.18,1155.428c3.558,-44.883 4.936,-88.388 3.444,-130.288c-4.248,92.866 -23.991,186.306 -70.367,280.55c-68.76,5.28 -137.404,10.56 -206.165,15.725c22.729,-36.733 43.047,-73.351 60.381,-109.854c-51.656,72.662 -115.939,137.864 -201.343,190.553c-0.803,-0.46 -1.607,-0.919 -2.411,-1.378c-60.151,-31.911 -120.3,-63.823 -180.336,-95.735c41.209,-20.318 80.124,-41.899 115.939,-65.202c-81.387,40.637 -170.694,68.186 -273.203,73.582c-38.226,-57.741 -76.335,-115.479 -114.561,-173.334c42.358,1.95 83.682,1.835 123.286,-0.69c-88.963,-6.658 -178.156,-28.354 -267.693,-74.729c-4.133,-69.333 -8.15,-138.552 -12.283,-207.887c33.06,21.466 66.005,40.865 98.95,57.855c-70.138,-51.541 -132.813,-115.479 -183.78,-199.621c32.372,-61.298 64.627,-122.596 96.998,-183.894c15.496,32.37 31.912,63.364 49.245,92.52c-32.6,-76.22 -53.836,-159.099 -56.821,-252.54c58.199,-37.306 116.284,-74.614 174.368,-111.92c-3.099,48.671 -3.674,95.964 -0.803,140.963c5.395,-94.13 26.746,-188.602 75.302,-283.305c68.76,-4.133 137.519,-8.15 206.28,-12.282c-20.203,31.681 -38.685,63.249 -54.986,94.702c50.509,-69.908 113.069,-132.813 195.375,-184.01c2.87,1.492 5.854,2.985 8.724,4.592c58.199,30.649 116.283,61.183 174.482,91.833c-46.49,23.187 -90.225,47.867 -129.714,74.957c87.815,-47.064 184.469,-79.435 296.85,-85.06c38.111,57.855 76.107,115.71 114.216,173.565c-65.775,-3.099 -128.679,-1.493 -187.109,7.117c117.89,2.525 235.206,25.713 351.03,92.751c1.034,69.333 2.067,138.782 3.099,208.115c-29.616,-21.121 -59.231,-40.522 -88.848,-57.969c60.609,49.131 114.906,108.707 159.559,184.24c-32.945,60.954 -65.775,121.907 -98.72,182.862c-19.399,-41.44 -40.176,-80.584 -62.676,-116.742c35.7,81.5 58.658,170.234 60.266,270.791c-58.659,36.504 -117.317,72.777 -175.975,109.167m174.367,-240.946l3.214,6.772c38.226,-70.71 76.45,-141.537 114.561,-212.248l-8.149,-13.546c-9.987,-16.3 -20.433,-32.141 -31.568,-47.637c-12.397,-16.76 -25.139,-32.946 -38.799,-48.672l5.854,-13.316c-1.033,-72.892 -2.066,-145.784 -3.214,-218.676l-17.448,-9.872c-11.02,-5.97 -22.155,-11.824 -33.29,-17.335l-44.538,-19.629l-44.654,-16.071l-63.249,-16.989l51.312,2.067c-44.08,-67.153 -88.275,-134.306 -132.469,-201.459l-18.137,1.148l-41.784,4.018l-50.393,8.265c-16.071,3.443 -31.912,7.346 -47.753,11.708l-6.314,-11.25c-61.414,-32.255 -122.711,-64.512 -184.01,-96.884c-3.099,-1.607 -6.199,-3.213 -9.298,-4.821l-14.118,8.839c-10.102,6.659 -20.089,13.431 -30.075,20.433c-14.234,10.445 -28.124,21.236 -41.785,32.6c-13.085,11.135 -25.713,22.613 -38.11,34.668l-13.546,-5.396c-72.318,4.362 -144.521,8.609 -216.725,12.856c-7.231,14.234 -14.119,28.354 -20.662,42.817c-6.544,15.038 -12.512,29.96 -18.137,45.228c-6.314,17.792 -11.823,35.47 -16.874,53.607l-14.579,0.345l-183.664,118.004l1.607,33.978l6.772,59.692l11.365,56.936l-9.298,8.035l-101.59,192.849l8.839,14.348l25.484,38.111l53.147,65.087l-2.18,-1.378c4.821,80.354 9.527,160.822 14.233,241.291c10.676,5.395 21.352,10.79 32.257,15.841c16.874,7.806 33.863,14.922 51.312,21.58c16.874,6.199 33.863,11.708 51.196,16.759l8.15,2.296l1.378,15.153c40.176,60.724 80.468,121.563 120.53,182.402c12.168,-0.803 24.336,-1.608 36.503,-2.641c37.079,-3.787 74.04,-9.871 110.2,-19.629l8.954,10.676l188.716,100.212l2.985,1.607l30.19,-19.399l44.653,-32.716l51.427,-45.685l-10.446,17.103l239.225,-18.251l7.576,-15.727l19.399,-44.997l12.971,-35.816c5.625,-17.563 10.561,-35.125 15.038,-53.032l7.462,-0.345c61.757,-38.341 123.515,-76.68 185.272,-114.791c-0.344,-15.268 -0.917,-30.305 -1.836,-45.343c-2.411,-31.567 -6.543,-62.791 -13.086,-93.784" style="fill:#f79768;fill-rule:nonzero;"/><path d="M450.261,325.478c2.838,-1.928 5.695,-3.827 8.575,-5.694c0.831,-0.54 1.669,-1.07 2.502,-1.604c2.122,-1.357 4.251,-2.703 6.396,-4.028c1.336,-0.828 2.681,-1.644 4.027,-2.459c1.641,-0.992 3.287,-1.976 4.941,-2.948c1.727,-1.018 3.461,-2.024 5.201,-3.019c1.263,-0.722 2.53,-1.434 3.8,-2.145c2.073,-1.16 4.153,-2.311 6.243,-3.441c0.896,-0.483 1.797,-0.958 2.696,-1.435c2.436,-1.296 4.881,-2.58 7.343,-3.835c0.444,-0.227 0.893,-0.446 1.338,-0.672c24.976,-12.633 51.193,-23.113 78.412,-31.2c0.025,-0.008 0.051,-0.015 0.076,-0.023c3.325,-0.987 6.664,-1.936 10.018,-2.851c0.204,-0.055 0.408,-0.112 0.611,-0.167c3.257,-0.884 6.527,-1.734 9.811,-2.549c0.134,-0.033 0.267,-0.071 0.402,-0.104c17.792,-19.284 40.291,-41.669 58.084,-53.951c-37.767,-12.399 -80.124,-19.745 -127.074,-22.041c-16.531,18.482 -27.436,36.159 -36.619,53.722c19.4,-3.328 38.8,-4.476 58.199,-2.41c0.23,7.232 0.46,14.578 0.688,21.81c-27.32,2.755 -54.525,8.265 -81.845,17.564c-6.544,12.855 -17.219,35.815 -26.402,55.214c0.775,-0.534 1.564,-1.045 2.341,-1.576c0.078,-0.053 0.158,-0.105 0.235,-0.158" style="fill:#f79768;fill-rule:nonzero;"/><path d="M828.101,161.913c-23.532,7.691 -41.784,17.564 -58.543,28.009c18.481,6.887 35.815,15.726 51.541,27.434c-3.444,6.314 -6.887,12.743 -10.217,19.055c-25.024,-11.364 -51.312,-20.432 -79.55,-26.173c-5.965,3.827 -13.947,9.256 -22.615,15.229c-9.012,6.21 -18.766,13.006 -27.779,19.209c9.233,-0.698 18.498,-1.099 27.779,-1.254c47.148,-0.786 94.753,5.465 141.078,19.276c25.024,-7.691 55.674,-15.726 77.14,-17.334c-26.516,-29.846 -59.461,-57.624 -98.835,-83.453" style="fill:#f79768;fill-rule:nonzero;"/><path d="M1059.489,391.765c0.703,0.739 1.397,1.488 2.095,2.232c0.686,0.738 1.386,1.46 2.069,2.204c25.369,6.314 55.673,15.268 74.959,25.024c-7.461,-39.374 -21.581,-80.239 -42.358,-122.711c-24.105,-5.625 -44.768,-6.544 -64.512,-6.199c12.397,15.496 22.728,32.027 30.304,50.163c-6.198,3.674 -12.397,7.347 -18.481,11.136c-15.726,-22.729 -33.748,-44.08 -54.985,-63.595c-14.349,0.459 -39.374,2.181 -60.724,3.559c48.521,24.481 93.279,57.432 131.634,98.186" style="fill:#f79768;fill-rule:nonzero;"/><path d="M1234.691,707.169c15.153,-36.963 25.713,-78.861 31.567,-125.81c-17.104,-18.137 -33.863,-30.305 -50.508,-40.982c1.836,19.744 1.492,39.374 -2.066,58.659c-7.117,-0.345 -14.349,-0.69 -21.581,-0.918c-0.688,-27.665 -4.018,-55.445 -11.134,-83.569c-12.283,-7.576 -34.093,-19.974 -52.689,-30.764c28.238,49.131 47.983,103.541 57.395,161.052c17.677,19.284 38.226,43.62 49.016,62.331" style="fill:#f79768;fill-rule:nonzero;"/><path d="M1196.466,903.922c-5.739,-4.362 -11.48,-8.725 -17.219,-13.086c14.808,-23.188 27.665,-48.098 37.537,-75.303c-5.855,-13.201 -16.989,-35.93 -26.287,-55.329c-4.248,56.592 -18.367,112.725 -42.817,165.643c3.903,25.943 7.117,57.74 5.509,79.32c33.29,-21.925 65.431,-50.622 96.655,-86.093c-4.019,-24.565 -11.021,-44.194 -18.827,-62.446c-9.527,17.334 -20.777,33.29 -34.552,47.294" style="fill:#f79768;fill-rule:nonzero;"/><path d="M974.919,1124.893c-10.446,24.106 -24.336,52.69 -37.193,70.138c39.832,-0.688 82.191,-7.806 127.303,-21.122c9.528,-22.958 14.006,-43.39 16.989,-63.02c-17.218,9.643 -35.125,17.104 -54.18,21.58c-2.526,-6.771 -5.166,-13.544 -7.691,-20.317c24.795,-11.708 48.786,-25.943 71.514,-43.62c1.951,-14.349 4.477,-39.489 6.887,-60.839c-33.405,45.572 -75.073,85.519 -123.63,117.201" style="fill:#f79768;fill-rule:nonzero;"/><path d="M708.719,1215.403c-16.716,10.746 -34.279,20.914 -48.441,26.692c15.073,9.003 31.219,17.224 48.441,24.678c21.863,9.462 45.463,17.684 70.826,24.682c20.089,-14.463 34.553,-29.386 47.409,-44.538c-19.745,-0.918 -38.914,-4.017 -57.396,-10.332c1.378,-7.116 2.641,-14.233 4.018,-21.35c27.206,3.099 55.1,3.788 83.682,0.688c9.183,-11.134 24.451,-31.222 37.652,-48.211c-52.23,21.237 -108.477,33.174 -166.333,34.437c-6.278,4.343 -12.999,8.846 -19.859,13.255" style="fill:#f79768;fill-rule:nonzero;"/><path d="M325.776,997.706c-24.22,-9.758 -53.034,-22.843 -70.826,-35.012c2.066,39.948 10.56,82.42 25.369,127.189c23.073,8.839 43.505,12.628 63.02,15.038c-10.102,-17.104 -18.137,-34.781 -23.188,-53.722c6.658,-2.87 13.2,-5.739 19.859,-8.494c12.513,24.565 27.434,48.096 45.801,70.366c14.349,1.492 39.374,3.214 60.724,4.822c-46.49,-32.028 -87.585,-72.434 -120.76,-120.186" style="fill:#f79768;fill-rule:nonzero;"/><path d="M259.389,858.577c-6.671,-22.683 -11.711,-46.058 -14.987,-69.988c-16.97,-19.75 -36.282,-44.32 -46.388,-63.282c-16.414,36.503 -28.238,78.173 -35.585,124.893c16.414,18.596 32.83,31.338 49.131,42.472c-1.263,-19.744 -0.23,-39.373 3.903,-58.543c7.232,0.575 14.348,1.148 21.58,1.723c-0.115,27.549 2.296,55.443 8.495,83.797c11.938,7.92 33.518,21.121 51.656,32.37c-15.748,-29.527 -28.458,-60.832 -37.805,-93.442" style="fill:#f79768;fill-rule:nonzero;"/><path d="M221.891,585.147c6.084,3.903 12.168,7.691 18.252,11.595c-12.858,24.335 -23.647,50.278 -31.223,78.172c7.002,12.743 19.974,34.323 30.879,52.919c-0.207,-25.556 1.611,-51.203 5.477,-76.683c0.187,-1.242 0.392,-2.477 0.589,-3.717c0.354,-2.215 0.712,-4.431 1.097,-6.643c0.38,-2.198 0.782,-4.386 1.192,-6.574c0.215,-1.146 0.432,-2.292 0.656,-3.436c0.572,-2.937 1.171,-5.864 1.797,-8.781c0.05,-0.231 0.101,-0.462 0.15,-0.693c4.602,-21.324 10.591,-42.135 17.919,-62.309c-5.953,-25.559 -11.89,-56.671 -12.005,-78.308c-31.338,24.565 -61.069,55.903 -89.193,93.784c5.97,24.22 14.579,43.162 23.876,60.724c8.037,-18.137 17.907,-35.011 30.535,-50.049" style="fill:#f79768;fill-rule:nonzero;"/><path d="M287.207,446.479c0.46,14.464 2.181,39.717 3.444,61.184c25.253,-50.737 59.576,-97.228 102.049,-136.716c6.313,-25.483 15.266,-56.133 24.91,-75.532c-39.03,7.576 -79.666,21.809 -121.793,42.587c-5.625,24.221 -6.544,45.113 -6.199,64.972c15.268,-12.398 31.797,-22.843 49.704,-30.534c3.673,6.313 7.462,12.512 11.135,18.711c-22.615,15.841 -43.85,33.863 -63.25,55.329" style="fill:#f79768;fill-rule:nonzero;"/><path d="M409.229,1144.523c19.63,34.896 45.916,69.104 79.091,102.623c24.566,-2.296 44.425,-8.035 63.02,-14.808c-16.531,-10.675 -31.682,-22.958 -44.54,-37.766c4.707,-5.511 9.298,-11.02 14.006,-16.531c22.039,16.531 45.915,30.994 72.203,42.703c13.431,-5.051 36.618,-14.808 56.478,-22.958c-55.789,-7.807 -110.43,-25.714 -161.282,-53.608c-25.943,2.067 -57.625,3.329 -78.976,0.345" style="fill:#f79768;fill-rule:nonzero;"/></g></svg>