<?xml version="1.0" encoding="UTF-8" standalone="no"?><!DOCTYPE svg PUBLIC "-//W3C//DTD SVG 1.1//EN" "http://www.w3.org/Graphics/SVG/1.1/DTD/svg11.dtd"><svg width="100%" height="100%" viewBox="0 0 512 512" version="1.1" xmlns="http://www.w3.org/2000/svg" xmlns:xlink="http://www.w3.org/1999/xlink" xml:space="preserve" xmlns:serif="http://www.serif.com/" style="fill-rule:evenodd;clip-rule:evenodd;stroke-linejoin:round;stroke-miterlimit:2;"><path d="M302.647,271.857c-0.142,0.14 -0.366,0.177 -0.508,0.317c-0.139,0.137 -0.171,0.36 -0.312,0.495c-0.144,0.139 -0.377,0.163 -0.519,0.304c-0.139,0.139 -0.156,0.374 -0.298,0.51c-0.146,0.14 -0.387,0.148 -0.533,0.288c-0.136,0.13 -0.136,0.367 -0.278,0.489c-0.106,0.092 -0.199,-0.092 -1.499,0.906c-0.177,0.136 -0.399,0.208 -0.57,0.351c-0.138,0.115 -0.208,0.298 -0.345,0.415c-0.158,0.134 -0.376,0.188 -0.529,0.328c-0.132,0.121 -0.169,0.328 -0.309,0.44c-0.11,0.088 -0.189,-0.073 -1.507,0.911c-1.01,0.754 -1.024,0.709 -2.103,1.355c-0.077,0.046 -0.504,0.302 -0.925,0.624c-0.131,0.1 -0.186,0.285 -0.327,0.371c-0.387,0.237 -0.838,0.355 -1.231,0.582c-0.125,0.072 -0.186,0.225 -0.305,0.306c-0.193,0.13 -0.439,0.175 -0.621,0.32c-0.134,0.106 -0.156,0.327 -0.303,0.414c-0.392,0.233 -0.867,0.298 -1.266,0.519c-0.121,0.067 -0.125,0.279 -0.255,0.326c-0.138,0.05 -0.295,-0.122 -0.433,-0.074c-0.128,0.045 -0.14,0.245 -0.256,0.315c-0.21,0.127 -0.48,0.129 -0.689,0.257c-0.114,0.07 -0.122,0.272 -0.249,0.316c-0.143,0.049 -0.305,-0.126 -0.448,-0.077c-0.126,0.043 -0.133,0.246 -0.247,0.315c-0.211,0.126 -0.485,0.121 -0.694,0.249c-0.115,0.07 -0.114,0.282 -0.242,0.324c-0.148,0.05 -0.311,-0.136 -0.46,-0.089c-0.124,0.039 -0.121,0.254 -0.239,0.308c-0.457,0.209 -0.968,0.276 -1.436,0.459c-0.102,0.04 -0.158,0.158 -0.258,0.202c-2.196,0.97 -2.226,0.876 -6.287,2.257c-2.078,0.707 -2.113,0.551 -4.217,1.212c-0.256,0.081 -0.277,-0.014 -3.266,0.787c-0.785,0.21 -3.833,0.481 -3.964,0.509c-1.337,0.294 -1.316,0.538 -8.226,0.702c-1.235,0.029 -7.785,-0.024 -9.753,-0.419c-3.303,-0.663 -3.327,-0.462 -6.614,-1.237c-5.541,-1.305 -5.5,-1.414 -8.947,-2.607c-1.576,-0.546 -1.569,-0.526 -3.105,-1.204c-0.1,-0.044 -0.156,-0.162 -0.257,-0.202c-0.468,-0.183 -0.979,-0.25 -1.437,-0.459c-0.118,-0.054 -0.116,-0.268 -0.24,-0.307c-0.149,-0.047 -0.311,0.138 -0.459,0.088c-0.128,-0.043 -0.127,-0.253 -0.242,-0.324c-0.21,-0.128 -0.483,-0.123 -0.694,-0.25c-0.114,-0.068 -0.121,-0.271 -0.247,-0.314c-0.143,-0.049 -0.304,0.126 -0.448,0.076c-0.127,-0.043 -0.135,-0.246 -0.249,-0.315c-0.209,-0.128 -0.479,-0.13 -0.689,-0.257c-0.116,-0.07 -0.128,-0.271 -0.256,-0.315c-0.138,-0.048 -0.296,0.124 -0.433,0.074c-0.129,-0.047 -0.139,-0.251 -0.255,-0.326c-0.2,-0.13 -0.464,-0.136 -0.662,-0.27c-0.127,-0.086 -0.155,-0.276 -0.279,-0.366c-0.566,-0.415 -0.66,-0.22 -1.248,-0.617c-0.119,-0.081 -0.184,-0.227 -0.305,-0.305c-0.198,-0.127 -0.443,-0.17 -0.637,-0.302c-0.125,-0.084 -0.181,-0.248 -0.304,-0.335c-0.282,-0.199 -0.363,-0.065 -3.645,-2.295c-0.127,-0.086 -0.2,-0.238 -0.327,-0.326c-0.187,-0.129 -0.424,-0.177 -0.603,-0.316c-0.132,-0.102 -0.182,-0.286 -0.312,-0.39c-0.17,-0.137 -0.403,-0.182 -0.572,-0.32c-0.135,-0.11 -0.183,-0.307 -0.322,-0.412c-0.349,-0.264 -0.764,-0.43 -1.122,-0.682c-0.129,-0.091 -0.201,-0.248 -0.329,-0.339c-0.182,-0.129 -0.42,-0.172 -0.591,-0.315c-0.136,-0.114 -0.172,-0.321 -0.307,-0.437c-0.159,-0.137 -0.397,-0.161 -0.551,-0.304c-0.141,-0.13 -0.167,-0.354 -0.305,-0.486c-0.147,-0.141 -0.378,-0.171 -0.527,-0.311c-0.139,-0.131 -0.176,-0.347 -0.313,-0.479c-0.146,-0.141 -0.37,-0.181 -0.517,-0.321c-0.138,-0.13 -0.185,-0.338 -0.322,-0.47c-0.146,-0.14 -0.363,-0.19 -0.51,-0.329c-0.138,-0.131 -0.186,-0.341 -0.33,-0.466c-0.298,-0.259 -0.681,-0.41 -0.978,-0.671c-0.147,-0.129 -0.196,-0.344 -0.334,-0.483c-0.136,-0.137 -0.34,-0.193 -0.474,-0.332c-0.138,-0.143 -0.187,-0.357 -0.327,-0.498c-0.136,-0.138 -0.349,-0.183 -0.483,-0.323c-0.138,-0.144 -0.175,-0.367 -0.315,-0.509c-0.138,-0.139 -0.362,-0.169 -0.498,-0.31c-0.139,-0.145 -0.161,-0.378 -0.302,-0.521c-0.139,-0.14 -0.376,-0.154 -0.512,-0.296c-0.14,-0.146 -0.146,-0.389 -0.286,-0.535c-0.13,-0.136 -0.369,-0.133 -0.492,-0.276c-0.091,-0.106 0.087,-0.215 -0.899,-1.503c-0.136,-0.178 -0.203,-0.404 -0.347,-0.576c-0.116,-0.138 -0.305,-0.203 -0.422,-0.34c-0.135,-0.158 -0.182,-0.381 -0.323,-0.533c-0.122,-0.133 -0.336,-0.162 -0.449,-0.302c-0.088,-0.11 0.078,-0.193 -0.905,-1.509c-0.752,-1.007 -0.7,-1.028 -1.343,-2.112c-0.046,-0.077 -0.303,-0.511 -0.625,-0.926c-0.102,-0.132 -0.298,-0.177 -0.385,-0.319c-0.102,-0.167 -3.981,-7.658 -4.156,-8.019c-0.214,-0.442 -0.352,-0.918 -0.567,-1.36c-0.03,-0.061 -0.199,0.012 -0.712,-1.698c-0.708,-2.361 -0.936,-2.257 -1.125,-2.654c-0.114,-0.239 -0.071,-0.253 -1.023,-3.152c-0.084,-0.255 0.089,-0.297 -0.827,-3.257c-0.614,-1.985 -0.312,-2.041 -0.835,-4.065c-0.234,-0.907 -0.469,-3.8 -0.505,-3.968c-0.192,-0.899 -0.445,-0.863 -0.627,-7.413c-0.022,-0.777 -0.18,-6.509 0.52,-9.705c0.254,-1.156 0.556,-4.392 1.385,-7.402c1.371,-4.975 1.358,-4.965 3.084,-9.845c0.167,-0.471 0.263,-0.968 0.458,-1.428c0.048,-0.113 0.205,-0.152 0.259,-0.263c0.216,-0.44 0.327,-0.927 0.541,-1.368c0.055,-0.113 0.2,-0.163 0.256,-0.275c0.217,-0.438 0.338,-0.92 0.553,-1.359c0.055,-0.112 0.193,-0.167 0.249,-0.279c0.217,-0.437 0.344,-0.916 0.561,-1.353c0.056,-0.113 0.192,-0.173 0.249,-0.285c0.22,-0.429 0.348,-0.902 0.576,-1.328c0.065,-0.12 0.218,-0.173 0.291,-0.288c0.126,-0.199 0.166,-0.447 0.299,-0.642c0.085,-0.125 0.252,-0.177 0.34,-0.3c0.083,-0.117 0.064,-0.128 0.93,-1.542c0.382,-0.623 0.21,-0.692 0.591,-1.299c0.074,-0.119 0.231,-0.169 0.308,-0.286c0.128,-0.195 0.158,-0.445 0.296,-0.634c0.096,-0.131 0.284,-0.172 0.385,-0.3c0.137,-0.174 0.176,-0.413 0.315,-0.586c0.109,-0.136 0.308,-0.18 0.413,-0.319c0.264,-0.351 0.429,-0.77 0.679,-1.131c0.088,-0.127 0.241,-0.199 0.329,-0.326c0.129,-0.187 0.175,-0.425 0.314,-0.605c0.102,-0.132 0.288,-0.181 0.392,-0.31c0.137,-0.17 0.18,-0.404 0.319,-0.573c0.113,-0.137 0.304,-0.191 0.421,-0.324c0.128,-0.146 0.035,-0.207 1.475,-1.932c0.106,-0.127 0.267,-0.202 0.365,-0.335c0.13,-0.177 0.164,-0.418 0.309,-0.583c0.12,-0.136 0.34,-0.155 0.46,-0.292c0.138,-0.158 0.142,-0.407 0.285,-0.561c0.132,-0.142 0.369,-0.15 0.504,-0.29c0.142,-0.148 0.155,-0.39 0.296,-0.54c0.133,-0.141 0.361,-0.163 0.496,-0.302c0.141,-0.145 0.167,-0.378 0.309,-0.523c0.258,-0.265 0.406,-0.12 0.816,-0.813c0.101,-0.171 0.15,-0.38 0.292,-0.518c0.145,-0.141 0.392,-0.143 0.534,-0.286c0.141,-0.142 0.135,-0.392 0.279,-0.531c0.147,-0.142 0.403,-0.127 0.55,-0.269c0.138,-0.132 0.116,-0.385 0.26,-0.511c0.145,-0.127 0.353,0.206 2.051,-1.271c0.069,-0.06 0.541,-0.471 0.856,-0.769c0.135,-0.127 0.199,-0.319 0.339,-0.441c0.154,-0.135 0.376,-0.178 0.526,-0.317c0.132,-0.123 0.16,-0.337 0.301,-0.451c0.11,-0.088 0.207,0.078 1.51,-0.904c0.18,-0.135 0.407,-0.201 0.579,-0.346c0.138,-0.116 0.201,-0.307 0.338,-0.424c0.158,-0.135 0.383,-0.178 0.536,-0.319c0.132,-0.122 0.145,-0.354 0.297,-0.452c0.374,-0.243 0.839,-0.315 1.227,-0.535c0.123,-0.069 0.159,-0.243 0.278,-0.318c0.783,-0.495 0.843,-0.349 1.62,-0.868c0.193,-0.129 0.429,-0.188 0.613,-0.331c0.132,-0.103 0.173,-0.303 0.316,-0.39c0.389,-0.236 0.849,-0.334 1.245,-0.557c0.12,-0.067 0.158,-0.238 0.28,-0.303c0.426,-0.227 0.907,-0.34 1.338,-0.56c0.114,-0.058 0.164,-0.206 0.278,-0.263c1.478,-0.729 1.519,-0.614 2.999,-1.347c0.114,-0.057 0.153,-0.217 0.268,-0.273c0.442,-0.214 0.936,-0.307 1.376,-0.524c0.113,-0.055 0.134,-0.24 0.253,-0.278c0.15,-0.048 0.32,0.095 0.471,0.048c0.112,-0.035 0.12,-0.223 0.229,-0.267c0.191,-0.077 0.209,0.011 2.432,-0.847c0.308,-0.119 0.313,-0.099 3.933,-1.257c2.091,-0.669 2.118,-0.536 4.215,-1.189c0.097,-0.03 5.365,-1.031 5.657,-1.066c2.071,-0.246 2.078,-0.125 4.127,-0.521c1.624,-0.314 9.844,-0.379 12.164,0c2.847,0.465 2.876,0.174 5.71,0.779c7.078,1.511 7.101,1.402 13.918,3.89c0.24,0.087 0.507,0.098 0.735,0.212c0.105,0.052 0.117,0.232 0.229,0.267c0.151,0.047 0.321,-0.096 0.472,-0.048c0.119,0.038 0.141,0.223 0.253,0.278c0.44,0.217 0.934,0.31 1.376,0.524c0.115,0.056 0.154,0.216 0.268,0.273c0.438,0.217 0.927,0.322 1.366,0.537c0.114,0.056 0.158,0.208 0.272,0.265c0.438,0.217 0.923,0.329 1.361,0.545c0.114,0.056 0.164,0.205 0.278,0.263c0.431,0.219 0.911,0.332 1.338,0.559c0.121,0.065 0.164,0.229 0.279,0.303c0.199,0.127 0.451,0.157 0.647,0.29c0.126,0.086 0.17,0.261 0.293,0.349c0.567,0.407 0.646,0.245 1.234,0.638c0.777,0.519 0.837,0.373 1.62,0.868c0.119,0.075 0.16,0.241 0.278,0.319c0.195,0.129 0.451,0.15 0.64,0.287c0.132,0.096 0.166,0.289 0.293,0.39c0.174,0.138 0.417,0.17 0.591,0.309c0.136,0.109 0.176,0.312 0.316,0.417c0.353,0.264 0.775,0.422 1.138,0.672c0.127,0.088 0.194,0.247 0.321,0.335c0.187,0.129 0.428,0.17 0.608,0.309c0.132,0.102 0.175,0.292 0.305,0.397c0.17,0.137 0.407,0.175 0.576,0.314c0.136,0.112 0.187,0.306 0.319,0.423c0.146,0.128 0.205,0.019 1.942,1.468c0.127,0.106 0.2,0.269 0.333,0.367c0.178,0.13 0.42,0.162 0.585,0.307c0.137,0.12 0.152,0.344 0.289,0.463c0.158,0.138 0.409,0.139 0.564,0.282c0.142,0.132 0.147,0.371 0.287,0.506c0.148,0.143 0.393,0.153 0.542,0.293c0.141,0.132 0.161,0.362 0.3,0.497c0.146,0.142 0.38,0.166 0.526,0.307c0.282,0.273 0.139,0.414 0.815,0.813c0.171,0.101 0.379,0.151 0.517,0.293c0.141,0.144 0.144,0.39 0.287,0.533c0.141,0.141 0.391,0.137 0.529,0.281c0.142,0.147 0.129,0.402 0.27,0.549c0.132,0.138 0.384,0.118 0.509,0.261c0.127,0.145 -0.206,0.354 1.274,2.048c0.566,0.648 0.644,0.551 1.21,1.195c0.135,0.154 0.183,0.372 0.321,0.522c0.122,0.132 0.332,0.165 0.445,0.306c0.088,0.11 -0.071,0.205 0.909,1.508c0.135,0.179 0.205,0.404 0.349,0.576c0.115,0.138 0.302,0.205 0.418,0.342c0.134,0.158 0.183,0.38 0.324,0.533c0.121,0.132 0.347,0.152 0.445,0.302c0.244,0.372 0.33,0.831 0.551,1.217c0.07,0.122 0.234,0.167 0.309,0.286c0.496,0.789 0.36,0.852 0.871,1.617c0.129,0.192 0.196,0.424 0.337,0.607c0.101,0.131 0.292,0.181 0.378,0.323c0.237,0.388 0.349,0.842 0.573,1.237c0.067,0.119 0.227,0.167 0.292,0.288c0.228,0.425 0.356,0.898 0.575,1.328c0.058,0.112 0.194,0.172 0.25,0.285c0.729,1.476 0.628,1.51 1.362,2.992c0.056,0.112 0.202,0.162 0.257,0.275c0.873,1.801 1.181,2.806 1.258,3.059c0.208,0.68 2.22,6.222 2.454,7.348c0.264,1.266 0.237,1.262 0.63,2.497c0.17,0.533 0.32,1.429 0.341,1.555c0.328,1.953 0.553,1.899 0.752,4.108c0.332,3.699 1.076,4.71 0.728,13.888c-0.14,3.704 -0.385,3.669 -0.787,7.351c-0.21,1.925 -1.98,9.243 -2.119,9.645c-0.773,2.236 -0.738,2.229 -0.825,2.413c-0.049,0.103 -0.189,0.146 -0.236,0.25c-0.266,0.59 -1.043,2.882 -1.129,3.135c-0.012,0.035 -2.27,5.048 -3.74,7.513c-0.369,0.62 -0.206,0.685 -0.591,1.306c-0.073,0.118 -0.226,0.169 -0.301,0.286c-0.127,0.199 -0.161,0.449 -0.294,0.643c-0.086,0.125 -0.258,0.172 -0.346,0.296c-0.734,1.026 -0.521,1.142 -1.249,2.17c-0.092,0.13 -0.263,0.19 -0.353,0.321c-0.255,0.37 -0.422,0.795 -0.673,1.168c-0.086,0.128 -0.245,0.195 -0.333,0.322c-0.129,0.187 -0.171,0.427 -0.31,0.607c-0.102,0.132 -0.292,0.176 -0.396,0.306c-0.137,0.17 -0.176,0.407 -0.314,0.576c-0.111,0.135 -0.312,0.178 -0.417,0.317c-0.264,0.351 -0.423,0.772 -0.675,1.132c-0.09,0.129 -0.252,0.196 -0.343,0.324c-0.13,0.183 -0.166,0.425 -0.309,0.597c-0.114,0.136 -0.323,0.167 -0.439,0.302c-0.137,0.159 -0.157,0.401 -0.3,0.556c-0.13,0.141 -0.356,0.164 -0.489,0.302c-0.141,0.147 -0.169,0.381 -0.309,0.529c-0.131,0.139 -0.349,0.174 -0.481,0.311c-0.141,0.146 -0.179,0.371 -0.319,0.519c-0.13,0.138 -0.34,0.183 -0.472,0.32c-0.14,0.146 -0.188,0.365 -0.327,0.512c-0.13,0.138 -0.334,0.191 -0.466,0.328c-0.14,0.145 -0.195,0.357 -0.335,0.502c-0.135,0.14 -0.348,0.191 -0.477,0.337c-0.258,0.291 -0.409,0.667 -0.67,0.955c-0.206,0.227 -0.278,0.113 -0.496,0.328c-0.209,0.206 -0.109,0.269 -0.324,0.481Zm-61.229,-10.298c0.307,-3.557 0.599,-3.495 1.506,-8.054c0.895,-4.497 2.058,-8.446 2.656,-10.748c5.234,-20.128 9.222,-28.297 6.898,-29.391c-3.262,-1.536 -8.777,5.405 -11.574,7.328c-2.421,1.664 -3.566,-0.319 -3.727,-0.774c-0.508,-1.433 1.148,-2.902 3.074,-4.734c5.296,-5.034 5.496,-4.789 6.588,-5.591c4.144,-3.043 6.209,-3.663 6.278,-3.698c9.204,-4.592 12.945,-1.495 13.395,1.007c0.774,4.304 -14.391,48.351 -13.221,54.68c0.92,4.974 6.311,-0.613 11.058,-4.414c0.506,-0.405 2.921,-3.117 4.654,-1.637c2.21,1.887 -1.175,4.291 -1.659,4.72c-2.443,2.166 -14.114,13.618 -21.421,12.515c-6.674,-1.007 -4.741,-9.09 -4.504,-11.209Zm15.495,-76.702c0.075,-0.323 0.603,-2.58 1.392,-3.903c3.303,-5.535 9.787,-7.453 14.419,-4.078c4.186,3.05 4.547,8.711 4.238,10.508c-0.699,4.069 -1.892,5.683 -4.309,7.991c-5.029,4.804 -13.176,2.733 -15.199,-3.971c-1.092,-3.618 -0.857,-4.058 -0.541,-6.546Z" style="fill:#337bcc;"/><path d="M182.603,335.341c0.208,-0.209 0.27,-0.11 0.484,-0.326c0.212,-0.214 0.114,-0.274 0.328,-0.493c0.136,-0.139 0.341,-0.194 0.478,-0.332c0.139,-0.14 0.197,-0.347 0.334,-0.488c0.135,-0.138 0.335,-0.2 0.471,-0.338c0.138,-0.14 0.203,-0.341 0.34,-0.482c0.135,-0.138 0.33,-0.206 0.466,-0.343c0.138,-0.14 0.208,-0.337 0.345,-0.477c0.134,-0.138 0.325,-0.212 0.46,-0.349c0.138,-0.14 0.214,-0.332 0.35,-0.473c3.084,-3.168 3.385,-3.376 3.726,-3.611c0.488,-0.337 0.415,-0.392 0.851,-0.777c0.157,-0.138 0.38,-0.186 0.535,-0.327c0.135,-0.123 0.178,-0.329 0.316,-0.449c0.141,-0.123 0.141,-0.112 1.457,-1.051c0.936,-0.668 0.789,-0.824 1.746,-1.464c0.483,-0.323 0.408,-0.384 0.852,-0.775c0.157,-0.138 0.385,-0.181 0.539,-0.323c0.135,-0.124 0.171,-0.335 0.31,-0.455c0.162,-0.141 0.403,-0.168 0.567,-0.305c0.132,-0.111 0.166,-0.313 0.301,-0.42c0.178,-0.141 0.424,-0.174 0.612,-0.304c0.125,-0.086 0.188,-0.245 0.311,-0.334c0.567,-0.408 0.661,-0.222 1.217,-0.634c0.125,-0.093 0.168,-0.274 0.295,-0.364c0.191,-0.135 0.442,-0.164 0.636,-0.294c0.123,-0.082 0.173,-0.251 0.299,-0.328c0.393,-0.24 0.854,-0.36 1.24,-0.612c0.132,-0.086 0.154,-0.289 0.282,-0.38c0.192,-0.136 0.451,-0.149 0.647,-0.279c0.119,-0.079 0.142,-0.273 0.273,-0.329c0.114,-0.049 0.254,0.1 0.369,0.053c0.136,-0.057 0.173,-0.246 0.295,-0.33c1.041,-0.711 1.145,-0.512 2.166,-1.252c0.125,-0.09 0.179,-0.259 0.305,-0.347c0.187,-0.129 0.191,-0.117 2.247,-1.18c0.113,-0.058 0.18,-0.187 0.293,-0.245c0.433,-0.22 0.901,-0.365 1.335,-0.584c0.981,-0.495 0.922,-0.566 1.92,-1.058c1.484,-0.731 1.516,-0.633 3.003,-1.35c0.109,-0.053 0.16,-0.192 0.269,-0.243c0.448,-0.208 0.941,-0.308 1.385,-0.524c0.112,-0.054 0.137,-0.233 0.255,-0.271c0.147,-0.048 0.315,0.087 0.462,0.039c0.113,-0.037 0.131,-0.213 0.237,-0.266c0.227,-0.115 0.49,-0.138 0.729,-0.225c7.636,-2.801 7.666,-2.694 15.563,-4.683c2.88,-0.726 8.778,-1.28 10.603,-1.594c3.281,-0.564 18.06,-0.475 20.315,0c4.029,0.85 4.173,0.226 6.52,0.811c1.249,0.312 1.232,0.316 2.511,0.485c0.127,0.017 1.031,0.136 1.573,0.294c2.981,0.867 3.012,0.712 3.269,0.791c2.964,0.906 3,0.742 3.255,0.828c2.255,0.768 2.263,0.715 2.457,0.783c7.352,2.595 7.408,2.427 8.011,2.736c0.109,0.056 0.145,0.211 0.256,0.265c0.443,0.215 0.934,0.32 1.38,0.53c0.111,0.052 0.162,0.193 0.272,0.246c0.443,0.215 0.925,0.341 1.37,0.551c0.109,0.051 0.171,0.175 0.279,0.228c0.834,0.406 0.829,0.383 1.647,0.795c2.702,1.359 2.725,1.3 2.958,1.42c0.114,0.059 0.178,0.192 0.292,0.251c0.43,0.22 0.902,0.353 1.33,0.578c0.117,0.061 0.175,0.206 0.291,0.271c0.396,0.225 0.842,0.353 1.229,0.592c0.141,0.087 0.2,0.269 0.331,0.371c0.229,0.178 0.3,0.064 3.042,1.972c0.767,0.534 0.837,0.382 1.61,0.888c0.12,0.079 0.16,0.248 0.28,0.328c0.579,0.385 0.701,0.118 1.242,0.532c0.14,0.107 0.159,0.325 0.295,0.437c0.179,0.147 0.433,0.178 0.621,0.313c0.123,0.088 0.17,0.259 0.295,0.344c0.563,0.382 0.693,0.108 1.224,0.532c0.142,0.113 0.16,0.334 0.292,0.458c0.148,0.139 0.373,0.174 0.524,0.31c0.14,0.127 0.194,0.33 0.33,0.462c0.144,0.139 0.35,0.202 0.498,0.338c0.138,0.128 0.213,0.313 0.349,0.443c0.12,0.115 0.118,0.105 1.393,1.136c1.279,1.034 1.392,0.833 1.499,0.924c0.142,0.121 0.151,0.351 0.286,0.479c0.147,0.14 0.381,0.16 0.529,0.298c0.141,0.132 0.175,0.353 0.313,0.488c0.143,0.141 0.363,0.184 0.51,0.321c0.139,0.13 0.196,0.333 0.332,0.465c0.144,0.14 0.349,0.203 0.496,0.339c0.138,0.128 0.213,0.314 0.349,0.444c2.703,2.591 2.755,2.542 3.274,3.257c0.342,0.471 0.393,0.407 0.794,0.836c0.138,0.147 0.2,0.355 0.339,0.501c0.13,0.136 0.327,0.197 0.456,0.334c0.138,0.147 0.194,0.36 0.333,0.506c0.131,0.137 0.334,0.189 0.464,0.327c0.139,0.148 0.186,0.367 0.326,0.513c0.132,0.137 0.342,0.181 0.472,0.319c0.139,0.148 0.177,0.374 0.318,0.521c0.132,0.138 0.351,0.171 0.482,0.31c0.14,0.149 0.165,0.383 0.307,0.531c0.133,0.138 0.36,0.16 0.491,0.3c0.142,0.153 0.161,0.394 0.298,0.551c0.118,0.136 0.329,0.168 0.446,0.304c0.059,0.069 0.02,0.095 0.661,0.917c0.412,0.53 0.262,0.616 0.687,1.126c0.109,0.131 0.295,0.185 0.4,0.32c0.103,0.132 2.453,3.62 2.666,3.935c0.084,0.125 0.233,0.198 0.316,0.323c0.246,0.372 0.404,0.8 0.668,1.159c0.101,0.138 0.303,0.174 0.408,0.308c0.138,0.176 0.162,0.423 0.302,0.597c0.102,0.128 0.303,0.152 0.402,0.283c0.143,0.189 0.164,0.451 0.301,0.645c0.076,0.108 0.288,0.108 0.318,0.236c0.049,0.213 -0.122,0.427 -0.114,0.646c0.008,0.222 0.218,0.431 0.161,0.646c-0.041,0.156 -0.287,0.156 -0.403,0.268c-0.131,0.126 -0.181,0.327 -0.326,0.436c-0.346,0.261 -0.775,0.398 -1.123,0.657c-0.14,0.104 -0.182,0.307 -0.318,0.417c-0.17,0.138 -0.408,0.176 -0.578,0.313c-0.13,0.104 -0.172,0.295 -0.304,0.397c-0.18,0.139 -0.423,0.178 -0.61,0.307c-0.127,0.088 -0.193,0.248 -0.32,0.335c-0.363,0.25 -0.788,0.405 -1.141,0.669c-0.14,0.105 -0.178,0.309 -0.314,0.419c-0.17,0.139 -0.41,0.172 -0.58,0.31c-0.13,0.105 -0.168,0.299 -0.3,0.401c-0.18,0.139 -0.425,0.174 -0.613,0.304c-0.127,0.088 -0.187,0.253 -0.315,0.338c-1.052,0.696 -1.08,0.632 -2.128,1.318c-0.122,0.08 -0.189,0.226 -0.309,0.308c-0.576,0.395 -0.663,0.21 -1.233,0.628c-0.125,0.092 -0.163,0.274 -0.29,0.363c-0.193,0.134 -0.447,0.159 -0.644,0.288c-0.118,0.077 -0.162,0.239 -0.28,0.314c-0.612,0.388 -0.688,0.209 -1.299,0.588c-2.622,1.626 -2.536,1.746 -2.77,1.875c-0.42,0.232 -0.884,0.374 -1.309,0.596c-0.817,0.427 -0.81,0.417 -1.624,0.836c-1.305,0.671 -1.133,0.898 -1.247,0.949c-0.108,0.048 -0.234,-0.132 -0.343,-0.087c-0.133,0.054 -0.148,0.261 -0.27,0.337c-0.205,0.128 -0.474,0.126 -0.677,0.257c-0.117,0.075 -0.114,0.291 -0.245,0.337c-0.143,0.05 -0.301,-0.143 -0.444,-0.095c-0.131,0.045 -0.133,0.258 -0.25,0.331c-0.207,0.129 -0.48,0.125 -0.687,0.254c-0.116,0.072 -0.12,0.281 -0.249,0.327c-0.14,0.05 -0.298,-0.132 -0.439,-0.083c-0.129,0.045 -0.137,0.251 -0.254,0.323c-0.207,0.129 -0.477,0.131 -0.685,0.259c-0.115,0.07 -0.125,0.271 -0.251,0.316c-0.14,0.05 -0.3,-0.116 -0.441,-0.069c-0.124,0.041 -0.138,0.235 -0.251,0.299c-0.219,0.123 -0.48,0.151 -0.714,0.241c-0.191,0.074 -1.91,0.739 -2.379,0.956c-0.107,0.05 -0.159,0.183 -0.266,0.231c-0.453,0.202 -0.95,0.297 -1.398,0.512c-0.112,0.054 -0.129,0.241 -0.247,0.277c-0.152,0.047 -0.323,-0.102 -0.476,-0.054c-0.113,0.035 -0.122,0.219 -0.228,0.273c-0.226,0.116 -0.493,0.127 -0.731,0.216c-0.192,0.072 -1.875,0.701 -2.386,0.941c-0.11,0.051 -0.141,0.215 -0.253,0.261c-0.462,0.193 -0.963,0.278 -1.436,0.442c-3.664,1.273 -3.693,1.144 -7.389,2.304c-7.934,2.49 -15.282,3.539 -15.453,3.552c-2.48,0.188 -2.432,0.435 -4.903,0.704c-4.537,0.493 -4.516,0.593 -4.911,0.627c-6.358,0.549 -17.254,0.143 -18.753,0.087c-2.884,-0.107 -2.841,-0.377 -5.731,-0.583c-0.258,-0.018 -2.274,-0.161 -3.205,-0.384c-3.369,-0.805 -3.457,-0.215 -5.708,-0.808c-3.704,-0.977 -3.748,-0.746 -4.067,-0.839c-2.98,-0.868 -3.01,-0.72 -3.268,-0.796c-2.109,-0.621 -2.129,-0.49 -4.224,-1.159c-5.887,-1.879 -5.893,-1.847 -6.397,-2.032c-3.274,-1.198 -3.344,-0.98 -6.533,-2.415c-1.175,-0.529 -1.206,-0.408 -2.405,-0.919c-0.11,-0.047 -0.126,-0.229 -0.239,-0.266c-0.146,-0.048 -0.314,0.084 -0.46,0.037c-0.117,-0.038 -0.144,-0.215 -0.255,-0.268c-0.445,-0.215 -0.938,-0.318 -1.387,-0.524c-0.107,-0.049 -0.584,-0.523 -2.64,-1.208c-0.884,-0.294 -0.795,-0.451 -1.625,-0.856c-0.738,-0.36 -0.667,-0.446 -0.934,-0.585c-4.159,-2.167 -4.217,-2.047 -4.569,-2.252c-0.114,-0.066 -0.165,-0.214 -0.278,-0.281c-0.634,-0.378 -0.716,-0.169 -1.347,-0.545c-0.116,-0.069 -0.151,-0.237 -0.27,-0.303c-0.398,-0.223 -0.863,-0.315 -1.255,-0.548c-0.144,-0.086 -0.185,-0.285 -0.317,-0.388c-0.181,-0.142 -0.415,-0.202 -0.604,-0.333c-0.737,-0.511 -0.776,-0.423 -1.527,-0.902c-0.141,-0.09 -0.194,-0.28 -0.326,-0.384c-0.18,-0.141 -0.41,-0.208 -0.598,-0.34c-0.73,-0.509 -0.771,-0.422 -1.526,-0.905c-0.141,-0.09 -0.198,-0.275 -0.33,-0.377c-0.181,-0.141 -0.407,-0.212 -0.595,-0.343c-1.207,-0.84 -1.241,-0.773 -2.448,-1.625c-0.718,-0.507 -0.763,-0.404 -1.497,-0.914c-0.146,-0.101 -0.192,-0.304 -0.323,-0.424c-0.092,-0.083 -0.091,-0.077 -1.429,-1.108c-1.296,-0.998 -1.392,-0.831 -1.501,-0.921c-0.14,-0.115 -0.172,-0.327 -0.304,-0.451c-0.151,-0.14 -0.373,-0.187 -0.528,-0.323c-0.138,-0.121 -0.197,-0.315 -0.337,-0.434c-0.171,-0.145 -0.4,-0.206 -0.577,-0.344c-0.125,-0.097 -0.188,-0.262 -0.317,-0.352c-1.014,-0.713 -1.126,-0.461 -1.198,-0.538c-0.283,-0.304 -0.389,-0.738 -0.634,-1.074c-0.18,-0.246 -0.454,-0.164 -0.359,-0.955c0.079,-0.662 0.47,-0.877 0.509,-0.933c0.385,-0.559 0.115,-0.687 0.549,-1.22c0.116,-0.142 0.343,-0.153 0.468,-0.287c0.142,-0.152 0.174,-0.384 0.31,-0.542c0.119,-0.139 0.32,-0.19 0.438,-0.329c0.146,-0.173 0.202,-0.408 0.338,-0.588c0.094,-0.124 0.256,-0.186 0.345,-0.313c0.386,-0.557 0.128,-0.682 0.549,-1.203c0.115,-0.142 0.338,-0.159 0.462,-0.292c0.142,-0.152 0.179,-0.381 0.314,-0.539c0.118,-0.138 0.315,-0.194 0.432,-0.333c0.145,-0.173 0.205,-0.405 0.341,-0.585c0.093,-0.124 0.252,-0.19 0.34,-0.317c0.386,-0.557 0.132,-0.682 0.555,-1.194c0.117,-0.141 0.342,-0.156 0.468,-0.289c0.138,-0.146 0.165,-0.375 0.303,-0.521c0.133,-0.141 0.352,-0.178 0.488,-0.315c0.139,-0.141 0.181,-0.36 0.321,-0.5Z" style="fill:#337bcc;"/><path d="M241.418,261.559c0.307,-3.557 0.599,-3.495 1.506,-8.054c0.895,-4.497 2.058,-8.446 2.656,-10.748c5.234,-20.128 9.222,-28.297 6.898,-29.391c-3.262,-1.536 -8.777,5.405 -11.574,7.328c-2.421,1.664 -3.566,-0.319 -3.727,-0.774c-0.508,-1.433 1.148,-2.902 3.074,-4.734c5.296,-5.034 5.496,-4.789 6.588,-5.591c4.144,-3.043 6.209,-3.663 6.278,-3.698c9.204,-4.592 12.945,-1.495 13.395,1.007c0.774,4.304 -14.391,48.351 -13.221,54.68c0.92,4.974 6.311,-0.613 11.058,-4.414c0.506,-0.405 2.921,-3.117 4.654,-1.637c2.21,1.887 -1.175,4.291 -1.659,4.72c-2.443,2.166 -14.114,13.618 -21.421,12.515c-6.674,-1.007 -4.741,-9.09 -4.504,-11.209Z" style="fill:#fff;"/><path d="M256.913,184.857c0.075,-0.323 0.603,-2.58 1.392,-3.903c3.303,-5.535 9.787,-7.453 14.419,-4.078c4.186,3.05 4.547,8.711 4.238,10.508c-0.699,4.069 -1.892,5.683 -4.309,7.991c-5.029,4.804 -13.176,2.733 -15.199,-3.971c-1.092,-3.618 -0.857,-4.058 -0.541,-6.546Z" style="fill:#fff;"/><path d="M446.041,255.461c-3.898,-6.76 -11.322,-15.552 -17.708,-22.518c-3.4,-20.777 -10.534,-40.434 -20.735,-58.184c6.718,3.898 14.598,8.377 19.035,11.114c2.571,10.16 3.774,20.196 4.022,30.191c2.613,0.083 5.226,0.207 7.797,0.332c1.285,-6.967 1.41,-14.059 0.747,-21.192c6.013,3.857 12.068,8.253 18.247,14.806c-2.115,16.961 -5.93,32.098 -11.404,45.452m5.474,76.555c-11.28,12.815 -22.892,23.182 -34.918,31.103c0.58,-7.797 -0.581,-19.284 -1.991,-28.657c8.833,-19.118 13.934,-39.397 15.469,-59.843c3.359,7.009 7.382,15.22 9.497,19.989c-3.566,9.829 -8.211,18.828 -13.561,27.205c2.073,1.576 4.147,3.152 6.22,4.728c4.976,-5.06 9.041,-10.824 12.483,-17.086c2.82,6.594 5.35,13.685 6.802,22.56m-57.147,53.995c-8.211,6.387 -16.879,11.529 -25.836,15.759c0.913,2.447 1.866,4.893 2.778,7.34c6.884,-1.617 13.354,-4.313 19.574,-7.796c-1.078,7.091 -2.696,14.473 -6.138,22.767c-16.298,4.811 -31.601,7.382 -45.991,7.631c4.644,-6.304 9.663,-16.63 13.436,-25.339c17.542,-11.446 32.596,-25.878 44.664,-42.342c-0.871,7.714 -1.783,16.796 -2.488,21.98m-84.684,53.249c-10.326,1.12 -20.404,0.871 -30.232,-0.249c-0.498,2.571 -0.954,5.142 -1.451,7.714c6.677,2.281 13.602,3.401 20.735,3.732c-4.645,5.475 -9.87,10.866 -17.127,16.091c-9.163,-2.528 -17.689,-5.499 -25.588,-8.917c-6.222,-2.693 -12.055,-5.663 -17.501,-8.915c5.117,-2.087 11.461,-5.761 17.501,-9.643c2.478,-1.593 4.906,-3.22 7.174,-4.788c20.901,-0.456 41.222,-4.769 60.091,-12.441c-4.769,6.138 -10.285,13.395 -13.602,17.418m-95.466,1.742c-9.497,-4.23 -18.123,-9.455 -26.085,-15.427c-1.7,1.99 -3.359,3.981 -5.059,5.972c4.645,5.35 10.119,9.787 16.091,13.644c-6.718,2.447 -13.893,4.521 -22.767,5.35c-11.985,-12.109 -21.482,-24.468 -28.574,-37.075c7.714,1.078 19.16,0.622 28.532,-0.125c18.372,10.077 38.112,16.547 58.266,19.367c-7.174,2.945 -15.552,6.469 -20.404,8.294m-91.402,-64.322c-2.406,0.995 -4.769,2.032 -7.174,3.069c1.825,6.843 4.728,13.229 8.377,19.408c-7.05,-0.871 -14.432,-2.24 -22.768,-5.433c-5.35,-16.174 -8.419,-31.518 -9.165,-45.95c6.428,4.396 16.837,9.124 25.588,12.649c11.985,17.251 26.832,31.849 43.627,43.42c-7.713,-0.58 -16.754,-1.203 -21.938,-1.742c-6.636,-8.045 -12.026,-16.546 -16.547,-25.421m-37.199,-74.73c-2.613,-0.208 -5.184,-0.415 -7.797,-0.622c-1.493,6.926 -1.866,14.017 -1.41,21.15c-5.889,-4.022 -11.82,-8.626 -17.75,-15.344c2.654,-16.879 6.925,-31.933 12.856,-45.12c3.651,6.851 10.628,15.727 16.759,22.862c1.184,8.645 3.004,17.09 5.414,25.285c3.377,11.781 7.968,23.091 13.658,33.758c-6.552,-4.064 -14.349,-8.834 -18.662,-11.695c-2.24,-10.243 -3.111,-20.321 -3.069,-30.274m7.091,-128.311c0.042,7.817 2.186,19.057 4.337,28.291c-2.647,7.289 -4.812,14.807 -6.474,22.511c-0.018,0.083 -0.036,0.167 -0.054,0.25c-0.228,1.056 -0.442,2.114 -0.649,3.172c-0.081,0.414 -0.159,0.828 -0.238,1.242c-0.149,0.791 -0.293,1.582 -0.431,2.374c-0.139,0.8 -0.269,1.6 -0.396,2.4c-0.071,0.448 -0.145,0.895 -0.213,1.343c-1.397,9.206 -2.053,18.471 -1.979,27.704c-3.94,-6.718 -8.626,-14.515 -11.155,-19.118c2.737,-10.078 6.635,-19.45 11.28,-28.242c-2.198,-1.41 -4.396,-2.778 -6.594,-4.189c-4.562,5.433 -8.128,11.529 -11.031,18.081c-3.359,-6.345 -6.469,-13.188 -8.626,-21.938c10.16,-13.685 20.901,-25.007 32.223,-33.882m29.859,-39.107c-6.469,2.778 -12.441,6.552 -17.957,11.031c-0.124,-7.174 0.208,-14.722 2.24,-23.473c15.22,-7.506 29.901,-12.649 44.001,-15.386c-3.483,7.008 -6.718,18.081 -8.999,27.288c-15.344,14.266 -27.744,31.062 -36.868,49.392c-0.456,-7.755 -1.078,-16.879 -1.244,-22.104c7.008,-7.755 14.681,-14.266 22.85,-19.989c-1.327,-2.24 -2.695,-4.479 -4.022,-6.76m48.687,-36.287c9.87,-3.359 19.699,-5.35 29.569,-6.345c-0.083,-2.613 -0.166,-5.267 -0.249,-7.879c-7.008,-0.747 -14.017,-0.332 -21.025,0.871c3.318,-6.345 7.257,-12.731 13.229,-19.408c16.962,0.83 32.264,3.483 45.908,7.962c-6.428,4.438 -14.556,12.524 -20.984,19.491c-0.049,0.012 -0.097,0.026 -0.145,0.038c-1.186,0.295 -2.368,0.602 -3.544,0.921c-0.074,0.02 -0.147,0.04 -0.221,0.06c-1.211,0.331 -2.418,0.673 -3.619,1.03c-0.009,0.003 -0.018,0.006 -0.027,0.008c-9.834,2.922 -19.305,6.708 -28.328,11.272c-0.161,0.081 -0.323,0.161 -0.483,0.243c-0.889,0.453 -1.772,0.918 -2.653,1.386c-0.325,0.172 -0.65,0.344 -0.974,0.519c-0.756,0.408 -1.507,0.824 -2.255,1.243c-0.459,0.256 -0.917,0.514 -1.373,0.775c-0.629,0.359 -1.255,0.723 -1.879,1.091c-0.598,0.351 -1.192,0.707 -1.785,1.065c-0.487,0.294 -0.972,0.59 -1.455,0.888c-0.775,0.479 -1.544,0.964 -2.31,1.455c-0.302,0.193 -0.604,0.385 -0.904,0.58c-1.04,0.675 -2.073,1.36 -3.098,2.057c-0.028,0.019 -0.057,0.038 -0.085,0.057c-0.281,0.191 -0.566,0.376 -0.846,0.569c3.318,-7.009 7.174,-15.303 9.538,-19.948m84.767,-16.81c3.131,-2.157 6.015,-4.119 8.17,-5.501c10.202,2.073 19.699,5.35 28.74,9.455c1.202,-2.281 2.446,-4.603 3.691,-6.884c-5.681,-4.23 -11.944,-7.424 -18.62,-9.911c6.055,-3.774 12.649,-7.34 21.15,-10.119c14.225,9.331 26.127,19.367 35.706,30.15c-7.755,0.58 -18.828,3.483 -27.869,6.262c-16.736,-4.989 -33.934,-7.247 -50.968,-6.964c-3.353,0.056 -6.701,0.2 -10.036,0.453c3.256,-2.241 6.78,-4.696 10.036,-6.94m-126.735,179.749c0,-71.786 58.101,-130.301 129.306,-130.301c71.247,0 129.348,58.516 129.348,130.301c0,71.745 -58.101,130.26 -129.348,130.26c-71.205,0 -129.306,-58.515 -129.306,-130.26m227.842,-156.428c7.672,7.05 14.183,14.764 19.864,22.975c2.198,-1.369 4.438,-2.696 6.677,-4.023c-2.737,-6.552 -6.469,-12.525 -10.948,-18.123c7.133,-0.124 14.598,0.207 23.307,2.24c7.506,15.344 12.607,30.108 15.303,44.332c-6.967,-3.525 -17.915,-6.76 -27.081,-9.041c-0.246,-0.269 -0.499,-0.53 -0.747,-0.796c-0.251,-0.27 -0.504,-0.538 -0.757,-0.806c-13.857,-14.723 -30.027,-26.628 -47.556,-35.472c7.714,-0.498 16.754,-1.12 21.938,-1.286m149.461,151.493c-16.132,-27.288 -35.748,-48.811 -57.645,-66.561c10.699,6.303 21.399,13.312 32.099,20.942c-0.373,-25.048 -0.747,-50.138 -1.12,-75.187c-41.844,-24.219 -84.228,-32.596 -126.818,-33.508c21.109,-3.111 43.835,-3.691 67.598,-2.571c-13.768,-20.901 -27.495,-41.803 -41.263,-62.704c-40.6,2.032 -75.519,13.727 -107.244,30.73c14.266,-9.787 30.067,-18.703 46.862,-27.08c-21.026,-11.073 -42.01,-22.104 -63.036,-33.177c-1.037,-0.581 -2.115,-1.12 -3.152,-1.659c-29.735,18.496 -52.337,41.222 -70.584,66.478c5.889,-11.363 12.566,-22.768 19.865,-34.213c-24.841,1.493 -49.682,2.944 -74.523,4.438c-17.542,34.213 -25.256,68.344 -27.205,102.35c-1.037,-16.257 -0.829,-33.343 0.29,-50.926c-20.984,13.478 -41.969,26.956 -62.994,40.434c1.078,33.757 8.75,63.7 20.528,91.236c-6.262,-10.534 -12.192,-21.731 -17.791,-33.425c-11.695,22.145 -23.348,44.291 -35.043,66.436c18.413,30.398 41.056,53.498 66.395,72.118c-11.902,-6.137 -23.804,-13.146 -35.748,-20.901c1.493,25.048 2.945,50.055 4.438,75.104c32.348,16.754 64.57,24.592 96.71,26.998c-14.307,0.913 -29.237,0.954 -44.54,0.249c13.81,20.901 27.578,41.761 41.388,62.621c37.033,-1.949 69.298,-11.902 98.701,-26.583c-12.939,8.418 -26.998,16.215 -41.886,23.555c21.689,11.529 43.42,23.058 65.151,34.587c0.29,0.166 0.58,0.332 0.871,0.497c30.855,-19.035 54.078,-42.591 72.74,-68.842c-6.262,13.188 -13.603,26.417 -21.814,39.688c24.841,-1.866 49.641,-3.774 74.482,-5.681c16.754,-34.048 23.887,-67.805 25.421,-101.355c0.539,15.137 0.042,30.854 -1.244,47.069c21.192,-13.146 42.383,-26.251 63.575,-39.439c-0.58,-36.328 -8.875,-68.385 -21.772,-97.83c8.129,13.063 15.635,27.205 22.643,42.176c11.902,-22.021 23.763,-44.042 35.665,-66.063" style="fill:#f26639;fill-rule:nonzero;"/></svg>