<svg id="Layer_1" data-name="Layer 1" xmlns="http://www.w3.org/2000/svg" viewBox="0 0 850.39 850.39"><defs><style>.cls-1{fill:#fff;}.cls-2{fill:#e6e7e8;}.cls-3{fill:none;}.cls-4{fill:#f26739;}.cls-5{fill:#4068b2;}.cls-6{fill:#0076be;}.cls-7{fill:#fbb040;}.cls-8{fill:#808285;}</style></defs><rect class="cls-1" x="377.98" y="179.83" width="65.43" height="51.52"/><circle class="cls-1" cx="570.95" cy="615.5" r="133.78"/><circle class="cls-2" cx="569.64" cy="606.36" r="146.93"/><path class="cls-3" d="M416.28,210a12.52,12.52,0,0,0,6.91,2.11,9.17,9.17,0,0,0,.46,3.52,3,3,0,0,0,1.78,1.48,14.16,14.16,0,0,0,4.55.5h8.94v-5.5h-4.11a5.25,5.25,0,0,1-2.6-.4c-.36-.26-.57-.9-.62-1.92a11.93,11.93,0,0,0,4.44-1.95,6.31,6.31,0,0,0,2.27-3.45,38.19,38.19,0,0,0,.58-8.22V181.39a35,35,0,0,0-.46-6.63,11.1,11.1,0,0,0-2-4.32,11.26,11.26,0,0,0-4.64-3.42,17.67,17.67,0,0,0-7.06-1.34,16,16,0,0,0-6,1.08,10.74,10.74,0,0,0-4.41,3.25,11.24,11.24,0,0,0-2.26,4.58,34.65,34.65,0,0,0-.55,7.07v14.06a34,34,0,0,0,.93,9.2A9.27,9.27,0,0,0,416.28,210Zm7.07-31.68c0-2.34.17-3.75.5-4.23a1.63,1.63,0,0,1,1.42-.71,1.4,1.4,0,0,1,1.44.88,14.3,14.3,0,0,1,.35,4.06V199.2a22.77,22.77,0,0,1-.33,5.08,1.46,1.46,0,0,1-1.55,1.07,1.41,1.41,0,0,1-1.5-.92,20.49,20.49,0,0,1-.33-4.89Z"/><path class="cls-3" d="M231.34,430.66l.8.38-.8-.38-.63-.3-.35-.16.35.16Z"/><path class="cls-3" d="M234.74,432.35l-.37-.19c-.25-.14-.51-.26-.77-.39l.77.39Z"/><path class="cls-3" d="M384.46,188.05a53.86,53.86,0,0,0,5.84,4.25,34.81,34.81,0,0,1,5.54,4.13c.72.82,1.09,2.57,1.09,5.25a5.21,5.21,0,0,1-.58,2.75,1.92,1.92,0,0,1-1.76.92,1.8,1.8,0,0,1-1.64-.72,7.48,7.48,0,0,1-.46-3.29v-5.53h-11v3a23.5,23.5,0,0,0,1,7.89,8.85,8.85,0,0,0,4.39,4.58,17,17,0,0,0,8.1,1.8,17.38,17.38,0,0,0,7.59-1.56,9,9,0,0,0,4.4-3.86c.75-1.54,1.13-3.92,1.13-7.16q0-6.69-2-9.69t-9.95-7.69a9,9,0,0,1-3.35-2.78,7.51,7.51,0,0,1-.61-3.43,5,5,0,0,1,.55-2.64,1.76,1.76,0,0,1,1.61-.87,1.54,1.54,0,0,1,1.41.65,6.61,6.61,0,0,1,.42,3v3.37h11v-1.8q0-5.42-1.05-7.68a8.28,8.28,0,0,0-4.31-3.75,18.69,18.69,0,0,0-7.84-1.48,17.31,17.31,0,0,0-7.19,1.35,9,9,0,0,0-4.31,3.79c-.88,1.6-1.34,4.14-1.34,7.63a16,16,0,0,0,.95,6A10,10,0,0,0,384.46,188.05Z"/><path class="cls-3" d="M482,520.72l.18-.19Z"/><path class="cls-3" d="M445.51,592.9a125.85,125.85,0,0,1,34.54-70.25A125.85,125.85,0,0,0,445.51,592.9Z"/><path class="cls-3" d="M694.39,612.49C693.45,681.24,636.24,736,566.45,735c-57.47-.83-106.28-42.65-119-96.91,12.68,54.26,61.5,96.08,119,96.91,69.8,1,127-53.77,127.94-122.51a126.68,126.68,0,0,0-12.29-56.57h0A126.82,126.82,0,0,1,694.39,612.49Z"/><path class="cls-3" d="M479.27,625.78v8.27q0,14.22,3.32,22t14,12.73q10.69,5,25.83,5,13.79,0,24.17-4.34t14-10.74q3.63-6.4,3.63-19.91,0-18.59-6.54-26.94T526,590.41c-5.86-3-9.4-5.6-10.66-7.73s-2-5.32-2-9.54c0-3.28.59-5.73,1.75-7.34a6,6,0,0,1,5.14-2.43c2.09,0,3.59.61,4.48,1.81s1.35,4,1.35,8.35v9.37h35v-5q0-15.07-3.35-21.36t-13.69-10.43Q533.71,542,519,542q-13.44,0-22.93,3.78t-13.73,10.51q-4.26,6.71-4.25,21.24,0,10.08,3,16.56a27.75,27.75,0,0,0,7.56,10.14q4.57,3.69,18.63,11.8t17.63,11.48q3.5,3.43,3.5,14.61c0,3.38-.62,5.93-1.84,7.65a6.42,6.42,0,0,1-5.6,2.57c-2.5,0-4.25-.67-5.23-2s-1.47-4.4-1.47-9.14V625.78Z"/><path class="cls-4" d="M235.86,432.94l-1-.53-.13-.06.13.06Z"/><path class="cls-4" d="M233.12,431.52l.48.25-.48-.25-.6-.3-.38-.18.38.19Z"/><polygon class="cls-4" points="682.1 555.91 682.1 555.91 682.1 555.91 682.1 555.91 682.1 555.91"/><path class="cls-2" d="M682.1,555.91h0a123.76,123.76,0,0,0-6-11.06h0A123.76,123.76,0,0,1,682.1,555.91Z"/><polygon class="cls-2" points="682.1 555.91 682.1 555.91 682.1 555.91 682.1 555.91 682.1 555.91"/><polygon class="cls-2" points="682.1 555.91 682.1 555.91 682.1 555.91 682.1 555.91 682.1 555.91"/><path class="cls-5" d="M541.66,265.36v-.57H282.79c0,71,57.57,129.14,128.26,129.37C483.38,394.41,541.43,337.16,541.66,265.36Z"/><path class="cls-2" d="M682.21,555.92h0Z"/><path class="cls-2" d="M682.1,555.92h.65l-.65,0Z"/><path class="cls-6" d="M618.74,563.37a5.44,5.44,0,0,0-4.52,2q-1.56,2-1.56,11.76v59q0,11,1,13.58c.69,1.71,2.28,2.57,4.79,2.57s4.2-1,4.92-3,1.08-6.69,1.08-14.14v-58.1q0-8.82-1.12-11.28C622.61,564.2,621.08,563.37,618.74,563.37Z"/><path class="cls-6" d="M662.45,554.64l-.18,0,.18,0,.94.1h0Z"/><path class="cls-6" d="M670.91,555.38l.21,0,.7,0,.22,0-.22,0Z"/><path class="cls-6" d="M653.61,553.53l.39.06,1.06.14-1.06-.14Z"/><path class="cls-6" d="M659.83,554.34l-1.33-.16c-.55-.06-1.09-.14-1.64-.21l1.21.16,1.77.21h0Z"/><path class="cls-6" d="M667,555.08h0l.77.06.5,0-1.27-.1Z"/><path class="cls-6" d="M634.32,544.06h0l0-.16Z"/><path class="cls-6" d="M680.32,555.86h-.51c-1.17,0-2.34-.09-3.5-.14l-.66,0h0l.66,0c1.21.06,2.42.11,3.64.15Z"/><path class="cls-6" d="M661.25,554.51l-1.32-.16h-.09l1.41.17,1.2.13-.18,0Z"/><path class="cls-6" d="M680.32,555.86l.5,0h-.5Z"/><path class="cls-6" d="M652.64,553.39l1,.14h0Z"/><path class="cls-6" d="M654,553.59l-.41-.06h0l.39.06,1.06.14h0Z"/><path class="cls-6" d="M681.92,555.91h0Z"/><path class="cls-6" d="M666.61,555l-1.37-.12-.63-.06.63.06,1.37.12.41,0h0Z"/><path class="cls-6" d="M672,555.46h0l.79,0h0Z"/><path class="cls-6" d="M674.35,555.6h0l1.25.07-1.25-.07Z"/><path class="cls-6" d="M667,555.08Z"/><path class="cls-6" d="M680.82,555.88H681l.69,0-.69,0Z"/><path class="cls-6" d="M676.31,555.7c1.16,0,2.33.11,3.5.14h0C678.64,555.81,677.47,555.75,676.31,555.7Z"/><path class="cls-6" d="M680.65,555.87Z"/><path class="cls-6" d="M671.82,555.44l.22,0h0Z"/><path class="cls-6" d="M655.08,553.74h0l.56.08.65.09-.65-.09Z"/><path class="cls-6" d="M680.65,555.87Z"/><path class="cls-6" d="M652.52,553.37l.12,0-.12,0Z"/><path class="cls-6" d="M656.27,553.9l.59.07h0Z"/><path class="cls-6" d="M662.27,554.62l.18,0,.94.09-.94-.09-2.62-.3h.1Z"/><path class="cls-6" d="M659.83,554.34l-1.33-.16c-.55-.06-1.09-.14-1.64-.21h0c.55.07,1.09.15,1.64.21Z"/><path class="cls-6" d="M661.25,554.51l1,.11-2.34-.27Z"/><path class="cls-6" d="M680.82,555.88H681l.69,0h.4Z"/><path class="cls-6" d="M669.11,555.24l.93.08.87.06-2.59-.2Z"/><path class="cls-6" d="M666.61,555l.41,0c-1.18-.1-2.35-.22-3.53-.34l1.12.12.63.06Z"/><path class="cls-6" d="M655.62,553.81l-.54-.07.54.07.65.09.59.07Z"/><path class="cls-6" d="M672.83,555.51H673l.3,0,.4,0,.38,0h.26l1.25.07h0l-3.6-.21Z"/><path class="cls-6" d="M652.52,553.36h0l.12,0,1,.14Z"/><path class="cls-6" d="M680.82,555.88l1.28,0h0l-1.45,0Z"/><path class="cls-6" d="M444.3,608.36a125.25,125.25,0,0,1,1.21-15.46,125.25,125.25,0,0,0-1.21,15.46,121.48,121.48,0,0,0,3.19,29.73A121.48,121.48,0,0,1,444.3,608.36Z"/><path class="cls-6" d="M480.05,522.65c.63-.65,1.28-1.29,1.93-1.93C481.33,521.36,480.68,522,480.05,522.65Z"/><path class="cls-5" d="M436.63,709.36l-.34,0,1.74-.07h-.21Z"/><path class="cls-5" d="M425.64,561.32c0-.09.07-.19.11-.28l0,.09A1.46,1.46,0,0,1,425.64,561.32Z"/><path class="cls-5" d="M484.23,424.49l-2.49,1.13.75-.33Z"/><path class="cls-5" d="M481.53,485.17c.82-.59,1.66-1.16,2.49-1.73l-1.53,1Z"/><path class="cls-5" d="M431.42,547.54c.25-.55.51-1.09.78-1.64l-.33.66Z"/><path class="cls-5" d="M421.09,644.66l-.09-.32,0,.11Z"/><path class="cls-5" d="M461.45,502.8c.63-.67,1.26-1.33,1.9-2-.39.41-.79.8-1.18,1.21Z"/><path class="cls-4" d="M436.63,709.36l1.19,0Z"/><path class="cls-4" d="M419,709.83h2.3l-2.32,0Z"/><path class="cls-2" d="M416.67,609.93v0Z"/><path class="cls-2" d="M416.67,609.93v-.17s0-.09,0-.14S416.67,609.82,416.67,609.93Z"/><path class="cls-2" d="M421.29,709.82c5-.09,10-.24,15-.44-3.62.14-7.24.26-10.86.34Z"/><path class="cls-2" d="M449.31,708.74c-3.76.23-7.52.41-11.28.57C441.79,709.15,445.55,709,449.31,708.74Z"/><path class="cls-2" d="M438,709.31c3.76-.16,7.52-.34,11.28-.57q-5.74.35-11.49.58Z"/><path class="cls-2" d="M425.43,709.72c3.62-.08,7.24-.2,10.86-.34l.34,0Q431,709.59,425.43,709.72Z"/><path class="cls-7" d="M425.18,205.35a1.46,1.46,0,0,0,1.55-1.07,22.77,22.77,0,0,0,.33-5.08V178.31a14.3,14.3,0,0,0-.35-4.06,1.4,1.4,0,0,0-1.44-.88,1.63,1.63,0,0,0-1.42.71c-.33.48-.5,1.89-.5,4.23v21.23a20.49,20.49,0,0,0,.33,4.89A1.41,1.41,0,0,0,425.18,205.35Z"/><path class="cls-7" d="M348.89,142.73q11.69,37,23.36,73.9c.89,2.83,2.21,3.6,5,3.59q34.68-.18,69.33,0c3.22,0,4.64-.93,5.61-4.06q11.56-36.85,23.29-73.66,4.61-14.48,9.26-28.92c1-3.17.2-4.41-2.38-5.94a140.39,140.39,0,0,0-35.74-14.92,26.6,26.6,0,0,0-3.78-.41v5.28q0,16,0,32,0,11.94,0,23.89c0,1.49.43,3.32-.27,4.4-1.08,1.65-3,3.87-4.47,3.86s-3.3-2.31-4.42-4c-.63-.94-.17-2.62-.17-4V127.74q0-24.54,0-49c0-6.06-2-8-8-8-8.5-.06-17,0-25.5,0-7.74,0-9.27,1.58-9.27,9.52q0,23.89,0,47.81v26c0,1.34.46,3-.17,3.94-1.16,1.64-3,3.86-4.53,3.86s-3.17-2.34-4.41-3.92c-.53-.66-.18-2-.18-3.06q0-12.45,0-24.91,0-16.17,0-32.37v-5a8.51,8.51,0,0,0-2.11-.18,127.32,127.32,0,0,0-38.91,16.39c-.89.55-1.25,3.09-.85,4.39Q344.23,127.93,348.89,142.73Zm62.64,38.93a34.65,34.65,0,0,1,.55-7.07,11.24,11.24,0,0,1,2.26-4.58,10.74,10.74,0,0,1,4.41-3.25,16,16,0,0,1,6-1.08,17.67,17.67,0,0,1,7.06,1.34,11.26,11.26,0,0,1,4.64,3.42,11.1,11.1,0,0,1,2,4.32,35,35,0,0,1,.46,6.63v14.77a38.19,38.19,0,0,1-.58,8.22,6.31,6.31,0,0,1-2.27,3.45,11.93,11.93,0,0,1-4.44,1.95c.05,1,.26,1.66.62,1.92a5.25,5.25,0,0,0,2.6.4h4.11v5.5H430a14.16,14.16,0,0,1-4.55-.5,3,3,0,0,1-1.78-1.48,9.17,9.17,0,0,1-.46-3.52,12.52,12.52,0,0,1-6.91-2.11,9.27,9.27,0,0,1-3.82-5.07,34,34,0,0,1-.93-9.2Zm-29-10.84a9,9,0,0,1,4.31-3.79,17.31,17.31,0,0,1,7.19-1.35,18.69,18.69,0,0,1,7.84,1.48,8.28,8.28,0,0,1,4.31,3.75q1,2.26,1.05,7.68v1.8h-11V177a6.61,6.61,0,0,0-.42-3,1.54,1.54,0,0,0-1.41-.65,1.76,1.76,0,0,0-1.61.87,5,5,0,0,0-.55,2.64,7.51,7.51,0,0,0,.61,3.43,9,9,0,0,0,3.35,2.78q7.89,4.68,9.95,7.69t2,9.69c0,3.24-.38,5.62-1.13,7.16a9,9,0,0,1-4.4,3.86,17.38,17.38,0,0,1-7.59,1.56,17,17,0,0,1-8.1-1.8,8.85,8.85,0,0,1-4.39-4.58,23.5,23.5,0,0,1-1-7.89v-3h11v5.53a7.48,7.48,0,0,0,.46,3.29,1.8,1.8,0,0,0,1.64.72,1.92,1.92,0,0,0,1.76-.92,5.21,5.21,0,0,0,.58-2.75c0-2.68-.37-4.43-1.09-5.25a34.81,34.81,0,0,0-5.54-4.13,53.86,53.86,0,0,1-5.84-4.25,10,10,0,0,1-2.37-3.64,16,16,0,0,1-.95-6C381.14,175,381.6,172.42,382.48,170.82Z"/><path class="cls-7" d="M270.87,255.44h11.92l47.42,0H412v0H548.41c14.85,0,16.06-1.23,15.85-16-.09-6.57-3.3-9.86-9.94-9.94-5.1-.06-10.2-.05-15.3,0H274.08c-11.94,0-13.92,2-13.91,14.11v1.34C260.25,252.33,263.38,255.44,270.87,255.44Z"/><path class="cls-7" d="M460.8,219.93h87.84c-2.53-43.22-20.65-77.6-54.6-104.56L483.8,147.59C476.13,171.73,468.5,195.71,460.8,219.93Z"/><path class="cls-7" d="M363.55,219.85l-22.89-72.09q-5.06-15.94-10.18-32a134.39,134.39,0,0,0-46,61.17c-5.21,13.78-8.29,28-8,43Z"/><path class="cls-5" d="M249.48,447.62l-.64-1.64C249,446.42,249.24,447,249.48,447.62Z"/><path class="cls-6" d="M682.11,555.92c-.07,0,0,0,0,0a118.86,118.86,0,0,0-6-11.06h0a125.09,125.09,0,0,0-47-44.75l-2.79-1.47c-1.4-.71-2.82-1.42-4.27-2.08a122.4,122.4,0,0,0-11.61-4.69,126.84,126.84,0,0,0-34.77-6.78c-1.8-.1-3.59-.17-5.4-.19a123.53,123.53,0,0,0-88.14,35.64l-.18.19-1.93,1.93a125.85,125.85,0,0,0-34.54,70.25,127.23,127.23,0,0,0-1.22,15.47,122.38,122.38,0,0,0,3.19,29.72c12.69,54.26,61.5,96.08,119,96.91,69.79,1,127-53.77,127.94-122.51A126.78,126.78,0,0,0,682.11,555.92ZM662.26,686.37H633.78c-6.86,0-11.69-.45-14.5-1.38s-4.7-2.29-5.69-4.11-1.47-5.08-1.47-9.81q-12.79-.3-22-5.86a32.12,32.12,0,0,1-5.79-4.36,24.21,24.21,0,0,1-6.39-9.73q-3-8.55-2.95-25.58V586.42q0-12.88,1.75-19.65a29.87,29.87,0,0,1,7.2-12.74A34.13,34.13,0,0,1,598,545a51.65,51.65,0,0,1,8.27-2.15A63.34,63.34,0,0,1,617,542c1,0,2,0,3,.07a64.45,64.45,0,0,1,14.29,2c.93.24,1.85.5,2.74.79s1.68.57,2.5.88a38.24,38.24,0,0,1,13,7.64l.89.14c-.25,0-.51-.09-.77-.12l-.12,0a24.54,24.54,0,0,1,1.81,1.88,29.08,29.08,0,0,1,6.36,12q1.47,6.19,1.48,18.46v41.07q0,16.85-1.88,22.87a17.51,17.51,0,0,1-7.22,9.56q-5.31,3.56-14.18,5.42c.18,2.83.84,4.61,2,5.36s3.93,1.09,8.28,1.09h13.08Z"/><polygon class="cls-6" points="682.05 555.82 682.11 555.92 682.02 556.02 681.9 555.95 682.05 555.82"/><path class="cls-6" d="M652.24,552.86l.28.51.62.6a19.37,19.37,0,0,0,1.73-1.11c0-.09-.92-1.14-.92-1.14l-1.31.8Z"/><path class="cls-2" d="M706.69,556.08l-.34,0-1.68.2-1.34.16-1.14.12-.89.09h-.1l-1.07.11-.6.06-1.3.11-.39,0h0l-.73.06-.46,0,1.19-.1h0c1.12-.1,2.24-.2,3.36-.32h.1l.89-.09,2.48-.28,1.28-.15.74-.1q-1.74-4.46-3.76-8.76a147.93,147.93,0,0,0-14.14-24.06q-4.12-5.71-8.77-11h0q-3.37-3.86-7-7.46A147.68,147.68,0,0,0,622.78,472c-1.44-.56-2.88-1.1-4.33-1.62a144.09,144.09,0,0,0-32.73-7.46l-1.26-.12c-4.33-.42-8.72-.67-13.15-.7-75.41-.51-138.06,55-147.64,127.16h2.27c-.23,1.48-.43,3-.62,4.44,0,.37-.09.74-.13,1.1-.17,1.48-.33,3-.45,4.43v.06c-.09,1.06-.16,2.13-.22,3.19v.2q-.17,3.18-.18,6.35s0,.1,0,.15v.06c0,.88,0,1.75,0,2.63,0,.16,0,.32,0,.48v.28c0,1,.07,2.11.12,3.17s.12,2.19.2,3.29l0,.31c.07.93.15,1.85.24,2.77,0,.23.05.46.07.7.1,1,.22,1.92.34,2.88v0a.28.28,0,0,1,0,.09c.15,1.11.3,2.21.48,3.32s.32,2,.5,3l.09.52c.14.78.29,1.56.45,2.33l.18.9c.16.78.33,1.57.51,2.35.05.19.08.39.13.58.23,1,.48,2,.73,3,0,.1.05.2.08.31.29,1.12.6,2.25.91,3.37l.09.31c.35,1.2.7,2.4,1.08,3.59,0,.08,0,.16.08.23.36,1.16.74,2.32,1.14,3.47a1.72,1.72,0,0,1,.07.21c.42,1.2.85,2.4,1.3,3.6l.09.24c.45,1.18.9,2.35,1.38,3.53l0,.08c.5,1.22,1,2.44,1.54,3.66l.06.13c.63,1.46,1.3,2.92,2,4.38l.7,1.45c.44.91.88,1.81,1.34,2.71l1.21,2.36c.42.8.85,1.6,1.29,2.41s.9,1.65,1.37,2.48.91,1.61,1.38,2.41c.76,1.31,1.52,2.61,2.32,3.91l.26.42q1.44,2.32,3,4.65l.42.63c1,1.53,2,3.06,3.11,4.58l.37.54c1.17,1.67,2.38,3.33,3.61,5l-.79.15-.4.08-1.16.21h0c26.7,32.41,66.82,53.17,111.68,53.39,82,.39,148.28-65,148.7-146.61A145.43,145.43,0,0,0,706.69,556.08ZM486.86,490l1.46-1c-.8.54-1.59,1.08-2.37,1.64Zm-19.3,16.66,1.11-1.14q-.9.93-1.8,1.89C467.1,507.11,467.32,506.86,467.56,506.61ZM426,588.86c0,.08,0,.16,0,.25a1.85,1.85,0,0,1,0-.23v0q.78-4.79,1.92-9.59Q426.78,584.07,426,588.86Zm2.8-13.1q.84-3.18,1.85-6.37Q429.65,572.59,428.8,575.76Zm4.05-12.8.06-.18a.36.36,0,0,0,0-.09C432.91,562.78,432.88,562.87,432.85,563Zm5.49-13.1c.14-.31.28-.62.43-.92l.3-.63C438.82,548.83,438.58,549.35,438.34,549.86ZM566.63,728c-54.59-.79-101-40.52-113-92.08a115.89,115.89,0,0,1-3-28.24,119.29,119.29,0,0,1,34-81.44c.6-.62,1.22-1.23,1.83-1.84l.18-.18a117.35,117.35,0,0,1,83.74-33.86c1.72,0,3.43.09,5.13.18a120.6,120.6,0,0,1,33,6.44c3.77,1.31,7.46,2.8,11,4.46,1.36.63,2.71,1.3,4,2,.89.45,1.77.92,2.65,1.39a118.44,118.44,0,0,1,50.32,53l1.86,0h0l.86,0H680l-1.5,0h-2a120.59,120.59,0,0,1,11.68,53.76C687.31,676.89,633,729,566.63,728Zm126.65-170.6h-.21l-.75.05h-.19l-.29,0-.38,0-.36,0h-.24l-1.2.07h0l-.62,0c-1.15.06-2.3.1-3.46.14l-.35,0h-.66l-.65,0h-2.39l-1.49,0h.73l.85,0h0c1.09,0,2.17,0,3.25-.08h.8l3.32-.14.63,0h0l3.41-.2h.21l.87-.06H694Zm2.14-.16-.45,0-.81,0,2.43-.18-.73.06Z"/><path class="cls-2" d="M518.67,432.27l-.6-.18,2.49.76Z"/><path class="cls-5" d="M164.56,555.91h0Z"/><path class="cls-5" d="M268.13,546.56c-.15-4.25-.39-8.41-.68-12.47-.83-11.58-2.2-22.34-3.83-32.07-5.87-35-15.14-57-15.36-57.49q-6.6,3.6-12.94,7.7c-1.69,1.09-3.36,2.22-5,3.36-4.63,3.19-9.15,6.59-13.56,10.25A149.11,149.11,0,0,0,185.9,500.1a123.23,123.23,0,0,0-10.13,19.43,121.56,121.56,0,0,0-7.32,25.32h0V545c-.45,2.59-.83,5.21-1.13,7.88-.12,1-.2,2.06-.29,3.09h-.3l-1.22,0H166l.78,0H167c-.19,2.08-.34,4.17-.43,6.3-.31,7.42-.47,14.84-.53,22.27,0,2.22,0,4.44,0,6.66,0,10.75.07,21.51.15,32.27,0,5.77.07,11.52.07,17.28,0,4.4,2.46,7.49,6,10a246.55,246.55,0,0,0,57.09,29.46c10.74,4,21.67,7.38,33.2,11.28q.48-14.48.93-28.74.49-14.82,1-29.47c.1-3,.19-5.94.29-8.9q.48-14.75,1-29.44c.05-1.4.09-2.82.14-4.22.32,0,1.91-11.16,2.13-15.76s.36-9.29.4-13.8Q268.38,553.67,268.13,546.56Z"/><path class="cls-5" d="M316.67,701.42q-3.63-.66-7.26-1.38C311.83,700.53,314.25,701,316.67,701.42Z"/><path class="cls-5" d="M294.09,685.77c0-.25-.09-.49-.14-.74l1.5,8c-.43-2.28-.86-4.55-1.28-6.83C294.15,686.07,294.12,685.92,294.09,685.77Z"/><path class="cls-5" d="M379.79,443.92l.81.26L407.9,541a.29.29,0,0,0,.56,0l35.24-96.92.07,0a107.44,107.44,0,0,1-29.4,4.63A109.15,109.15,0,0,1,379.79,443.92Z"/><path class="cls-5" d="M352.47,429.59l-1.7-.64,1.26.48Z"/><path class="cls-5" d="M283.26,628.1q1,5.05,1.91,10.11-.68-3.6-1.36-7.22C283.63,630,283.44,629.07,283.26,628.1Z"/><path class="cls-5" d="M315,422.05l1.95-.52Z"/><path class="cls-4" d="M412.23,709.89c2.25,0,4.51,0,6.76-.06h0C416.72,709.86,414.47,709.89,412.23,709.89Z"/><polygon class="cls-4" points="393.28 709.59 393.28 709.59 393.28 709.59 393.28 709.59"/><path class="cls-4" d="M399.79,709.76l1.67,0h0Z"/><path class="cls-4" d="M392.48,709.56h0l.79,0h0Z"/><path class="cls-4" d="M401.46,709.79l1,0-1,0Z"/><path class="cls-4" d="M321.75,702.34h0Z"/><path class="cls-4" d="M383.19,709.16l.6,0-.6,0Z"/><path class="cls-4" d="M318.54,685.77h86.58V631H283.81q.69,3.62,1.36,7.22.6,3.12,1.18,6.24,3,15.78,5.92,31.54l1.68,9c.05.25.09.49.14.74Z"/><path class="cls-4" d="M406.89,631v54.78H434.6A155.62,155.62,0,0,1,416.15,631Z"/><path class="cls-4" d="M309.41,700h0q3.63.72,7.26,1.38h0Q313,700.76,309.41,700Z"/><path class="cls-4" d="M327.47,703.31l2.19.34-2.19-.34Z"/><path class="cls-4" d="M336.34,704.66l1.91.26-1.91-.26Z"/><path class="cls-4" d="M373.39,708.57l.85.06-.85-.06Z"/><path class="cls-4" d="M318.54,701.78c1.07.2,2.14.37,3.21.56h0C320.68,702.15,319.61,702,318.54,701.78Z"/><path class="cls-4" d="M316.67,701.42l1.87.36-1.87-.36Z"/><path class="cls-4" d="M308.33,423.93c2.21-.65,4.44-1.27,6.68-1.88C312.77,422.66,310.54,423.28,308.33,423.93Z"/><path class="cls-4" d="M318.54,421.11c-.53.13-1.05.28-1.58.42,2.21-.59,4.42-1.16,6.65-1.71Q321.06,420.45,318.54,421.11Z"/><path class="cls-4" d="M286.35,644.45q-.59-3.12-1.18-6.24Q289.6,661.63,294,685l-1.68-9Q289.32,660.21,286.35,644.45Z"/><path class="cls-2" d="M281.14,616.89q1.07,5.61,2.12,11.21v-.05Q282.2,622.47,281.14,616.89Z"/><path class="cls-2" d="M283.25,628.05v.05c.18,1,.37,1.93.55,2.89C283.62,630,283.44,629,283.25,628.05Z"/><path class="cls-2" d="M277.15,595.79q2,10.55,4,21.1,1.07,5.58,2.11,11.16Q280.21,611.92,277.15,595.79Z"/><path class="cls-2" d="M416.15,631a159,159,0,0,1-1.51-22.49A153.79,153.79,0,0,1,416,589h-9.09v42Z"/><path class="cls-2" d="M283.81,631H405.12V589H276.27c-.06.62-.12,1.25-.18,1.86.35,1.66.74,3.31,1.06,5q3,16.13,6.1,32.26C283.44,629,283.62,630,283.81,631Z"/><path class="cls-2" d="M329.66,703.65q3.33.52,6.68,1-2.94-.42-5.87-.89Z"/><path class="cls-2" d="M406.89,709.87l5.34,0c-1.78,0-3.56,0-5.34,0Z"/><path class="cls-2" d="M383.79,709.19q4.35.22,8.69.37c-2.62-.09-5.25-.2-7.87-.33Z"/><path class="cls-2" d="M345.15,705.84c-1.76-.22-3.53-.46-5.29-.7l-1.61-.22c4.59.64,9.18,1.23,13.78,1.74-1-.11-2-.25-3-.36Z"/><path class="cls-2" d="M403.44,709.82h-1l3.51.05-.79,0Z"/><path class="cls-2" d="M374.24,708.63c3,.2,6,.38,8.95.53q-4.14-.21-8.28-.48Z"/><path class="cls-2" d="M364.58,707.89q-4-.35-7.92-.74l-2-.22c-.87-.09-1.74-.17-2.6-.27q10.67,1.19,21.36,1.91-3.57-.24-7.14-.54Z"/><path class="cls-2" d="M309.41,700c-3.06-.62-6.11-1.26-9.16-1.94C303.3,698.78,306.36,699.42,309.41,700Z"/><path class="cls-2" d="M327.47,703.31c-1.91-.31-3.81-.64-5.71-1C323.66,702.67,325.57,703,327.47,703.31Z"/><path class="cls-2" d="M399.79,709.76q-3.26-.06-6.51-.17Q396.54,709.7,399.79,709.76Z"/><path class="cls-2" d="M349,706.3c1,.11,2,.25,3,.36.86.1,1.73.18,2.6.27Q351.8,706.63,349,706.3Z"/><path class="cls-2" d="M403.44,709.82l1.74,0h-1.74Z"/><path class="cls-2" d="M406.89,709.85h0c1.78,0,3.56,0,5.34,0,2.24,0,4.49,0,6.74,0Q412.92,709.9,406.89,709.85Z"/><path class="cls-2" d="M393.28,709.59h0q3.25.1,6.51.17l1.67,0C398.73,709.74,396,709.68,393.28,709.59Z"/><path class="cls-2" d="M405.13,709.83h0V685.77h-111c0,.15.06.3.08.45.42,2.28.85,4.55,1.28,6.83.57,3.05,1.64,4.35,4.8,5.05s6.1,1.32,9.16,1.94q3.63.72,7.26,1.38c1.69.31,3.39.62,5.08.91h0c1.9.33,3.8.66,5.71,1l2.19.34.81.12q2.92.47,5.87.89l1.91.26,1.61.22c1.76.24,3.53.48,5.29.7l3.83.46q2.82.33,5.65.63l2,.22q4,.39,7.92.74l1.67.14q3.57.3,7.14.54l.85.06.67,0q4.14.27,8.28.48l.6,0,.82,0c2.62.13,5.25.24,7.87.33l.8,0c2.73.09,5.45.15,8.18.2l1,0h2.67Z"/><path class="cls-2" d="M406.89,685.77v24.08q6,0,12.08,0l2.32,0,4.14-.1q5.6-.13,11.2-.36l1.19,0q5.74-.24,11.49-.58c.3,0,.6,0,.89-.09h.07a157,157,0,0,1-15.67-22.87Z"/><path class="cls-2" d="M316.67,701.42l1.87.36c1.07.2,2.14.37,3.21.55C320.06,702,318.36,701.73,316.67,701.42Z"/><path class="cls-8" d="M406.16,587.28l-.31,0A.54.54,0,0,0,406.16,587.28Z"/><path class="cls-8" d="M406.89,709.89v0H406C406.28,709.87,406.58,709.89,406.89,709.89Z"/><path class="cls-4" d="M582.94,454.32c-1.41-.93-2.83-1.85-4.25-2.74l-1.56-1c-.91-.57-1.83-1.13-2.75-1.68l-1.84-1.08c-.84-.5-1.69-1-2.54-1.46-.64-.37-1.29-.73-1.94-1.09l-2.5-1.36-2-1c-.87-.46-1.75-.91-2.63-1.35-.62-.32-1.23-.64-1.85-.94-1.16-.58-2.33-1.14-3.5-1.7l-2.12-1c-1.09-.5-2.18-1-3.28-1.5l-2-.87-2.6-1.12-2.13-.89-2.53-1-2.15-.86-2.57-1-2.13-.8-2.75-1-2-.7c-1.26-.45-2.53-.88-3.81-1.31l-2.19-.73L520.05,425l-2.1-.65-2.62-.8-3.52-1-2.35-.68c-1.82-.51-3.65-1-5.48-1.5a19.11,19.11,0,0,0-14.35,1.54c-1.31.66-2.62,1.29-3.94,1.91l-1.46.67-1.74.8-.75.33-2.7,1.15-2.06.86c-.88.36-1.76.7-2.65,1-.7.27-1.39.55-2.09.81-1.07.4-2.15.77-3.23,1.15l-1.49.53c-1.6.54-3.21,1-4.83,1.55l-.11,0L406.5,587a.46.46,0,0,1-.34.27.54.54,0,0,1-.31,0,.45.45,0,0,1-.24-.28L362.15,432.81l-1.28-.41c-1.1-.34-2.21-.68-3.31-1-.54-.17-1.09-.37-1.63-.55-1.16-.39-2.31-.79-3.46-1.21l-.44-.16-1.26-.48c-1-.37-2-.74-3-1.13l-2-.83c-.88-.36-1.77-.71-2.65-1.09l-2.42-1.07c-.75-.34-1.51-.66-2.25-1q-2.34-1.06-4.65-2.21c-3-1.49-7.1-2.54-10.2-1.79-2.23.55-4.44,1.12-6.65,1.71l-1.95.52c-2.24.61-4.47,1.23-6.68,1.88l-1.77.51-1.49.46-2.66.82-1.37.44-2.75.89-1.36.46c-.91.3-1.81.61-2.72.93l-1.37.48-2.67,1-1.39.51-2.63,1-1.4.54-2.58,1-1.42.58-2.53,1.06-1.42.6-2.51,1.1-1.41.63-2.5,1.15-1.38.65c-.85.4-1.7.81-2.54,1.23l-1.3.63c-.91.45-1.81.92-2.71,1.38l-1.09.56c-1.26.66-2.51,1.32-3.76,2,0,.05.13.3.31.74,1.67,4.14,9.75,25.12,15.06,56.75,1.36,8.13,2.54,17,3.38,26.43.51,5.82.9,11.86,1.12,18.11q.25,7.11.2,14.57c0,4.51-.16,9.12-.4,13.8s-.56,9.28-1,14H416c10.09-75.92,76-134.36,155.4-133.82,4.66,0,9.27.29,13.83.73C584.45,455.34,583.7,454.82,582.94,454.32Z"/><rect class="cls-8" x="405.12" y="630.99" width="1.77" height="54.78"/><rect class="cls-8" x="405.12" y="588.95" width="1.77" height="42.04"/><path class="cls-8" d="M405.18,709.84l.79,0h.92v0Z"/><path class="cls-8" d="M405.18,709.84h1.71l-1.76,0Z"/><path class="cls-8" d="M405.12,709.83h0l1.76,0V685.77h-1.77Z"/><path class="cls-2" d="M560.6,658.65q-3.61,6.4-14,10.74t-24.17,4.34q-15.13,0-25.83-5t-14-12.73q-3.3-7.72-3.32-22v-8.27h35v15.38c0,4.74.48,7.78,1.47,9.14s2.73,2,5.23,2a6.42,6.42,0,0,0,5.6-2.57c1.22-1.72,1.84-4.27,1.84-7.65q0-11.16-3.5-14.61T507.3,616q-14.06-8.12-18.63-11.8a27.75,27.75,0,0,1-7.56-10.14q-3-6.5-3-16.56,0-14.52,4.25-21.24t13.73-10.51Q505.6,542,519,542q14.67,0,25,4.13t13.69,10.43q3.35,6.29,3.35,21.36v5h-35v-9.37c0-4.38-.46-7.17-1.35-8.35s-2.39-1.81-4.48-1.81a6,6,0,0,0-5.14,2.43c-1.16,1.61-1.75,4.06-1.75,7.34,0,4.22.66,7.4,2,9.54s4.8,4.71,10.66,7.73q25.15,13,31.69,21.39t6.54,26.94Q564.23,652.24,560.6,658.65Z"/><path class="cls-3" d="M787.7,405l-.29-.13-.39-.16.4.17Z"/><path class="cls-3" d="M785.45,404.1l-.12-.05-.36-.14.36.14Z"/><path class="cls-3" d="M776,400.67l-.62-.2-.44-.14.44.14Z"/><path class="cls-3" d="M781.35,402.52l-.24-.09-.18-.06.18.06Z"/><path class="cls-3" d="M789.51,405.82h0Z"/><path class="cls-3" d="M792.28,407.1l.91.43-.91-.44-.73-.34-.4-.18.4.18Z"/><path class="cls-3" d="M761.43,546.7l.35-.06-.53.08Z"/><path class="cls-3" d="M796.16,409l-.42-.21-.88-.45.88.45Z"/><path class="cls-5" d="M645.81,440.49c-3.1-18.46-8-30.05-8.11-30.33a105.37,105.37,0,0,0-16.63,11.24A81.22,81.22,0,0,0,607.18,436a172.52,172.52,0,0,1,39.32,9C646.28,443.44,646.05,441.94,645.81,440.49Z"/><path class="cls-4" d="M720.07,486.36l-24-82.91-.74-.24-.28-.09-.59-.2-1-.36-.8-.28-.11,0-.13-.05-.33-.12-.33-.13-1.45-.55-.11-.05-1.07-.43-1.4-.58c-.43-.18-.85-.38-1.28-.57s-.79-.34-1.19-.53c-.82-.37-1.63-.76-2.45-1.16.82.4,1.63.79,2.45,1.16.4.19.8.36,1.19.53s.85.39,1.28.57l1.4.58,1.07.43.11.05-.11,0-1.07-.44-1.4-.58c-.43-.18-.85-.38-1.28-.57s-.79-.34-1.18-.53c-.83-.37-1.64-.76-2.45-1.16a8.67,8.67,0,0,0-5.39-.95l-2.67.68-.49.14h0l.49-.13,2.67-.68c-1.06.26-2.11.54-3.16.81-1.64.44-3.28.88-4.9,1.36l-.93.27-.79.24-1.41.44-.27.09-.44.14-.63.2-.83.27-.72.24-1.43.49-.72.25-1.22.44-.19.07-.26.09-.48.18-1.38.52-.74.29-1,.41-.33.13-.12.05-.63.26c-.32.12-.63.26-.94.39l-.4.17-.28.12-.47.19-1.3.57h-.05l-.72.32-.91.43-.41.18-.72.35-.92.44-.42.2-.69.34-.56.28-.87.45-.43.22a.61.61,0,0,0-.14.07l-1.08.57-.9.49c.11.28,5,11.87,8.1,30.33.35,2.05.67,4.21,1,6.43a177.46,177.46,0,0,1,60.35,39.44Z"/><path class="cls-4" d="M720.46,484.39v0L697.8,404l-.68-.21-1-.31,24,82.91h.39Z"/><path class="cls-2" d="M720.07,486.36h-8q4.35,4.33,8.41,9v-7.6Z"/><path class="cls-5" d="M765.77,546l.37-.06.31-.06-.31.06Z"/><path class="cls-5" d="M779,537.68c-.23,1.2-.45,2.4-.67,3.6l.78-4.23c0,.13-.05.26-.07.39S779,537.6,779,537.68Z"/><path class="cls-5" d="M784.47,508.54c-.25,1.27-.48,2.54-.72,3.81.33-1.79.67-3.57,1-5.36C784.66,507.51,784.56,508,784.47,508.54Z"/><path class="cls-5" d="M766.63,397.94c1.61.42,3.22.86,4.81,1.32C769.85,398.8,768.24,398.36,766.63,397.94Z"/><path class="cls-5" d="M846.6,484c0-3.92-.11-7.84-.28-11.75-.07-1.68-.19-3.34-.38-5-2.07-18.64-11.42-33.76-26.09-45.92a104.46,104.46,0,0,0-16.63-11.24c-.11.28-5,11.87-8.1,30.33a180.64,180.64,0,0,0-2.38,23.5c-.09,2.5-.12,5.07-.1,7.69,0,2.38.08,4.81.21,7.28a59.57,59.57,0,0,0,1.12,8.32c0,.74,0,1.48.08,2.22q.24,7.75.5,15.53c.05,1.57.1,3.14.16,4.7.17,5.16.33,10.34.51,15.55q.24,7.53.49,15.17c6.08-2.07,11.85-3.87,17.51-6A129.76,129.76,0,0,0,843.35,519c1.86-1.32,3.16-2.94,3.16-5.27,0-3,0-6.07,0-9.11,0-5.68.1-11.36.08-17C846.62,486.37,846.62,485.2,846.6,484Z"/><path class="cls-4" d="M779.11,537.05q2.29-12.34,4.64-24.7l-.27,1.41q-2.13,11.28-4.23,22.58C779.2,536.58,779.16,536.82,779.11,537.05Z"/><path class="cls-4" d="M788,490q-1.61,8.5-3.22,17c.37-2,.74-3.93,1.12-5.89Z"/><path class="cls-4" d="M772.46,399.56l.79.24,1.4.44.28.09a2.29,2.29,0,0,0-.28-.09l-1.4-.44-.79-.24-.93-.27-.09,0,.09,0Z"/><path class="cls-4" d="M776.85,543.6a2.75,2.75,0,0,0,1.47-2.32c.23-1.2.45-2.4.67-3.6-.22,1.2-.44,2.4-.67,3.6A2.75,2.75,0,0,1,776.85,543.6Z"/><path class="cls-4" d="M797.43,409.7l-1.12-.6-.15-.08.15.08C796.69,409.29,797.06,409.5,797.43,409.7Z"/><path class="cls-4" d="M794.3,408.08l.56.28-.55-.28-.69-.34-.43-.21.43.21C793.85,407.85,794.08,408,794.3,408.08Z"/><path class="cls-4" d="M765.42,546l.35-.07h0Z"/><path class="cls-4" d="M777.54,401.18l1.43.49.73.25,1.23.45-1.23-.45-.73-.25-1.43-.49-.72-.24-.83-.27.83.27Z"/><path class="cls-4" d="M791.15,406.57l-.92-.43-.72-.32.72.32Z"/><path class="cls-4" d="M748,537.44h31l0,.24c0-.08,0-.16,0-.24s.05-.25.07-.39.09-.47.14-.71l.75-4.06,3.12-16.64.36-1.88c.09-.47.17-.94.26-1.41.24-1.27.49-2.54.72-3.81H731A178.05,178.05,0,0,1,748,537.44Z"/><path class="cls-4" d="M766.45,545.83l2.69-.5-2.67.5Z"/><path class="cls-4" d="M790.18,440.49c3.1-18.46,8-30.05,8.11-30.33-.28-.16-.57-.31-.86-.46s-.74-.41-1.12-.6l-.15-.08-.42-.21-.88-.45-.56-.28c-.22-.12-.45-.23-.68-.34l-.43-.21-.91-.43-.73-.35-.4-.18-.92-.43-.72-.32h0l-1.29-.57-.47-.19-.28-.12-.4-.17-.94-.39-.63-.26-.12-.05-.36-.14-1-.4-.74-.29-1.39-.52-.49-.18-.24-.09-.18-.06-1.23-.45-.73-.25-1.43-.49-.72-.24-.83-.27-.62-.2-.44-.14-.28-.09-1.4-.44-.79-.24-.93-.27c-1.63-.48-3.26-.93-4.91-1.36l-3.15-.81,2.67.68.48.13h0l-.49-.14-2.67-.68a8.66,8.66,0,0,0-5.39.95c-.81.4-1.63.79-2.45,1.16-.39.19-.79.36-1.18.53l-1.29.57-1.39.58-1.08.44-.11,0,.11-.05,1.08-.43,1.39-.58c.43-.18.86-.38,1.28-.57s.8-.34,1.19-.53c.82-.37,1.64-.76,2.45-1.16-.81.4-1.63.79-2.45,1.16-.39.19-.79.36-1.19.53s-.85.39-1.28.57l-1.39.58-1.08.43-.11.05-1.44.55-.33.13-.34.12-.12.05-.11,0-.81.28-1,.36-.59.2-.27.09-.74.24-23.95,82.91h67.58c-.23-2.51-.41-5-.53-7.4s-.19-4.9-.21-7.28c0-2.62,0-5.19.11-7.69A180.74,180.74,0,0,1,790.18,440.49Z"/><path class="cls-4" d="M783.23,403.22l.74.29,1,.4-1-.4-.74-.29-1.39-.52-.49-.18.49.18Z"/><path class="cls-4" d="M788.26,488.65c.09-.43.18-.87.28-1.31s-.07-.65-.1-1c0,.33.06.66.1,1S788.35,488.22,788.26,488.65Z"/><path class="cls-4" d="M770.7,545l-1.56.31L771,545h0Z"/><path class="cls-4" d="M789.46,405.8l-1.29-.57-.47-.19.47.19Z"/><path class="cls-4" d="M787,404.75l-.94-.4-.63-.25.63.26Z"/><path class="cls-4" d="M771,545h0l-.16,0Z"/><path class="cls-4" d="M771,545l-.15,0-.11,0Z"/><path class="cls-4" d="M766.14,545.89l-.38.07h0l.37-.06.31-.06h0Z"/><path class="cls-4" d="M743.13,404l-22.66,80.4v2h.39l23.95-82.91-1,.31Z"/><path class="cls-4" d="M763.47,397.12l3.15.81-.48-.13Z"/><path class="cls-4" d="M771.53,399.29l-.09,0c-1.59-.46-3.2-.9-4.81-1.32h0C768.27,398.36,769.9,398.81,771.53,399.29Z"/><path class="cls-4" d="M780,532.28l-.75,4.06q2.09-11.3,4.23-22.58l-.36,1.88Z"/><path class="cls-2" d="M785.87,501.1l-1.41,7.44,1.41-7.44q1.05-5.57,2.11-11.14c.08-.43.18-.87.28-1.31-.1.44-.2.88-.28,1.31Q786.93,495.54,785.87,501.1Z"/><path class="cls-2" d="M720.47,487.72v7.6Q726,501.68,731,508.54h53.46l1.41-7.44q1.05-5.57,2.11-11.14c.08-.43.18-.87.28-1.31s.18-.87.28-1.31-.07-.65-.1-1H720.86Z"/><path class="cls-2" d="M761.78,546.64l1.22-.2-1.22.2Z"/><path class="cls-2" d="M761.25,546.73h0l.53-.08h0Z"/><path class="cls-2" d="M771,545c1.6-.32,3.21-.67,4.82-1a5.71,5.71,0,0,0,.57-.16,5.71,5.71,0,0,1-.57.16C774.18,544.3,772.57,544.65,771,545Z"/><path class="cls-2" d="M765,546.09l-.51.09-.34.06-1.11.2,2.3-.4.12,0-.12,0Z"/><path class="cls-2" d="M764.56,546.16l-.11,0-.34.06.34-.06Z"/><path class="cls-2" d="M765,546.09l-.4.07-.11,0Z"/><path class="cls-2" d="M766.47,545.83l2.67-.5,1.56-.31Z"/><path class="cls-2" d="M748,537.44q2.41,5.19,4.52,10.53l1-.12,1.41-.19.62-.08,1.23-.17.46-.07,2.18-.33.47-.07.87-.13.53-.08.53-.09,2.33-.4.34-.06.11,0q3.13-.54,6.25-1.16l.16,0c1.6-.32,3.21-.67,4.82-1a5.71,5.71,0,0,0,.57-.16,4.56,4.56,0,0,0,.49-.19,2.75,2.75,0,0,0,1.47-2.32c.23-1.2.45-2.4.67-3.6l0-.24Z"/><path class="cls-2" d="M765,546.09l.34-.05.12,0,.34-.06Z"/><path class="cls-2" d="M761.78,546.64l1.22-.2,1.11-.2Z"/><path class="cls-2" d="M765.76,546l.38-.07.33-.06,4.23-.81.11,0q-3.12.62-6.25,1.16l.4-.07Z"/><path class="cls-5" d="M723.38,383.58c37.1.13,66.88-29.24,67-66.07v-.29H657.58C657.6,353.67,687.12,383.46,723.38,383.58Z"/><path class="cls-7" d="M691.49,254.6q6,19,12,37.91a2.24,2.24,0,0,0,2.59,1.84q17.79-.08,35.56,0a2.5,2.5,0,0,0,2.89-2.08q5.93-18.9,11.94-37.79,2.37-7.41,4.75-14.83c.52-1.62.1-2.26-1.22-3.05A72,72,0,0,0,741.65,229a13.37,13.37,0,0,0-1.94-.21v2.71q0,8.22,0,16.43c0,4.09,0,8.17,0,12.26,0,.76.22,1.7-.14,2.25-.55.85-1.52,2-2.29,2s-1.69-1.18-2.27-2c-.32-.48-.08-1.34-.08-2v-13.4q0-12.58,0-25.16c0-3.11-1-4.11-4.11-4.13-4.36,0-8.72,0-13.08,0-4,0-4.76.81-4.76,4.88v37.88c0,.68.24,1.55-.09,2-.59.84-1.53,2-2.32,2s-1.63-1.19-2.27-2c-.26-.34-.08-1-.08-1.57q0-6.39,0-12.77,0-8.31,0-16.61v-2.54a4.34,4.34,0,0,0-1.08-.1,65.56,65.56,0,0,0-20,8.41,2.57,2.57,0,0,0-.43,2.26Q689.09,247,691.49,254.6Zm32.14,20a17.35,17.35,0,0,1,.28-3.62,5.63,5.63,0,0,1,1.16-2.35,5.45,5.45,0,0,1,2.26-1.67,8.15,8.15,0,0,1,3.07-.56,9,9,0,0,1,3.62.69,5.43,5.43,0,0,1,3.4,4,17.91,17.91,0,0,1,.24,3.41V282a19.21,19.21,0,0,1-.3,4.22A3.29,3.29,0,0,1,736.2,288a6.31,6.31,0,0,1-2.29,1c0,.52.14.85.33,1a2.6,2.6,0,0,0,1.33.21h2.1V293h-4.58a7.34,7.34,0,0,1-2.33-.26,1.58,1.58,0,0,1-.92-.75,4.71,4.71,0,0,1-.24-1.81,6.44,6.44,0,0,1-3.54-1.08,4.84,4.84,0,0,1-2-2.6,17.48,17.48,0,0,1-.47-4.72ZM708.72,269a4.66,4.66,0,0,1,2.21-1.94,8.77,8.77,0,0,1,3.69-.7,9.59,9.59,0,0,1,4,.77,4.17,4.17,0,0,1,2.2,1.92,10.19,10.19,0,0,1,.54,3.94v.92h-5.63v-1.73a3.3,3.3,0,0,0-.22-1.54.79.79,0,0,0-.72-.33.93.93,0,0,0-.83.45,2.64,2.64,0,0,0-.28,1.35,3.83,3.83,0,0,0,.32,1.76,4.63,4.63,0,0,0,1.71,1.43q4.05,2.4,5.11,3.94a9.07,9.07,0,0,1,1,5,8.73,8.73,0,0,1-.59,3.68,4.65,4.65,0,0,1-2.25,2,9,9,0,0,1-3.89.8,8.67,8.67,0,0,1-4.16-.93,4.46,4.46,0,0,1-2.25-2.34,11.93,11.93,0,0,1-.54-4.05v-1.53h5.64v2.84a3.69,3.69,0,0,0,.24,1.68.91.91,0,0,0,.84.38,1,1,0,0,0,.9-.48,2.65,2.65,0,0,0,.29-1.41,4.33,4.33,0,0,0-.56-2.69,17.21,17.21,0,0,0-2.84-2.12,27.27,27.27,0,0,1-3-2.18,5,5,0,0,1-1.22-1.87,8.27,8.27,0,0,1-.48-3.05A8.54,8.54,0,0,1,708.72,269Z"/><path class="cls-7" d="M730.63,286.73a.75.75,0,0,0,.79-.55,11.9,11.9,0,0,0,.17-2.61V272.85a7.28,7.28,0,0,0-.18-2.08.72.72,0,0,0-.74-.45.82.82,0,0,0-.73.37,5.12,5.12,0,0,0-.25,2.16v10.9a10.55,10.55,0,0,0,.17,2.5A.72.72,0,0,0,730.63,286.73Z"/><path class="cls-7" d="M651.47,312.42h30.44q21,0,42,0h70c7.62,0,8.24-.63,8.13-8.2-.05-3.37-1.69-5.06-5.09-5.1-2.62,0-5.24,0-7.86,0H653.11c-6.12,0-7.13,1-7.13,7.24V307C646,310.83,647.62,312.42,651.47,312.42Z"/><path class="cls-7" d="M748.9,294.2H794c-1.3-22.17-10.59-39.8-28-53.63q-2.64,8.31-5.25,16.53Z"/><path class="cls-7" d="M687.27,257.18l-5.22-16.43a68.86,68.86,0,0,0-23.62,31.38,58.67,58.67,0,0,0-4.11,22H699C695.08,281.8,691.19,269.55,687.27,257.18Z"/><path class="cls-1" d="M709.74,277.85a27.27,27.27,0,0,0,3,2.18,17.21,17.21,0,0,1,2.84,2.12,4.33,4.33,0,0,1,.56,2.69,2.65,2.65,0,0,1-.29,1.41,1,1,0,0,1-.9.48.91.91,0,0,1-.84-.38,3.69,3.69,0,0,1-.24-1.68v-2.84h-5.64v1.53a11.93,11.93,0,0,0,.54,4.05,4.46,4.46,0,0,0,2.25,2.34,8.67,8.67,0,0,0,4.16.93,9,9,0,0,0,3.89-.8,4.65,4.65,0,0,0,2.25-2,8.73,8.73,0,0,0,.59-3.68,9.07,9.07,0,0,0-1-5q-1.07-1.54-5.11-3.94a4.63,4.63,0,0,1-1.71-1.43,3.83,3.83,0,0,1-.32-1.76,2.64,2.64,0,0,1,.28-1.35.93.93,0,0,1,.83-.45.79.79,0,0,1,.72.33,3.3,3.3,0,0,1,.22,1.54v1.73h5.63V273a10.19,10.19,0,0,0-.54-3.94,4.17,4.17,0,0,0-2.2-1.92,9.59,9.59,0,0,0-4-.77,8.77,8.77,0,0,0-3.69.7,4.66,4.66,0,0,0-2.21,1.94,8.54,8.54,0,0,0-.68,3.92,8.27,8.27,0,0,0,.48,3.05A5,5,0,0,0,709.74,277.85Z"/><path class="cls-1" d="M726.06,289.11a6.44,6.44,0,0,0,3.54,1.08,4.71,4.71,0,0,0,.24,1.81,1.58,1.58,0,0,0,.92.75,7.34,7.34,0,0,0,2.33.26h4.58v-2.82h-2.1a2.6,2.6,0,0,1-1.33-.21c-.19-.13-.3-.46-.33-1a6.31,6.31,0,0,0,2.29-1,3.29,3.29,0,0,0,1.16-1.77,19.21,19.21,0,0,0,.3-4.22v-7.57a17.91,17.91,0,0,0-.24-3.41,5.43,5.43,0,0,0-3.4-4,9,9,0,0,0-3.62-.69,8.15,8.15,0,0,0-3.07.56,5.45,5.45,0,0,0-2.26,1.67,5.63,5.63,0,0,0-1.16,2.35,17.35,17.35,0,0,0-.28,3.62v7.22a17.48,17.48,0,0,0,.47,4.72A4.84,4.84,0,0,0,726.06,289.11Zm3.63-16.26a5.12,5.12,0,0,1,.25-2.16.82.82,0,0,1,.73-.37.72.72,0,0,1,.74.45,7.28,7.28,0,0,1,.18,2.08v10.72a11.9,11.9,0,0,1-.17,2.61.75.75,0,0,1-.79.55.72.72,0,0,1-.77-.48,10.55,10.55,0,0,1-.17-2.5Z"/><path class="cls-5" d="M703.65,404.75l.48.15,16.28,57.77a.17.17,0,0,0,.33,0l16.5-57.8,0,0c-5.64,1.73-7,2.65-13,2.76A65.3,65.3,0,0,1,703.65,404.75Z"/><path class="cls-3" d="M69.48,402.36l-.2.07-.25.09.25-.09Z"/><path class="cls-3" d="M75.46,400.33l-.44.14-.63.2.63-.2Z"/><path class="cls-3" d="M65.4,403.92l-.34.13-.11.05.11-.05Z"/><path class="cls-3" d="M101.59,402.07l-.33-.13-1.42-.54,1.42.54Z"/><path class="cls-3" d="M108.52,549.11h0l.87.08.58,0c-.48,0-1-.07-1.45-.12Z"/><path class="cls-3" d="M113,549.45l.25,0,.8.06h0Z"/><path class="cls-3" d="M93.2,547.34l.45.07,1.22.17-1.22-.17Z"/><path class="cls-3" d="M100.31,548.27h0l-.76-.09-.77-.09-1.27-.16-.59-.08,1.37.18,2,.24h0Z"/><path class="cls-3" d="M103.29,548.61l-.2,0,.2,0,1.08.11h0Z"/><path class="cls-3" d="M123.69,550l-.42,0h-.16l-4-.17-.75,0h0l.74,0c1.39.07,2.77.13,4.16.17l.42,0h0Z"/><path class="cls-3" d="M89,546.7l.17,0-.52-.09Z"/><path class="cls-3" d="M63.37,404.75l-.39.16-.29.13c.1,0,.19-.09.29-.12Z"/><path class="cls-3" d="M60.93,405.8h0Z"/><path class="cls-3" d="M55.53,408.36l-.87.45-.44.22.44-.22Z"/><path class="cls-3" d="M58.84,406.75l.41-.18-.41.18-.73.34-.9.44.9-.43Z"/><path class="cls-3" d="M105.58,403.45h0l-.74-.23-.27-.09.27.09Z"/><path class="cls-3" d="M102.16,402.28l.8.28-.8-.28-.12,0Z"/><path class="cls-5" d="M83.94,545.83l.31.06.37.06-.36-.06Z"/><path class="cls-5" d="M71.4,537.68c0-.08,0-.16-.05-.24s0-.26-.07-.39c.26,1.41.53,2.82.79,4.23C71.85,540.08,71.62,538.88,71.4,537.68Z"/><path class="cls-5" d="M101.92,402.19l.12.05.12,0-.9-.34.33.13Z"/><path class="cls-5" d="M65.64,507c.33,1.79.67,3.57,1,5.36l-.72-3.81C65.83,508,65.73,507.51,65.64,507Z"/><path class="cls-5" d="M79,399.26q2.39-.69,4.8-1.32Q81.35,398.57,79,399.26Z"/><path class="cls-5" d="M55.28,440.49c-3.1-18.46-8-30.05-8.11-30.33A104.92,104.92,0,0,0,30.54,421.4c-14.66,12.16-24,27.28-26.09,45.92-.18,1.62-.31,3.28-.38,5q-.24,5.87-.28,11.75c0,1.17,0,2.34,0,3.51,0,5.67,0,11.35.07,17,0,3,0,6.08,0,9.11,0,2.33,1.3,4,3.16,5.27a129.76,129.76,0,0,0,30.13,15.54c5.67,2.09,11.43,3.89,17.52,6q.24-7.65.49-15.17.26-7.81.51-15.55l.15-4.7.51-15.53c0-.74,0-1.48.07-2.22A59.14,59.14,0,0,0,57.55,479q.18-3.7.21-7.28c0-2.62,0-5.19-.11-7.69A180.74,180.74,0,0,0,55.28,440.49Z"/><path class="cls-4" d="M101.92,548.46l-1.5-.18h-.11l1.61.19,1.37.15-.2,0Z"/><path class="cls-4" d="M66.65,512.35q2.32,12.35,4.63,24.7c0-.23-.09-.46-.13-.7q-2.1-11.26-4.23-22.54Z"/><path class="cls-4" d="M64.52,501.1c.37,2,.74,3.93,1.12,5.89q-1.62-8.5-3.23-17Q63.46,495.54,64.52,501.1Z"/><path class="cls-4" d="M123.69,550h0Z"/><path class="cls-4" d="M79.58,545l-.15,0h0Z"/><path class="cls-4" d="M81.26,545.33,79.7,545l-.26,0h0c.6.13,1.21.24,1.82.36l2.68.5h0Z"/><path class="cls-4" d="M93.65,547.41l-.46-.07h0l.45.07,1.22.17h0Z"/><path class="cls-4" d="M92.1,547.18l1.1.16h0Z"/><path class="cls-4" d="M84.62,546l.48.09-.46-.08Z"/><path class="cls-4" d="M124.27,550h.21l.79,0-.79,0Z"/><path class="cls-4" d="M129.93,508.54h-64l-1.41-7.44,1.41,7.44.72,3.81.27,1.46c.12.61.24,1.22.35,1.83q1.58,8.33,3.12,16.64c.25,1.36.51,2.71.76,4.07,0,.24.09.47.13.7s0,.26.08.39h58.57Z"/><path class="cls-4" d="M108.05,549.07l-1.56-.14-.72-.07.72.07,1.56.14.47,0h0Z"/><path class="cls-4" d="M108.52,549.11Z"/><path class="cls-4" d="M100.31,548.27h0l-.76-.09.76.09Z"/><path class="cls-4" d="M96.24,547.76l-.74-.1-.61-.08h0l.63.08.74.1.68.09h0Z"/><path class="cls-4" d="M96.92,547.85h0l.59.08Z"/><path class="cls-4" d="M62.69,405l-.46.19-1.3.57,1.3-.57Z"/><path class="cls-4" d="M124.07,550Z"/><path class="cls-4" d="M119.11,549.82l4,.17h0Z"/><path class="cls-4" d="M67.16,403.22l1.39-.52.48-.18-.48.18-1.39.52-.74.29-1,.41,1-.41Z"/><path class="cls-4" d="M116.88,549.71l-.27,0,.27,0h0l1.43.08-1.43-.08Z"/><path class="cls-4" d="M65,404.1l-.64.25-.94.4c.32-.13.63-.27.95-.39Z"/><path class="cls-4" d="M104.57,403.12l-.59-.21-1-.35,1,.36Z"/><path class="cls-4" d="M71.42,401.67l1.43-.49.72-.24.82-.27-.82.27-.72.24-1.43.49-.73.25-1.21.44,1.21-.44Z"/><path class="cls-4" d="M77.14,399.8l.79-.24.93-.27.1,0-.09,0-.94.27-.79.24-1.4.44-.28.09.28-.09Z"/><path class="cls-4" d="M105.58,403.45l-.74-.24-.27-.09-.59-.2-1-.36-.8-.28-.12,0-.12-.05-.33-.12-.33-.13-1.42-.54-.14-.06-1.07-.43-1.4-.58c-.43-.18-.85-.38-1.28-.57s-.79-.34-1.19-.53c-.82-.37-1.63-.76-2.45-1.16.82.4,1.63.79,2.45,1.16.4.19.79.36,1.19.53s.85.39,1.28.57l1.4.58,1.07.43.14.06-.14,0-1.08-.44-1.39-.58c-.43-.18-.85-.38-1.28-.57s-.79-.34-1.19-.53c-.82-.37-1.63-.76-2.45-1.16a8.63,8.63,0,0,0-5.38-.95l-2.67.68-.5.14h0l.48-.13,2.68-.68c-1.06.26-2.11.54-3.16.81-1.64.44-3.28.88-4.91,1.36l-.93.27-.79.24-1.4.44-.28.09-.44.14-.63.2-.82.27-.72.24-1.43.49-.73.25-1.21.44-.2.07-.25.09-.48.18-1.39.52-.73.29-1,.41-.34.13-.11.05-.63.26c-.32.12-.63.26-.95.39l-.39.17c-.1,0-.19.08-.29.12l-.46.19-1.3.57h0l-.72.32-.91.43-.41.18-.73.35-.9.43-.44.21-.68.34-.56.28-.87.45-.44.22-.14.07-1.07.57-.91.49c.12.28,5,11.87,8.11,30.33A182.4,182.4,0,0,1,62.59,464c.09,2.5.12,5.07.1,7.69,0,2.38-.08,4.81-.21,7.28s-.3,4.89-.53,7.4h67.58Z"/><path class="cls-4" d="M60.88,405.82l-.72.32-.91.43.91-.43Z"/><path class="cls-4" d="M54.22,409l-.13.07-1.08.57,1.07-.57Z"/><path class="cls-4" d="M56.77,407.74l.44-.21-.44.21-.68.34-.56.28.56-.28Z"/><path class="cls-4" d="M79.7,545l-.12,0-.14,0Z"/><path class="cls-4" d="M84.26,545.89l-.34-.06h0l.32.06.36.06h0Z"/><path class="cls-4" d="M129.93,484.39v0L107.26,404l-.67-.21-1-.31,24,82.91h.4Z"/><path class="cls-4" d="M101.59,402.07l.33.12.12.05-.12-.05Z"/><path class="cls-4" d="M83.77,397.93h0q-2.42.63-4.8,1.32l-.1,0C80.49,398.81,82.13,398.37,83.77,397.93Z"/><path class="cls-4" d="M84.25,397.8l-.48.13c1-.27,2.1-.55,3.16-.81Z"/><path class="cls-4" d="M67.27,515.64c-.11-.61-.23-1.22-.35-1.83q2.13,11.27,4.23,22.54c-.25-1.36-.51-2.71-.76-4.07Q68.85,524,67.27,515.64Z"/><path class="cls-4" d="M124.07,550Z"/><path class="cls-2" d="M129.93,508.54V487.72l-.4-1.36H62l-.09,1c.19.87.39,1.75.55,2.62q1.06,5.58,2.11,11.14l1.41,7.44Z"/><path class="cls-2" d="M71.36,537.44a2,2,0,0,0,0,.24c.22,1.2.45,2.4.67,3.6-.22-1.2-.45-2.4-.67-3.6A2,2,0,0,1,71.36,537.44Z"/><path class="cls-2" d="M86,546.18l-.52-.09L85.1,546l2.3.4-1.11-.2Z"/><path class="cls-2" d="M86.29,546.24l-.34-.06-.12,0,.12,0Z"/><path class="cls-2" d="M91,547l-.46-.07-.87-.13.87.13Z"/><path class="cls-2" d="M90.55,546.94l-.87-.13-.43-.07c1,.16,1.89.3,2.85.44L91,547Z"/><path class="cls-2" d="M103.09,548.59l.2,0-3-.34h.11Z"/><path class="cls-2" d="M99.55,548.18l-.77-.09-1.27-.16,1.27.16Z"/><path class="cls-2" d="M86,546.18l-.12,0-.4-.07Z"/><path class="cls-2" d="M101.92,548.46l1.17.13-2.67-.31Z"/><path class="cls-2" d="M110.9,549.3c.35,0,.71.06,1.06.09l1,.06c-1-.06-2-.14-3-.22Z"/><path class="cls-2" d="M119.11,549.82l4,.17h.16l.42,0h.38l3.9.09h.33c.11-1.18.2-2.36.34-3.53.33-3,.77-6,1.29-9v-.16H71.36a2,2,0,0,0,0,.24c.22,1.2.45,2.4.67,3.6A2.8,2.8,0,0,0,74.6,544c1.61.35,3.22.7,4.83,1l.15,0c2.08.41,4.17.8,6.25,1.16l.12,0,.34.06,2.33.4.52.09.54.08.87.13L91,547l2.18.33.46.07,1.24.17.61.08,1.42.19.59.08,1.27.16.77.09.76.09h0l3,.34,1.07.11h.12c1.35.14,2.69.27,4,.38h0c.48,0,1,.08,1.45.12,1,.08,2,.16,3,.22l1,.08h.25c1.36.09,2.73.18,4.1.25h0Z"/><path class="cls-2" d="M125.85,550.07h.62c-.74,0-1.47,0-2.2-.06h.21l.79,0h.58Z"/><path class="cls-2" d="M115.15,549.6l.24,0,.34,0,.45,0,.43,0,.27,0h0l1.43.08h0c-1.37-.07-2.74-.16-4.1-.25Q114.7,549.59,115.15,549.6Z"/><path class="cls-2" d="M96.24,547.76l.68.09-1.42-.19-.61-.08.61.08Z"/><path class="cls-2" d="M84.64,546l.46.08.33.05Z"/><path class="cls-2" d="M108.05,549.07l.47,0c-1.35-.11-2.69-.24-4-.38l1.29.13.72.07Z"/><path class="cls-2" d="M89.14,546.73h.11l.43.07Z"/><path class="cls-2" d="M87.4,546.44l1.22.2-2.33-.4Z"/><path class="cls-2" d="M81.26,545.33l2.66.5c-1.41-.26-2.82-.53-4.22-.81Z"/><path class="cls-2" d="M91,547l1.09.17,1.09.16Z"/><path class="cls-2" d="M83.92,545.83l.34.06.38.07.79.13.4.07c-2.08-.36-4.17-.75-6.25-1.16l.12,0C81.1,545.3,82.51,545.57,83.92,545.83Z"/><path class="cls-2" d="M124.07,550h.2c.73,0,1.46.05,2.2.06h.1l1.4,0Z"/><path class="cls-5" d="M227.6,420l-6.55,2.91q-7.52,4.11-14.76,8.8a135.54,135.54,0,0,1,6.4-21.56A105.56,105.56,0,0,1,227.6,420Z"/><path class="cls-4" d="M154.28,403.45l-23.95,82.91h19.55a170,170,0,0,1,35.2-39.11c5-4.17,10.2-8.05,15.48-11.7,3.06-15.55,7.09-25.14,7.2-25.39l-.86-.46-1.12-.6-.15-.08-.43-.21-.87-.45-.56-.28-.68-.34-.43-.21-.91-.43-.73-.35-.4-.18-.92-.43-.72-.32h0l-1.3-.57-.46-.19-.29-.12-.39-.17-.94-.39-.63-.26-.12-.05-.36-.14-1-.4-.74-.29-1.39-.52-.49-.18-.24-.09-.18-.06-1.23-.45-.73-.25-1.43-.49-.72-.24-.83-.27-.62-.2-.44-.14-.28-.09-1.4-.44-.79-.24-.93-.27q-2.44-.72-4.91-1.36l-3.15-.81,2.67.68.48.13h0l-.49-.14-2.68-.68a8.64,8.64,0,0,0-5.38.95c-.81.4-1.63.79-2.45,1.16-.4.19-.79.36-1.19.53s-.85.39-1.28.57l-1.39.58-1.08.44-.11,0,.11-.05,1.08-.43,1.39-.58c.43-.18.86-.38,1.28-.57s.8-.34,1.19-.53c.82-.37,1.64-.76,2.45-1.16-.81.4-1.63.79-2.45,1.16-.39.19-.79.36-1.19.53s-.85.39-1.28.57l-1.39.58-1.08.43-.11.05-1.45.55-.32.13-.34.12-.12.05-.11,0-.81.28-1,.36-.59.2-.27.09Z"/><path class="cls-4" d="M129.93,537.44h0a138.35,138.35,0,0,1,8.35-28.9h-8.38Z"/><path class="cls-4" d="M129.93,486.36h.4l23.95-82.91-1,.31-.67.21-22.67,80.4v2Z"/><path class="cls-2" d="M129.93,508.54h8.38a141.21,141.21,0,0,1,11.57-22.18H130.33l-.4,1.36Z"/><path class="cls-5" d="M132.84,383.58c37.11.13,66.89-29.24,67-66.07v-.29H67.05C67.07,353.67,96.58,383.46,132.84,383.58Z"/><path class="cls-7" d="M140.09,286.73a.75.75,0,0,0,.8-.55,11.9,11.9,0,0,0,.17-2.61V272.85a7.28,7.28,0,0,0-.18-2.08.72.72,0,0,0-.74-.45.82.82,0,0,0-.73.37,5.12,5.12,0,0,0-.25,2.16v10.9a10.78,10.78,0,0,0,.16,2.5A.72.72,0,0,0,140.09,286.73Z"/><path class="cls-7" d="M101,254.6q6,19,12,37.91a2.24,2.24,0,0,0,2.59,1.84q17.78-.08,35.56,0a2.49,2.49,0,0,0,2.88-2.08q5.92-18.9,11.95-37.79,2.36-7.41,4.75-14.83c.52-1.62.1-2.26-1.22-3.05A72,72,0,0,0,151.12,229a13.37,13.37,0,0,0-2-.21v31.4c0,.76.22,1.7-.14,2.25-.55.85-1.52,2-2.29,2s-1.69-1.18-2.27-2c-.32-.48-.09-1.34-.09-2V221.75c0-3.11-1-4.11-4.11-4.13-4.36,0-8.72,0-13.08,0-4,0-4.76.81-4.76,4.88v37.88c0,.68.24,1.55-.09,2-.59.84-1.53,2-2.33,2s-1.62-1.19-2.26-2c-.27-.34-.08-1-.08-1.57q0-6.39,0-12.77,0-8.31,0-16.61v-2.54a4.34,4.34,0,0,0-1.08-.1,65.46,65.46,0,0,0-20,8.41c-.46.29-.64,1.59-.43,2.26Q98.55,247,101,254.6Zm32.13,20a18.07,18.07,0,0,1,.28-3.62,5.88,5.88,0,0,1,1.16-2.35,5.48,5.48,0,0,1,2.27-1.67,8.13,8.13,0,0,1,3.06-.56,9,9,0,0,1,3.63.69,5.49,5.49,0,0,1,3.4,4,17.91,17.91,0,0,1,.24,3.41V282a19,19,0,0,1-.31,4.22,3.24,3.24,0,0,1-1.16,1.77,6.18,6.18,0,0,1-2.28,1c0,.52.14.85.32,1a2.67,2.67,0,0,0,1.34.21h2.1V293h-4.58a7.42,7.42,0,0,1-2.34-.26,1.55,1.55,0,0,1-.91-.75,4.71,4.71,0,0,1-.24-1.81,6.44,6.44,0,0,1-3.54-1.08,4.84,4.84,0,0,1-2-2.6,17.4,17.4,0,0,1-.48-4.72ZM118.19,269a4.61,4.61,0,0,1,2.21-1.94,8.77,8.77,0,0,1,3.69-.7,9.63,9.63,0,0,1,4,.77,4.17,4.17,0,0,1,2.2,1.92,10.19,10.19,0,0,1,.54,3.94v.92h-5.63v-1.73a3.3,3.3,0,0,0-.22-1.54.79.79,0,0,0-.72-.33.93.93,0,0,0-.83.45,2.64,2.64,0,0,0-.28,1.35,3.83,3.83,0,0,0,.32,1.76,4.63,4.63,0,0,0,1.71,1.43q4,2.4,5.1,3.94a9.07,9.07,0,0,1,1.05,5,8.76,8.76,0,0,1-.58,3.68,4.65,4.65,0,0,1-2.25,2,9,9,0,0,1-3.89.8,8.64,8.64,0,0,1-4.16-.93,4.46,4.46,0,0,1-2.25-2.34,11.93,11.93,0,0,1-.54-4.05v-1.53h5.64v2.84a3.73,3.73,0,0,0,.23,1.68.93.93,0,0,0,.85.38,1,1,0,0,0,.9-.48,2.75,2.75,0,0,0,.29-1.41,4.4,4.4,0,0,0-.56-2.69A17.21,17.21,0,0,0,122.2,280a26.28,26.28,0,0,1-3-2.18A5,5,0,0,1,118,276a8.27,8.27,0,0,1-.48-3.05A8.41,8.41,0,0,1,118.19,269Z"/><path class="cls-7" d="M60.94,312.42H91.38q21,0,42,0h70c7.62,0,8.24-.63,8.13-8.2-.05-3.37-1.69-5.06-5.1-5.1-2.61,0-5.23,0-7.85,0H62.58c-6.13,0-7.14,1-7.13,7.24V307C55.49,310.83,57.09,312.42,60.94,312.42Z"/><path class="cls-7" d="M158.37,294.2h45.06c-1.3-22.17-10.6-39.8-28-53.63l-5.26,16.53C166.23,269.48,162.32,281.78,158.37,294.2Z"/><path class="cls-7" d="M96.74,257.18l-5.22-16.43a68.88,68.88,0,0,0-23.63,31.38,58.66,58.66,0,0,0-4.1,22h44.69C104.55,281.8,100.66,269.55,96.74,257.18Z"/><path class="cls-1" d="M119.21,277.85a26.28,26.28,0,0,0,3,2.18,17.21,17.21,0,0,1,2.84,2.12,4.4,4.4,0,0,1,.56,2.69,2.75,2.75,0,0,1-.29,1.41,1,1,0,0,1-.9.48.93.93,0,0,1-.85-.38,3.73,3.73,0,0,1-.23-1.68v-2.84h-5.64v1.53a11.93,11.93,0,0,0,.54,4.05,4.46,4.46,0,0,0,2.25,2.34,8.64,8.64,0,0,0,4.16.93,9,9,0,0,0,3.89-.8,4.65,4.65,0,0,0,2.25-2,8.76,8.76,0,0,0,.58-3.68,9.07,9.07,0,0,0-1.05-5q-1-1.54-5.1-3.94a4.63,4.63,0,0,1-1.71-1.43,3.83,3.83,0,0,1-.32-1.76,2.64,2.64,0,0,1,.28-1.35.93.93,0,0,1,.83-.45.79.79,0,0,1,.72.33,3.3,3.3,0,0,1,.22,1.54v1.73h5.63V273a10.19,10.19,0,0,0-.54-3.94,4.17,4.17,0,0,0-2.2-1.92,9.63,9.63,0,0,0-4-.77,8.77,8.77,0,0,0-3.69.7,4.61,4.61,0,0,0-2.21,1.94,8.41,8.41,0,0,0-.68,3.92A8.27,8.27,0,0,0,118,276,5,5,0,0,0,119.21,277.85Z"/><path class="cls-1" d="M135.53,289.11a6.44,6.44,0,0,0,3.54,1.08,4.71,4.71,0,0,0,.24,1.81,1.55,1.55,0,0,0,.91.75,7.42,7.42,0,0,0,2.34.26h4.58v-2.82H145a2.67,2.67,0,0,1-1.34-.21c-.18-.13-.29-.46-.32-1a6.18,6.18,0,0,0,2.28-1,3.24,3.24,0,0,0,1.16-1.77,19,19,0,0,0,.31-4.22v-7.57a17.91,17.91,0,0,0-.24-3.41,5.49,5.49,0,0,0-3.4-4,9,9,0,0,0-3.63-.69,8.13,8.13,0,0,0-3.06.56,5.48,5.48,0,0,0-2.27,1.67,5.88,5.88,0,0,0-1.16,2.35,18.07,18.07,0,0,0-.28,3.62v7.22a17.4,17.4,0,0,0,.48,4.72A4.84,4.84,0,0,0,135.53,289.11Zm3.63-16.26a5.12,5.12,0,0,1,.25-2.16.82.82,0,0,1,.73-.37.72.72,0,0,1,.74.45,7.28,7.28,0,0,1,.18,2.08v10.72a11.9,11.9,0,0,1-.17,2.61.75.75,0,0,1-.8.55.72.72,0,0,1-.77-.48,10.78,10.78,0,0,1-.16-2.5Z"/><path class="cls-5" d="M112.81,408.36l.48.15,16.29,57.77a.17.17,0,0,0,.33,0l16.49-57.8h0c-5.64,1.72-7,2.64-13,2.75A65.36,65.36,0,0,1,112.81,408.36Z"/></svg>