<?xml version="1.0" encoding="UTF-8" standalone="no"?><!DOCTYPE svg PUBLIC "-//W3C//DTD SVG 1.1//EN" "http://www.w3.org/Graphics/SVG/1.1/DTD/svg11.dtd"><svg width="100%" height="100%" viewBox="0 0 1418 1418" version="1.1" xmlns="http://www.w3.org/2000/svg" xmlns:xlink="http://www.w3.org/1999/xlink" xml:space="preserve" xmlns:serif="http://www.serif.com/" style="fill-rule:evenodd;clip-rule:evenodd;stroke-linejoin:round;stroke-miterlimit:2;"><path d="M1234.691,707.169c-10.79,-18.711 -31.338,-43.047 -49.016,-62.331c-9.412,-57.511 -29.157,-111.921 -57.395,-161.052c18.596,10.79 40.406,23.188 52.689,30.764c7.116,28.124 10.445,55.903 11.134,83.569c7.232,0.229 14.464,0.573 21.581,0.918c3.558,-19.285 3.903,-38.915 2.066,-58.659c16.644,10.676 33.404,22.844 50.508,40.982c-5.854,46.948 -16.414,88.847 -31.567,125.81m15.153,211.904c-31.223,35.471 -63.365,64.168 -96.654,86.093c1.607,-21.581 -1.608,-53.378 -5.511,-79.321c24.45,-52.919 38.57,-109.052 42.817,-165.643c9.298,19.4 20.433,42.128 26.287,55.329c-9.872,27.206 -22.728,52.115 -37.536,75.303c5.739,4.362 11.479,8.725 17.218,13.087c13.775,-14.006 25.024,-29.962 34.552,-47.294c7.807,18.251 14.809,37.881 18.827,62.446m-158.182,149.457c-22.728,17.679 -46.72,31.913 -71.514,43.621c2.526,6.772 5.166,13.545 7.691,20.317c19.055,-4.476 36.963,-11.938 54.182,-21.58c-2.985,19.629 -7.462,40.062 -16.989,63.019c-45.113,13.316 -87.471,20.433 -127.303,21.123c12.855,-17.449 26.746,-46.031 37.191,-70.138c48.556,-31.682 90.226,-71.63 123.63,-117.202c-2.41,21.352 -4.936,46.49 -6.887,60.839m-234.403,147.391c-28.583,3.101 -56.478,2.412 -83.682,-0.688c-1.378,7.117 -2.641,14.234 -4.018,21.352c18.481,6.314 37.651,9.413 57.395,10.33c-12.856,15.154 -27.32,30.076 -47.408,44.538c-25.363,-6.998 -48.963,-15.22 -70.826,-24.682c-17.223,-7.453 -33.369,-15.674 -48.442,-24.678c14.163,-5.778 31.725,-15.946 48.442,-26.692c6.86,-4.409 13.58,-8.913 19.859,-13.254c57.855,-1.263 114.101,-13.201 166.332,-34.438c-13.2,16.989 -28.468,37.078 -37.651,48.211m-264.248,4.822c-26.287,-11.708 -50.164,-26.173 -72.204,-42.702c-4.706,5.509 -9.298,11.019 -14.005,16.529c12.856,14.808 28.009,27.091 44.538,37.766c-18.596,6.772 -38.454,12.513 -63.019,14.808c-33.175,-33.518 -59.462,-67.726 -79.092,-102.623c21.353,2.985 53.035,1.723 78.977,-0.345c50.852,27.894 105.492,45.801 161.281,53.608c-19.859,8.15 -43.047,17.907 -56.477,22.958m-253,-178.041c-6.659,2.755 -13.201,5.625 -19.859,8.495c5.051,18.94 13.086,36.618 23.188,53.722c-19.515,-2.411 -39.947,-6.199 -63.02,-15.038c-14.809,-44.768 -23.303,-87.242 -25.369,-127.189c17.792,12.168 46.606,25.254 70.826,35.012c33.175,47.752 74.27,88.159 120.76,120.185c-21.35,-1.607 -46.375,-3.329 -60.724,-4.822c-18.367,-22.269 -33.289,-45.8 -45.801,-70.366m-102.968,-206.852c-7.232,-0.575 -14.349,-1.148 -21.581,-1.723c-4.132,19.17 -5.165,38.799 -3.902,58.543c-16.301,-11.134 -32.716,-23.876 -49.131,-42.472c7.347,-46.72 19.169,-88.39 35.585,-124.893c10.105,18.963 29.418,43.532 46.388,63.282c3.276,23.931 8.316,47.305 14.987,69.988c9.347,32.609 22.057,63.914 37.805,93.442c-18.137,-11.25 -39.719,-24.451 -51.656,-32.37c-6.199,-28.354 -8.61,-56.248 -8.495,-83.797m19.629,-355.164c0.115,21.638 6.052,52.748 12.006,78.308c-7.328,20.175 -13.318,40.986 -17.921,62.309c-0.05,0.231 -0.099,0.462 -0.149,0.693c-0.631,2.923 -1.222,5.852 -1.797,8.781c-0.224,1.145 -0.441,2.291 -0.657,3.438c-0.412,2.189 -0.81,4.38 -1.192,6.572c-0.385,2.213 -0.744,4.429 -1.097,6.643c-0.198,1.24 -0.401,2.478 -0.589,3.717c-3.866,25.481 -5.684,51.129 -5.477,76.683c-10.905,-18.596 -23.876,-40.176 -30.878,-52.918c7.576,-27.895 18.366,-53.838 31.222,-78.173c-6.084,-3.903 -12.168,-7.691 -18.252,-11.595c-12.627,15.038 -22.499,31.912 -30.534,50.049c-9.298,-17.563 -17.907,-36.503 -23.876,-60.724c28.124,-37.881 57.855,-69.218 89.192,-93.784m82.65,-108.247c-17.907,7.691 -34.438,18.136 -49.705,30.534c-0.344,-19.859 0.575,-40.751 6.199,-64.972c42.128,-20.777 82.764,-35.011 121.793,-42.587c-9.642,19.399 -18.596,50.049 -24.91,75.532c-42.473,39.489 -76.795,85.979 -102.049,136.716c-1.262,-21.466 -2.985,-46.72 -3.443,-61.184c19.399,-21.465 40.636,-39.488 63.249,-55.329c-3.673,-6.199 -7.461,-12.398 -11.134,-18.711m134.764,-100.443c27.32,-9.298 54.525,-14.808 81.846,-17.563c-0.23,-7.232 -0.46,-14.579 -0.69,-21.81c-19.399,-2.066 -38.799,-0.919 -58.198,2.41c9.183,-17.563 20.087,-35.24 36.618,-53.722c46.95,2.296 89.307,9.642 127.074,22.04c-17.792,12.283 -40.292,34.667 -58.084,53.952c-0.135,0.033 -0.267,0.071 -0.402,0.104c-3.283,0.817 -6.554,1.665 -9.81,2.549c-0.204,0.055 -0.408,0.11 -0.612,0.167c-3.353,0.915 -6.693,1.863 -10.018,2.85c-0.024,0.009 -0.05,0.017 -0.075,0.023c-27.22,8.088 -53.437,18.568 -78.413,31.201c-0.445,0.225 -0.894,0.445 -1.338,0.672c-2.462,1.254 -4.905,2.54 -7.343,3.835c-0.899,0.477 -1.8,0.952 -2.696,1.435c-2.092,1.129 -4.17,2.282 -6.243,3.441c-1.27,0.709 -2.537,1.423 -3.8,2.145c-1.741,0.994 -3.473,2.002 -5.201,3.019c-1.654,0.972 -3.299,1.956 -4.941,2.948c-1.347,0.813 -2.69,1.632 -4.027,2.459c-2.145,1.325 -4.273,2.67 -6.395,4.028c-0.835,0.534 -1.672,1.065 -2.503,1.604c-2.88,1.867 -5.737,3.766 -8.575,5.694c-0.078,0.053 -0.157,0.105 -0.235,0.158c-0.777,0.529 -1.567,1.042 -2.341,1.576c9.183,-19.4 19.859,-42.358 26.402,-55.215m234.633,-46.53c8.666,-5.971 16.649,-11.401 22.613,-15.228c28.239,5.739 54.525,14.808 79.551,26.173c3.328,-6.314 6.771,-12.742 10.216,-19.055c-15.726,-11.709 -33.06,-20.548 -51.541,-27.434c16.759,-10.446 35.011,-20.318 58.543,-28.01c39.374,25.829 72.319,53.608 98.835,83.454c-21.465,1.607 -52.115,9.642 -77.14,17.333c-46.324,-13.81 -93.93,-20.061 -141.077,-19.275c-9.282,0.155 -18.547,0.555 -27.78,1.253c9.013,-6.203 18.767,-12.999 27.78,-19.209m-350.801,497.543c0,-198.702 160.822,-360.672 357.917,-360.672c197.211,0 358.033,161.97 358.033,360.672c0,198.589 -160.822,360.558 -358.033,360.558c-197.095,0 -357.917,-161.969 -357.917,-360.558m630.662,-432.991c21.236,19.515 39.258,40.865 54.984,63.595c6.084,-3.789 12.283,-7.462 18.482,-11.135c-7.577,-18.137 -17.907,-34.668 -30.305,-50.164c19.745,-0.344 40.407,0.573 64.513,6.199c20.777,42.472 34.896,83.338 42.357,122.711c-19.284,-9.757 -49.589,-18.711 -74.959,-25.024c-0.682,-0.745 -1.382,-1.466 -2.069,-2.204c-0.695,-0.748 -1.396,-1.49 -2.095,-2.232c-38.355,-40.754 -83.113,-73.705 -131.634,-98.186c21.352,-1.378 46.376,-3.101 60.725,-3.559m413.706,419.331c-44.653,-75.532 -98.95,-135.109 -159.559,-184.239c29.616,17.448 59.231,36.848 88.848,57.968c-1.033,-69.333 -2.066,-138.781 -3.099,-208.115c-115.824,-67.038 -233.141,-90.226 -351.031,-92.751c58.429,-8.61 121.335,-10.217 187.11,-7.117c-38.111,-57.855 -76.107,-115.709 -114.216,-173.564c-112.381,5.625 -209.035,37.996 -296.85,85.059c39.488,-27.09 83.224,-51.771 129.714,-74.957c-58.199,-30.649 -116.284,-61.184 -174.482,-91.833c-2.87,-1.608 -5.854,-3.099 -8.724,-4.592c-82.306,51.197 -144.867,114.102 -195.375,184.01c16.301,-31.452 34.781,-63.02 54.985,-94.702c-68.76,4.133 -137.519,8.149 -206.279,12.283c-48.557,94.702 -69.909,189.175 -75.303,283.304c-2.87,-44.998 -2.295,-92.292 0.803,-140.963c-58.084,37.307 -116.169,74.615 -174.367,111.921c2.985,93.439 24.22,176.319 56.821,252.54c-17.334,-29.157 -33.748,-60.151 -49.246,-92.521c-32.37,61.298 -64.627,122.596 -96.998,183.894c50.967,84.142 113.643,148.081 183.781,199.621c-32.945,-16.988 -65.89,-36.388 -98.951,-57.853c4.133,69.333 8.15,138.552 12.283,207.885c89.538,46.376 178.729,68.071 267.693,74.729c-39.602,2.526 -80.928,2.641 -123.286,0.69c38.226,57.855 76.336,115.594 114.562,173.334c102.508,-5.396 191.815,-32.945 273.202,-73.581c-35.815,23.302 -74.729,44.883 -115.939,65.2c60.036,31.913 120.186,63.825 180.337,95.737c0.803,0.459 1.607,0.918 2.41,1.377c85.405,-52.689 149.687,-117.89 201.344,-190.553c-17.334,36.504 -37.652,73.122 -60.381,109.855c68.761,-5.165 137.405,-10.445 206.165,-15.726c46.375,-94.244 66.12,-187.683 70.366,-280.549c1.493,41.899 0.115,85.404 -3.443,130.287c58.658,-36.388 117.316,-72.662 175.974,-109.167c-1.607,-100.555 -24.565,-189.29 -60.266,-270.791c22.5,36.159 43.277,75.302 62.677,116.742c32.945,-60.954 65.775,-121.908 98.72,-182.862" style="fill:#f26639;fill-rule:nonzero;"/></svg>